<ttFont>
    <TTGlyph name="A" xMin="-22" yMin="1" xMax="383" yMax="701">
      <contour>
        <pt x="314" y="255" on="1"/>
        <pt x="299" y="635" on="1"/>
        <pt x="286" y="635" on="1"/>
        <pt x="136" y="255" on="1"/>
        <pt x="314" y="255" on="1"/>
      </contour>
      <contour>
        <pt x="110" y="196" on="1"/>
        <pt x="32" y="1" on="1"/>
        <pt x="-22" y="1" on="1"/>
        <pt x="261" y="701" on="1"/>
        <pt x="346" y="701" on="1"/>
        <pt x="383" y="1" on="1"/>
        <pt x="330" y="1" on="1"/>
        <pt x="319" y="196" on="1"/>
        <pt x="110" y="196" on="1"/>
      </contour>
    </TTGlyph>
    <TTGlyph name="AE" xMin="-35" yMin="1" xMax="762" yMax="700">
      <contour>
        <pt x="418" y="635" on="1"/>
        <pt x="181" y="255" on="1"/>
        <pt x="402" y="254" on="1"/>
        <pt x="470" y="634" on="1"/>
      </contour>
      <contour>
        <pt x="408" y="700" on="1"/>
        <pt x="762" y="700" on="1"/>
        <pt x="752" y="643" on="1"/>
        <pt x="525" y="643" on="1"/>
        <pt x="479" y="381" on="1"/>
        <pt x="657" y="381" on="1"/>
        <pt x="646" y="323" on="1"/>
        <pt x="468" y="323" on="1"/>
        <pt x="422" y="59" on="1"/>
        <pt x="651" y="59" on="1"/>
        <pt x="641" y="1" on="1"/>
        <pt x="358" y="1" on="1"/>
        <pt x="392" y="196" on="1"/>
        <pt x="142" y="196" on="1"/>
        <pt x="19" y="1" on="1"/>
        <pt x="-35" y="1" on="1"/>
      </contour>
    </TTGlyph>
    <TTGlyph name="Aacute" xMin="-22" yMin="1" xMax="479" yMax="937">
      <component glyphName="A" x="0" y="0" flags="0x1204"/>
      <component glyphName="acute" x="-13" y="200" flags="0x1004"/>
    </TTGlyph>
    <TTGlyph name="Acircumflex" xMin="-22" yMin="1" xMax="453" yMax="951">
      <component glyphName="A" x="0" y="0" flags="0x1204"/>
      <component glyphName="circumflex" x="18" y="200" flags="0x1004"/>
    </TTGlyph>
    <TTGlyph name="Adieresis" xMin="-22" yMin="1" xMax="465" yMax="877">
      <component glyphName="A" x="0" y="0" flags="0x1204"/>
      <component glyphName="dieresis" x="-14" y="200" flags="0x1004"/>
    </TTGlyph>
    <TTGlyph name="Agrave" xMin="-22" yMin="1" xMax="383" yMax="936">
      <component glyphName="A" x="0" y="0" flags="0x1204"/>
      <component glyphName="grave" x="-25" y="200" flags="0x1004"/>
    </TTGlyph>
    <TTGlyph name="Atilde" xMin="-22" yMin="1" xMax="472" yMax="855">
      <component glyphName="A" x="0" y="0" flags="0x1204"/>
      <component glyphName="tilde" x="-31" y="200" flags="0x1004"/>
    </TTGlyph>
    <TTGlyph name="B" xMin="27" yMin="0" xMax="443" yMax="710">
      <contour>
        <pt x="140" y="327" on="1"/>
        <pt x="93" y="58" on="1"/>
        <pt x="219" y="58" on="1"/>
        <pt x="249" y="58" on="0"/>
        <pt x="292" y="79" on="0"/>
        <pt x="323" y="115" on="0"/>
        <pt x="341" y="163" on="0"/>
        <pt x="346" y="190" on="1"/>
        <pt x="351" y="218" on="0"/>
        <pt x="350" y="268" on="0"/>
        <pt x="332" y="305" on="0"/>
        <pt x="296" y="327" on="0"/>
        <pt x="266" y="327" on="1"/>
      </contour>
      <contour>
        <pt x="381" y="517" on="1"/>
        <pt x="384" y="544" on="0"/>
        <pt x="377" y="593" on="0"/>
        <pt x="360" y="623" on="0"/>
        <pt x="351" y="632" on="1"/>
        <pt x="349" y="634" on="0"/>
        <pt x="346" y="635" on="1"/>
        <pt x="345" y="635" on="0"/>
        <pt x="346" y="636" on="1"/>
        <pt x="345" y="636" on="0"/>
        <pt x="344" y="637" on="1"/>
        <pt x="339" y="640" on="0"/>
        <pt x="320" y="652" on="0"/>
        <pt x="295" y="652" on="1"/>
        <pt x="285" y="652" on="0"/>
        <pt x="238" y="644" on="0"/>
        <pt x="193" y="626" on="1"/>
        <pt x="150" y="385" on="1"/>
        <pt x="253" y="385" on="1"/>
        <pt x="283" y="385" on="0"/>
        <pt x="327" y="406" on="0"/>
        <pt x="357" y="442" on="0"/>
        <pt x="376" y="490" on="0"/>
      </contour>
      <contour>
        <pt x="314" y="710" on="1"/>
        <pt x="350" y="710" on="0"/>
        <pt x="381" y="692" on="0"/>
        <pt x="385" y="689" on="1"/>
        <pt x="406" y="675" on="0"/>
        <pt x="437" y="626" on="0"/>
        <pt x="449" y="558" on="0"/>
        <pt x="442" y="521" on="1"/>
        <pt x="434" y="476" on="0"/>
        <pt x="397" y="390" on="0"/>
        <pt x="349" y="355" on="1"/>
        <pt x="373" y="337" on="0"/>
        <pt x="399" y="298" on="0"/>
        <pt x="410" y="258" on="0"/>
        <pt x="409" y="214" on="0"/>
        <pt x="405" y="190" on="1"/>
        <pt x="398" y="151" on="0"/>
        <pt x="366" y="82" on="0"/>
        <pt x="335" y="50" on="0"/>
        <pt x="329" y="44" on="1"/>
        <pt x="308" y="26" on="0"/>
        <pt x="251" y="0" on="0"/>
        <pt x="209" y="0" on="1"/>
        <pt x="27" y="0" on="1"/>
        <pt x="145" y="671" on="1"/>
        <pt x="185" y="686" on="0"/>
        <pt x="245" y="702" on="0"/>
        <pt x="258" y="704" on="1"/>
        <pt x="288" y="710" on="0"/>
      </contour>
    </TTGlyph>
    <TTGlyph name="C" xMin="48" yMin="-10" xMax="469" yMax="710">
      <contour>
        <pt x="103" y="188" on="1"/>
        <pt x="97" y="156" on="0"/>
        <pt x="109" y="104" on="0"/>
        <pt x="139" y="68" on="0"/>
        <pt x="184" y="47" on="0"/>
        <pt x="210" y="46" on="1"/>
        <pt x="218" y="46" on="0"/>
        <pt x="235" y="49" on="0"/>
        <pt x="264" y="59" on="0"/>
        <pt x="310" y="76" on="0"/>
        <pt x="347" y="90" on="1"/>
        <pt x="359" y="33" on="1"/>
        <pt x="273" y="4" on="1"/>
        <pt x="255" y="-2" on="0"/>
        <pt x="214" y="-10" on="0"/>
        <pt x="200" y="-10" on="1"/>
        <pt x="162" y="-10" on="0"/>
        <pt x="100" y="17" on="0"/>
        <pt x="58" y="67" on="0"/>
        <pt x="40" y="138" on="0"/>
        <pt x="48" y="183" on="1"/>
        <pt x="50" y="193" on="1"/>
        <pt x="105" y="506" on="1"/>
        <pt x="112" y="548" on="0"/>
        <pt x="154" y="621" on="0"/>
        <pt x="175" y="640" on="1"/>
        <pt x="197" y="660" on="0"/>
        <pt x="222" y="679" on="0"/>
        <pt x="235" y="686" on="1"/>
        <pt x="246" y="691" on="0"/>
        <pt x="290" y="710" on="0"/>
        <pt x="329" y="710" on="1"/>
        <pt x="343" y="710" on="0"/>
        <pt x="381" y="700" on="0"/>
        <pt x="396" y="695" on="1"/>
        <pt x="469" y="664" on="1"/>
        <pt x="441" y="612" on="1"/>
        <pt x="360" y="646" on="1"/>
        <pt x="351" y="650" on="0"/>
        <pt x="330" y="656" on="0"/>
        <pt x="320" y="656" on="1"/>
        <pt x="293" y="656" on="0"/>
        <pt x="240" y="631" on="0"/>
        <pt x="197" y="589" on="0"/>
        <pt x="166" y="535" on="0"/>
        <pt x="161" y="506" on="1"/>
      </contour>
    </TTGlyph>
    <TTGlyph name="Ccedilla" xMin="48" yMin="-222" xMax="469" yMax="710">
      <component glyphName="C" x="0" y="0" flags="0x1204"/>
      <component glyphName="cedilla" x="-10" y="0" flags="0x1004"/>
    </TTGlyph>
    <TTGlyph name="D" xMin="26" yMin="-10" xMax="448" yMax="710">
      <contour>
        <pt x="140" y="671" on="1"/>
        <pt x="204" y="696" on="0"/>
        <pt x="288" y="710" on="0"/>
        <pt x="302" y="710" on="1"/>
        <pt x="341" y="710" on="0"/>
        <pt x="402" y="677" on="0"/>
        <pt x="440" y="622" on="0"/>
        <pt x="455" y="548" on="0"/>
        <pt x="448" y="507" on="1"/>
        <pt x="391" y="185" on="1"/>
        <pt x="384" y="143" on="0"/>
        <pt x="339" y="72" on="0"/>
        <pt x="277" y="19" on="0"/>
        <pt x="202" y="-10" on="0"/>
        <pt x="164" y="-10" on="1"/>
        <pt x="156" y="-10" on="0"/>
        <pt x="135" y="-8" on="0"/>
        <pt x="102" y="-1" on="0"/>
        <pt x="57" y="14" on="0"/>
        <pt x="26" y="27" on="1"/>
      </contour>
      <contour>
        <pt x="388" y="507" on="1"/>
        <pt x="396" y="552" on="0"/>
        <pt x="367" y="619" on="0"/>
        <pt x="344" y="635" on="1"/>
        <pt x="316" y="652" on="0"/>
        <pt x="291" y="652" on="1"/>
        <pt x="268" y="652" on="0"/>
        <pt x="211" y="632" on="0"/>
        <pt x="187" y="623" on="1"/>
        <pt x="90" y="73" on="1"/>
        <pt x="111" y="63" on="0"/>
        <pt x="141" y="53" on="0"/>
        <pt x="162" y="49" on="0"/>
        <pt x="177" y="49" on="0"/>
        <pt x="182" y="49" on="1"/>
        <pt x="207" y="49" on="0"/>
        <pt x="257" y="73" on="0"/>
        <pt x="299" y="113" on="0"/>
        <pt x="330" y="165" on="0"/>
        <pt x="335" y="194" on="1"/>
      </contour>
    </TTGlyph>
    <TTGlyph name="E" xMin="28" yMin="1" xMax="433" yMax="700">
      <contour>
        <pt x="433" y="700" on="1"/>
        <pt x="423" y="643" on="1"/>
        <pt x="198" y="643" on="1"/>
        <pt x="152" y="381" on="1"/>
        <pt x="328" y="381" on="1"/>
        <pt x="317" y="323" on="1"/>
        <pt x="141" y="323" on="1"/>
        <pt x="95" y="59" on="1"/>
        <pt x="322" y="59" on="1"/>
        <pt x="312" y="1" on="1"/>
        <pt x="28" y="1" on="1"/>
        <pt x="151" y="700" on="1"/>
      </contour>
    </TTGlyph>
    <TTGlyph name="Eacute" xMin="28" yMin="1" xMax="449" yMax="931">
      <component glyphName="E" x="0" y="0" flags="0x1204"/>
      <component glyphName="acute" x="-43" y="194" flags="0x1004"/>
    </TTGlyph>
    <TTGlyph name="Ecircumflex" xMin="28" yMin="1" xMax="433" yMax="951">
      <component glyphName="E" x="0" y="0" flags="0x1204"/>
      <component glyphName="circumflex" x="-17" y="200" flags="0x1004"/>
    </TTGlyph>
    <TTGlyph name="Edieresis" xMin="28" yMin="1" xMax="448" yMax="877">
      <component glyphName="E" x="0" y="0" flags="0x1204"/>
      <component glyphName="dieresis" x="-31" y="200" flags="0x1004"/>
    </TTGlyph>
    <TTGlyph name="Egrave" xMin="28" yMin="1" xMax="433" yMax="936">
      <component glyphName="E" x="0" y="0" flags="0x1204"/>
      <component glyphName="grave" x="-33" y="200" flags="0x1004"/>
    </TTGlyph>
    <TTGlyph name="Euro" xMin="35" yMin="0" xMax="453" yMax="664">
      <contour>
        <pt x="389" y="163" on="1"/>
        <pt x="385" y="137" on="1"/>
        <pt x="380" y="108" on="0"/>
        <pt x="350" y="58" on="0"/>
        <pt x="308" y="21" on="0"/>
        <pt x="256" y="0" on="0"/>
        <pt x="228" y="0" on="1"/>
        <pt x="195" y="0" on="1"/>
        <pt x="167" y="0" on="0"/>
        <pt x="123" y="21" on="0"/>
        <pt x="93" y="58" on="0"/>
        <pt x="82" y="108" on="0"/>
        <pt x="87" y="137" on="1"/>
        <pt x="107" y="250" on="1"/>
        <pt x="35" y="250" on="1"/>
        <pt x="42" y="294" on="1"/>
        <pt x="114" y="294" on="1"/>
        <pt x="128" y="370" on="1"/>
        <pt x="56" y="370" on="1"/>
        <pt x="63" y="414" on="1"/>
        <pt x="135" y="414" on="1"/>
        <pt x="155" y="527" on="1"/>
        <pt x="160" y="556" on="0"/>
        <pt x="190" y="606" on="0"/>
        <pt x="233" y="643" on="0"/>
        <pt x="285" y="664" on="0"/>
        <pt x="313" y="664" on="1"/>
        <pt x="346" y="664" on="1"/>
        <pt x="373" y="664" on="0"/>
        <pt x="418" y="643" on="0"/>
        <pt x="447" y="606" on="0"/>
        <pt x="458" y="556" on="0"/>
        <pt x="453" y="527" on="1"/>
        <pt x="449" y="504" on="1"/>
        <pt x="398" y="504" on="1"/>
        <pt x="402" y="527" on="1"/>
        <pt x="409" y="567" on="0"/>
        <pt x="361" y="610" on="0"/>
        <pt x="324" y="610" on="1"/>
        <pt x="303" y="610" on="0"/>
        <pt x="265" y="602" on="0"/>
        <pt x="233" y="582" on="0"/>
        <pt x="210" y="551" on="0"/>
        <pt x="206" y="527" on="1"/>
        <pt x="186" y="414" on="1"/>
        <pt x="339" y="414" on="1"/>
        <pt x="332" y="370" on="1"/>
        <pt x="179" y="370" on="1"/>
        <pt x="165" y="294" on="1"/>
        <pt x="318" y="294" on="1"/>
        <pt x="311" y="250" on="1"/>
        <pt x="158" y="250" on="1"/>
        <pt x="138" y="140" on="1"/>
        <pt x="132" y="104" on="0"/>
        <pt x="170" y="53" on="0"/>
        <pt x="205" y="53" on="1"/>
        <pt x="237" y="53" on="1"/>
        <pt x="254" y="53" on="0"/>
        <pt x="286" y="67" on="0"/>
        <pt x="313" y="90" on="0"/>
        <pt x="331" y="122" on="0"/>
        <pt x="334" y="140" on="1"/>
        <pt x="338" y="163" on="1"/>
      </contour>
    </TTGlyph>
    <TTGlyph name="F" xMin="28" yMin="0" xMax="433" yMax="700">
      <contour>
        <pt x="433" y="700" on="1"/>
        <pt x="423" y="643" on="1"/>
        <pt x="198" y="643" on="1"/>
        <pt x="152" y="380" on="1"/>
        <pt x="328" y="380" on="1"/>
        <pt x="317" y="323" on="1"/>
        <pt x="141" y="323" on="1"/>
        <pt x="85" y="0" on="1"/>
        <pt x="28" y="0" on="1"/>
        <pt x="151" y="700" on="1"/>
      </contour>
    </TTGlyph>
    <TTGlyph name="G" xMin="49" yMin="-10" xMax="452" yMax="710">
      <contour>
        <pt x="162" y="509" on="1"/>
        <pt x="104" y="177" on="1"/>
        <pt x="99" y="149" on="0"/>
        <pt x="111" y="101" on="0"/>
        <pt x="141" y="65" on="0"/>
        <pt x="184" y="44" on="0"/>
        <pt x="209" y="44" on="1"/>
        <pt x="219" y="44" on="0"/>
        <pt x="258" y="52" on="0"/>
        <pt x="299" y="72" on="1"/>
        <pt x="333" y="261" on="1"/>
        <pt x="389" y="261" on="1"/>
        <pt x="349" y="36" on="1"/>
        <pt x="287" y="6" on="0"/>
        <pt x="211" y="-10" on="0"/>
        <pt x="197" y="-10" on="1"/>
        <pt x="157" y="-10" on="0"/>
        <pt x="95" y="22" on="0"/>
        <pt x="56" y="77" on="0"/>
        <pt x="42" y="150" on="0"/>
        <pt x="49" y="191" on="1"/>
        <pt x="105" y="509" on="1"/>
        <pt x="126" y="603" on="0"/>
        <pt x="245" y="710" on="0"/>
        <pt x="326" y="710" on="1"/>
        <pt x="340" y="709" on="0"/>
        <pt x="378" y="701" on="0"/>
        <pt x="393" y="695" on="1"/>
        <pt x="452" y="671" on="1"/>
        <pt x="422" y="614" on="1"/>
        <pt x="357" y="641" on="1"/>
        <pt x="333" y="651" on="0"/>
        <pt x="315" y="651" on="1"/>
        <pt x="289" y="651" on="0"/>
        <pt x="238" y="628" on="0"/>
        <pt x="196" y="589" on="0"/>
        <pt x="167" y="537" on="0"/>
      </contour>
    </TTGlyph>
    <TTGlyph name="H" xMin="28" yMin="1" xMax="508" yMax="700">
      <contour>
        <pt x="151" y="700" on="1"/>
        <pt x="207" y="700" on="1"/>
        <pt x="151" y="383" on="1"/>
        <pt x="395" y="383" on="1"/>
        <pt x="451" y="700" on="1"/>
        <pt x="508" y="700" on="1"/>
        <pt x="385" y="1" on="1"/>
        <pt x="328" y="1" on="1"/>
        <pt x="385" y="324" on="1"/>
        <pt x="141" y="324" on="1"/>
        <pt x="84" y="1" on="1"/>
        <pt x="28" y="1" on="1"/>
        <pt x="151" y="700" on="1"/>
      </contour>
    </TTGlyph>
    <TTGlyph name="I" xMin="28" yMin="0" xMax="203" yMax="700">
      <contour>
        <pt x="151" y="700" on="1"/>
        <pt x="203" y="700" on="1"/>
        <pt x="80" y="0" on="1"/>
        <pt x="28" y="0" on="1"/>
      </contour>
    </TTGlyph>
    <TTGlyph name="Iacute" xMin="28" yMin="0" xMax="361" yMax="937">
      <component glyphName="I" x="0" y="0" flags="0x1204"/>
      <component glyphName="acute" x="-131" y="200" flags="0x1004"/>
    </TTGlyph>
    <TTGlyph name="Icircumflex" xMin="28" yMin="0" xMax="329" yMax="951">
      <component glyphName="I" x="0" y="0" flags="0x1204"/>
      <component glyphName="circumflex" x="-106" y="200" flags="0x1004"/>
    </TTGlyph>
    <TTGlyph name="Idieresis" xMin="28" yMin="0" xMax="338" yMax="877">
      <component glyphName="I" x="0" y="0" flags="0x1204"/>
      <component glyphName="dieresis" x="-141" y="200" flags="0x1004"/>
    </TTGlyph>
    <TTGlyph name="Igrave" xMin="28" yMin="0" xMax="219" yMax="936">
      <component glyphName="I" x="0" y="0" flags="0x1204"/>
      <component glyphName="grave" x="-142" y="200" flags="0x1004"/>
    </TTGlyph>
    <TTGlyph name="J" xMin="-35" yMin="-10" xMax="301" yMax="700">
      <contour>
        <pt x="201" y="136" on="1"/>
        <pt x="194" y="94" on="0"/>
        <pt x="175" y="38" on="0"/>
        <pt x="143" y="4" on="0"/>
        <pt x="94" y="-10" on="0"/>
        <pt x="57" y="-10" on="1"/>
        <pt x="53" y="-10" on="0"/>
        <pt x="28" y="-9" on="0"/>
        <pt x="-2" y="-6" on="0"/>
        <pt x="-28" y="-3" on="0"/>
        <pt x="-35" y="-1" on="1"/>
        <pt x="-13" y="58" on="1"/>
        <pt x="-9" y="57" on="0"/>
        <pt x="15" y="54" on="0"/>
        <pt x="41" y="52" on="0"/>
        <pt x="62" y="50" on="0"/>
        <pt x="64" y="50" on="1"/>
        <pt x="77" y="50" on="0"/>
        <pt x="102" y="55" on="0"/>
        <pt x="123" y="72" on="0"/>
        <pt x="140" y="103" on="0"/>
        <pt x="144" y="129" on="1"/>
        <pt x="245" y="700" on="1"/>
        <pt x="301" y="700" on="1"/>
        <pt x="201" y="136" on="1"/>
      </contour>
    </TTGlyph>
    <TTGlyph name="K" xMin="28" yMin="0" xMax="440" yMax="700">
      <contour>
        <pt x="253" y="0" on="1"/>
        <pt x="168" y="319" on="1"/>
        <pt x="140" y="319" on="1"/>
        <pt x="84" y="0" on="1"/>
        <pt x="28" y="0" on="1"/>
        <pt x="151" y="700" on="1"/>
        <pt x="207" y="700" on="1"/>
        <pt x="150" y="379" on="1"/>
        <pt x="177" y="379" on="1"/>
        <pt x="378" y="698" on="1"/>
        <pt x="440" y="698" on="1"/>
        <pt x="225" y="348" on="1"/>
        <pt x="315" y="0" on="1"/>
      </contour>
    </TTGlyph>
    <TTGlyph name="L" xMin="28" yMin="0" xMax="316" yMax="700">
      <contour>
        <pt x="151" y="700" on="1"/>
        <pt x="208" y="700" on="1"/>
        <pt x="94" y="56" on="1"/>
        <pt x="316" y="56" on="1"/>
        <pt x="307" y="0" on="1"/>
        <pt x="28" y="0" on="1"/>
      </contour>
    </TTGlyph>
    <TTGlyph name="Lslash" xMin="-1" yMin="1" xMax="353" yMax="700">
      <contour>
        <pt x="320" y="57" on="1"/>
        <pt x="310" y="1" on="1"/>
        <pt x="31" y="1" on="1"/>
        <pt x="68" y="210" on="1"/>
        <pt x="-1" y="210" on="1"/>
        <pt x="8" y="264" on="1"/>
        <pt x="77" y="264" on="1"/>
        <pt x="154" y="700" on="1"/>
        <pt x="211" y="700" on="1"/>
        <pt x="134" y="264" on="1"/>
        <pt x="353" y="264" on="1"/>
        <pt x="344" y="210" on="1"/>
        <pt x="125" y="210" on="1"/>
        <pt x="98" y="57" on="1"/>
        <pt x="320" y="57" on="1"/>
      </contour>
    </TTGlyph>
    <TTGlyph name="M" xMin="28" yMin="0" xMax="603" yMax="700">
      <contour>
        <pt x="307" y="265" on="1"/>
        <pt x="516" y="700" on="1"/>
        <pt x="603" y="700" on="1"/>
        <pt x="480" y="0" on="1"/>
        <pt x="426" y="0" on="1"/>
        <pt x="528" y="582" on="1"/>
        <pt x="515" y="582" on="1"/>
        <pt x="332" y="206" on="1"/>
        <pt x="245" y="206" on="1"/>
        <pt x="195" y="582" on="1"/>
        <pt x="183" y="582" on="1"/>
        <pt x="81" y="0" on="1"/>
        <pt x="28" y="0" on="1"/>
        <pt x="151" y="700" on="1"/>
        <pt x="238" y="700" on="1"/>
        <pt x="291" y="265" on="1"/>
      </contour>
    </TTGlyph>
    <TTGlyph name="N" xMin="28" yMin="0" xMax="549" yMax="700">
      <contour>
        <pt x="549" y="700" on="1"/>
        <pt x="426" y="0" on="1"/>
        <pt x="329" y="0" on="1"/>
        <pt x="193" y="582" on="1"/>
        <pt x="181" y="582" on="1"/>
        <pt x="79" y="0" on="1"/>
        <pt x="28" y="0" on="1"/>
        <pt x="151" y="700" on="1"/>
        <pt x="223" y="700" on="1"/>
        <pt x="373" y="69" on="1"/>
        <pt x="386" y="69" on="1"/>
        <pt x="497" y="700" on="1"/>
      </contour>
    </TTGlyph>
    <TTGlyph name="Ntilde" xMin="28" yMin="0" xMax="549" yMax="855">
      <component glyphName="N" x="0" y="0" flags="0x1204"/>
      <component glyphName="tilde" x="13" y="200" flags="0x1004"/>
    </TTGlyph>
    <TTGlyph name="O" xMin="46" yMin="-9" xMax="494" yMax="709">
      <contour>
        <pt x="376" y="172" on="1"/>
        <pt x="438" y="523" on="1"/>
        <pt x="445" y="563" on="0"/>
        <pt x="422" y="612" on="0"/>
        <pt x="384" y="639" on="0"/>
        <pt x="339" y="648" on="0"/>
        <pt x="323" y="648" on="1"/>
        <pt x="307" y="648" on="0"/>
        <pt x="258" y="638" on="0"/>
        <pt x="209" y="611" on="0"/>
        <pt x="170" y="562" on="0"/>
        <pt x="163" y="522" on="1"/>
        <pt x="101" y="171" on="1"/>
        <pt x="94" y="131" on="0"/>
        <pt x="116" y="84" on="0"/>
        <pt x="156" y="59" on="0"/>
        <pt x="202" y="52" on="0"/>
        <pt x="218" y="52" on="1"/>
        <pt x="234" y="52" on="0"/>
        <pt x="282" y="60" on="0"/>
        <pt x="329" y="85" on="0"/>
        <pt x="369" y="132" on="0"/>
      </contour>
      <contour>
        <pt x="431" y="172" on="1"/>
        <pt x="427" y="150" on="0"/>
        <pt x="399" y="88" on="0"/>
        <pt x="345" y="31" on="0"/>
        <pt x="263" y="-9" on="0"/>
        <pt x="206" y="-9" on="1"/>
        <pt x="150" y="-9" on="0"/>
        <pt x="83" y="31" on="0"/>
        <pt x="50" y="88" on="0"/>
        <pt x="43" y="150" on="0"/>
        <pt x="47" y="172" on="1"/>
        <pt x="109" y="522" on="1"/>
        <pt x="112" y="544" on="0"/>
        <pt x="141" y="608" on="0"/>
        <pt x="195" y="667" on="0"/>
        <pt x="277" y="709" on="0"/>
        <pt x="334" y="709" on="1"/>
        <pt x="390" y="709" on="0"/>
        <pt x="456" y="667" on="0"/>
        <pt x="490" y="609" on="0"/>
        <pt x="497" y="545" on="0"/>
        <pt x="493" y="523" on="1"/>
      </contour>
    </TTGlyph>
    <TTGlyph name="OE" xMin="48" yMin="1" xMax="752" yMax="719">
      <contour>
        <pt x="442" y="551" on="1"/>
        <pt x="444" y="585" on="0"/>
        <pt x="419" y="627" on="0"/>
        <pt x="382" y="650" on="0"/>
        <pt x="340" y="658" on="0"/>
        <pt x="325" y="658" on="1"/>
        <pt x="309" y="658" on="0"/>
        <pt x="260" y="648" on="0"/>
        <pt x="211" y="621" on="0"/>
        <pt x="171" y="572" on="0"/>
        <pt x="164" y="532" on="1"/>
        <pt x="102" y="181" on="1"/>
        <pt x="95" y="141" on="0"/>
        <pt x="118" y="94" on="0"/>
        <pt x="157" y="69" on="0"/>
        <pt x="203" y="62" on="0"/>
        <pt x="219" y="62" on="1"/>
        <pt x="234" y="62" on="0"/>
        <pt x="279" y="69" on="0"/>
        <pt x="324" y="90" on="0"/>
        <pt x="364" y="130" on="0"/>
        <pt x="373" y="164" on="1"/>
      </contour>
      <contour>
        <pt x="353" y="50" on="1"/>
        <pt x="327" y="29" on="0"/>
        <pt x="256" y="1" on="0"/>
        <pt x="208" y="1" on="1"/>
        <pt x="152" y="1" on="0"/>
        <pt x="85" y="41" on="0"/>
        <pt x="52" y="98" on="0"/>
        <pt x="45" y="160" on="0"/>
        <pt x="49" y="182" on="1"/>
        <pt x="110" y="532" on="1"/>
        <pt x="114" y="554" on="0"/>
        <pt x="143" y="618" on="0"/>
        <pt x="197" y="677" on="0"/>
        <pt x="278" y="719" on="0"/>
        <pt x="335" y="719" on="1"/>
        <pt x="382" y="719" on="0"/>
        <pt x="443" y="689" on="0"/>
        <pt x="462" y="666" on="1"/>
        <pt x="470" y="710" on="1"/>
        <pt x="752" y="710" on="1"/>
        <pt x="742" y="653" on="1"/>
        <pt x="517" y="653" on="1"/>
        <pt x="470" y="391" on="1"/>
        <pt x="646" y="391" on="1"/>
        <pt x="636" y="333" on="1"/>
        <pt x="460" y="333" on="1"/>
        <pt x="414" y="69" on="1"/>
        <pt x="641" y="69" on="1"/>
        <pt x="630" y="11" on="1"/>
        <pt x="346" y="11" on="1"/>
      </contour>
    </TTGlyph>
    <TTGlyph name="Oacute" xMin="46" yMin="-9" xMax="511" yMax="937">
      <component glyphName="O" x="0" y="0" flags="0x1204"/>
      <component glyphName="acute" x="19" y="200" flags="0x1004"/>
    </TTGlyph>
    <TTGlyph name="Ocircumflex" xMin="46" yMin="-9" xMax="494" yMax="951">
      <component glyphName="O" x="0" y="0" flags="0x1204"/>
      <component glyphName="circumflex" x="46" y="200" flags="0x1004"/>
    </TTGlyph>
    <TTGlyph name="Odieresis" xMin="46" yMin="-9" xMax="494" yMax="877">
      <component glyphName="O" x="0" y="0" flags="0x1204"/>
      <component glyphName="dieresis" x="15" y="200" flags="0x1004"/>
    </TTGlyph>
    <TTGlyph name="Ograve" xMin="46" yMin="-9" xMax="494" yMax="936">
      <component glyphName="O" x="0" y="0" flags="0x1204"/>
      <component glyphName="grave" x="17" y="200" flags="0x1004"/>
    </TTGlyph>
    <TTGlyph name="Oslash" xMin="46" yMin="-66" xMax="494" yMax="766">
      <contour>
        <pt x="376" y="172" on="1"/>
        <pt x="438" y="523" on="1"/>
        <pt x="445" y="563" on="0"/>
        <pt x="423" y="612" on="0"/>
        <pt x="384" y="639" on="0"/>
        <pt x="339" y="648" on="0"/>
        <pt x="323" y="648" on="1"/>
        <pt x="307" y="648" on="0"/>
        <pt x="258" y="638" on="0"/>
        <pt x="209" y="611" on="0"/>
        <pt x="170" y="562" on="0"/>
        <pt x="163" y="522" on="1"/>
        <pt x="101" y="171" on="1"/>
        <pt x="94" y="131" on="0"/>
        <pt x="117" y="84" on="0"/>
        <pt x="156" y="59" on="0"/>
        <pt x="202" y="52" on="0"/>
        <pt x="218" y="52" on="1"/>
        <pt x="234" y="52" on="0"/>
        <pt x="282" y="60" on="0"/>
        <pt x="330" y="85" on="0"/>
        <pt x="369" y="132" on="0"/>
      </contour>
      <contour>
        <pt x="431" y="172" on="1"/>
        <pt x="427" y="150" on="0"/>
        <pt x="399" y="88" on="0"/>
        <pt x="345" y="31" on="0"/>
        <pt x="263" y="-9" on="0"/>
        <pt x="206" y="-9" on="1"/>
        <pt x="150" y="-9" on="0"/>
        <pt x="83" y="31" on="0"/>
        <pt x="50" y="88" on="0"/>
        <pt x="43" y="150" on="0"/>
        <pt x="47" y="172" on="1"/>
        <pt x="109" y="522" on="1"/>
        <pt x="113" y="544" on="0"/>
        <pt x="141" y="608" on="0"/>
        <pt x="195" y="667" on="0"/>
        <pt x="277" y="709" on="0"/>
        <pt x="334" y="709" on="1"/>
        <pt x="390" y="709" on="0"/>
        <pt x="456" y="667" on="0"/>
        <pt x="490" y="609" on="0"/>
        <pt x="497" y="545" on="0"/>
        <pt x="493" y="523" on="1"/>
      </contour>
      <contour>
        <pt x="375" y="766" on="1"/>
        <pt x="435" y="766" on="1"/>
        <pt x="166" y="-66" on="1"/>
        <pt x="106" y="-66" on="1"/>
      </contour>
    </TTGlyph>
    <TTGlyph name="Otilde" xMin="46" yMin="-9" xMax="500" yMax="855">
      <component glyphName="O" x="0" y="0" flags="0x1204"/>
      <component glyphName="tilde" x="-3" y="200" flags="0x1004"/>
    </TTGlyph>
    <TTGlyph name="P" xMin="27" yMin="0" xMax="497" yMax="710">
      <contour>
        <pt x="306" y="652" on="1"/>
        <pt x="288" y="652" on="0"/>
        <pt x="248" y="643" on="0"/>
        <pt x="231" y="638" on="1"/>
        <pt x="211" y="632" on="0"/>
        <pt x="191" y="625" on="1"/>
        <pt x="141" y="344" on="1"/>
        <pt x="252" y="344" on="1"/>
        <pt x="324" y="344" on="0"/>
        <pt x="426" y="424" on="0"/>
        <pt x="440" y="503" on="1"/>
        <pt x="454" y="581" on="0"/>
        <pt x="377" y="652" on="0"/>
      </contour>
      <contour>
        <pt x="325" y="710" on="1"/>
        <pt x="366" y="710" on="0"/>
        <pt x="436" y="681" on="0"/>
        <pt x="484" y="627" on="0"/>
        <pt x="505" y="550" on="0"/>
        <pt x="497" y="503" on="1"/>
        <pt x="489" y="455" on="0"/>
        <pt x="443" y="375" on="0"/>
        <pt x="377" y="318" on="0"/>
        <pt x="294" y="286" on="0"/>
        <pt x="249" y="286" on="1"/>
        <pt x="130" y="286" on="1"/>
        <pt x="80" y="0" on="1"/>
        <pt x="27" y="0" on="1"/>
        <pt x="145" y="671" on="1"/>
        <pt x="172" y="681" on="0"/>
        <pt x="203" y="690" on="1"/>
        <pt x="229" y="698" on="0"/>
        <pt x="293" y="710" on="0"/>
      </contour>
    </TTGlyph>
    <TTGlyph name="Q" xMin="46" yMin="-101" xMax="493" yMax="709">
      <contour>
        <pt x="435" y="521" on="1"/>
        <pt x="442" y="561" on="0"/>
        <pt x="421" y="611" on="0"/>
        <pt x="383" y="640" on="0"/>
        <pt x="339" y="651" on="0"/>
        <pt x="323" y="651" on="1"/>
        <pt x="307" y="651" on="0"/>
        <pt x="259" y="640" on="0"/>
        <pt x="211" y="612" on="0"/>
        <pt x="172" y="562" on="0"/>
        <pt x="165" y="522" on="1"/>
        <pt x="103" y="171" on="1"/>
        <pt x="96" y="131" on="0"/>
        <pt x="118" y="84" on="0"/>
        <pt x="157" y="59" on="0"/>
        <pt x="202" y="52" on="0"/>
        <pt x="218" y="52" on="1"/>
        <pt x="234" y="52" on="0"/>
        <pt x="281" y="59" on="0"/>
        <pt x="328" y="84" on="0"/>
        <pt x="367" y="131" on="0"/>
        <pt x="374" y="171" on="1"/>
      </contour>
      <contour>
        <pt x="431" y="171" on="1"/>
        <pt x="427" y="151" on="0"/>
        <pt x="404" y="97" on="0"/>
        <pt x="361" y="45" on="0"/>
        <pt x="298" y="3" on="0"/>
        <pt x="254" y="-5" on="1"/>
        <pt x="259" y="-29" on="0"/>
        <pt x="281" y="-40" on="1"/>
        <pt x="254" y="-101" on="1"/>
        <pt x="227" y="-89" on="0"/>
        <pt x="193" y="-44" on="0"/>
        <pt x="190" y="-9" on="1"/>
        <pt x="139" y="-6" on="0"/>
        <pt x="80" y="35" on="0"/>
        <pt x="49" y="91" on="0"/>
        <pt x="43" y="151" on="0"/>
        <pt x="47" y="172" on="1"/>
        <pt x="108" y="521" on="1"/>
        <pt x="112" y="543" on="0"/>
        <pt x="141" y="607" on="0"/>
        <pt x="195" y="667" on="0"/>
        <pt x="277" y="709" on="0"/>
        <pt x="334" y="709" on="1"/>
        <pt x="390" y="709" on="0"/>
        <pt x="456" y="667" on="0"/>
        <pt x="490" y="607" on="0"/>
        <pt x="496" y="543" on="0"/>
        <pt x="492" y="521" on="1"/>
      </contour>
    </TTGlyph>
    <TTGlyph name="R" xMin="27" yMin="0" xMax="498" yMax="710">
      <contour>
        <pt x="306" y="652" on="1"/>
        <pt x="288" y="652" on="0"/>
        <pt x="248" y="644" on="0"/>
        <pt x="231" y="639" on="1"/>
        <pt x="211" y="633" on="0"/>
        <pt x="191" y="626" on="1"/>
        <pt x="141" y="345" on="1"/>
        <pt x="252" y="345" on="1"/>
        <pt x="324" y="345" on="0"/>
        <pt x="427" y="431" on="0"/>
        <pt x="441" y="510" on="1"/>
        <pt x="448" y="549" on="0"/>
        <pt x="434" y="603" on="0"/>
        <pt x="398" y="637" on="0"/>
        <pt x="341" y="652" on="0"/>
      </contour>
      <contour>
        <pt x="347" y="305" on="1"/>
        <pt x="418" y="0" on="1"/>
        <pt x="362" y="0" on="1"/>
        <pt x="289" y="290" on="1"/>
        <pt x="269" y="287" on="0"/>
        <pt x="249" y="287" on="1"/>
        <pt x="130" y="287" on="1"/>
        <pt x="80" y="0" on="1"/>
        <pt x="27" y="0" on="1"/>
        <pt x="145" y="671" on="1"/>
        <pt x="173" y="681" on="0"/>
        <pt x="204" y="690" on="1"/>
        <pt x="230" y="698" on="0"/>
        <pt x="294" y="710" on="0"/>
        <pt x="325" y="710" on="1"/>
        <pt x="366" y="710" on="0"/>
        <pt x="437" y="683" on="0"/>
        <pt x="486" y="632" on="0"/>
        <pt x="507" y="558" on="0"/>
        <pt x="498" y="510" on="1"/>
        <pt x="492" y="476" on="0"/>
        <pt x="464" y="411" on="0"/>
        <pt x="425" y="357" on="0"/>
        <pt x="375" y="316" on="0"/>
      </contour>
    </TTGlyph>
    <TTGlyph name="S" xMin="3" yMin="1" xMax="455" yMax="710">
      <contour>
        <pt x="425" y="205" on="1"/>
        <pt x="417" y="163" on="0"/>
        <pt x="375" y="89" on="0"/>
        <pt x="314" y="34" on="0"/>
        <pt x="239" y="1" on="0"/>
        <pt x="199" y="1" on="1"/>
        <pt x="160" y="1" on="0"/>
        <pt x="89" y="21" on="0"/>
        <pt x="62" y="33" on="1"/>
        <pt x="30" y="47" on="0"/>
        <pt x="3" y="66" on="1"/>
        <pt x="33" y="121" on="1"/>
        <pt x="63" y="103" on="0"/>
        <pt x="94" y="90" on="1"/>
        <pt x="120" y="79" on="0"/>
        <pt x="182" y="60" on="0"/>
        <pt x="208" y="60" on="1"/>
        <pt x="236" y="60" on="0"/>
        <pt x="289" y="82" on="0"/>
        <pt x="331" y="121" on="0"/>
        <pt x="361" y="173" on="0"/>
        <pt x="366" y="203" on="1"/>
        <pt x="372" y="234" on="0"/>
        <pt x="351" y="275" on="0"/>
        <pt x="313" y="302" on="0"/>
        <pt x="263" y="317" on="0"/>
        <pt x="239" y="321" on="1"/>
        <pt x="203" y="327" on="0"/>
        <pt x="143" y="357" on="0"/>
        <pt x="103" y="405" on="0"/>
        <pt x="86" y="469" on="0"/>
        <pt x="93" y="509" on="1"/>
        <pt x="100" y="550" on="0"/>
        <pt x="143" y="623" on="0"/>
        <pt x="203" y="678" on="0"/>
        <pt x="277" y="710" on="0"/>
        <pt x="315" y="710" on="1"/>
        <pt x="339" y="710" on="0"/>
        <pt x="389" y="699" on="0"/>
        <pt x="409" y="693" on="1"/>
        <pt x="433" y="685" on="0"/>
        <pt x="455" y="676" on="1"/>
        <pt x="426" y="620" on="1"/>
        <pt x="405" y="629" on="0"/>
        <pt x="384" y="636" on="1"/>
        <pt x="366" y="642" on="0"/>
        <pt x="322" y="652" on="0"/>
        <pt x="302" y="652" on="1"/>
        <pt x="275" y="652" on="0"/>
        <pt x="224" y="629" on="0"/>
        <pt x="183" y="590" on="0"/>
        <pt x="155" y="539" on="0"/>
        <pt x="150" y="512" on="1"/>
        <pt x="144" y="481" on="0"/>
        <pt x="161" y="434" on="0"/>
        <pt x="195" y="402" on="0"/>
        <pt x="239" y="383" on="0"/>
        <pt x="260" y="379" on="1"/>
        <pt x="300" y="372" on="0"/>
        <pt x="367" y="346" on="0"/>
        <pt x="412" y="305" on="0"/>
        <pt x="432" y="245" on="0"/>
      </contour>
    </TTGlyph>
    <TTGlyph name="Scaron" xMin="3" yMin="1" xMax="490" yMax="950">
      <component glyphName="S" x="0" y="0" flags="0x1204"/>
      <component glyphName="caron" x="32" y="200" flags="0x1004"/>
    </TTGlyph>
    <TTGlyph name="T" xMin="81" yMin="0" xMax="471" yMax="700">
      <contour>
        <pt x="471" y="700" on="1"/>
        <pt x="461" y="646" on="1"/>
        <pt x="301" y="646" on="1"/>
        <pt x="188" y="0" on="1"/>
        <pt x="134" y="0" on="1"/>
        <pt x="247" y="646" on="1"/>
        <pt x="81" y="646" on="1"/>
        <pt x="91" y="700" on="1"/>
        <pt x="471" y="700" on="1"/>
      </contour>
    </TTGlyph>
    <TTGlyph name="Thorn" xMin="-16" yMin="-249" xMax="392" yMax="700">
      <contour>
        <pt x="92" y="71" on="1"/>
        <pt x="141" y="42" on="0"/>
        <pt x="202" y="42" on="1"/>
        <pt x="219" y="42" on="0"/>
        <pt x="251" y="56" on="0"/>
        <pt x="278" y="80" on="0"/>
        <pt x="296" y="111" on="0"/>
        <pt x="299" y="129" on="1"/>
        <pt x="342" y="372" on="1"/>
        <pt x="345" y="390" on="0"/>
        <pt x="338" y="422" on="0"/>
        <pt x="319" y="445" on="0"/>
        <pt x="291" y="459" on="0"/>
        <pt x="274" y="459" on="1"/>
        <pt x="250" y="459" on="0"/>
        <pt x="180" y="442" on="0"/>
        <pt x="154" y="424" on="1"/>
      </contour>
      <contour>
        <pt x="163" y="482" on="1"/>
        <pt x="207" y="503" on="0"/>
        <pt x="266" y="510" on="0"/>
        <pt x="283" y="510" on="1"/>
        <pt x="311" y="510" on="0"/>
        <pt x="355" y="488" on="0"/>
        <pt x="385" y="449" on="0"/>
        <pt x="397" y="398" on="0"/>
        <pt x="392" y="369" on="1"/>
        <pt x="350" y="133" on="1"/>
        <pt x="345" y="104" on="0"/>
        <pt x="315" y="53" on="0"/>
        <pt x="272" y="15" on="0"/>
        <pt x="220" y="-7" on="0"/>
        <pt x="192" y="-7" on="1"/>
        <pt x="171" y="-7" on="0"/>
        <pt x="110" y="3" on="0"/>
        <pt x="81" y="19" on="1"/>
        <pt x="34" y="-249" on="1"/>
        <pt x="-16" y="-249" on="1"/>
        <pt x="151" y="700" on="1"/>
        <pt x="152" y="700" on="1"/>
        <pt x="201" y="700" on="1"/>
        <pt x="202" y="700" on="1"/>
      </contour>
    </TTGlyph>
    <TTGlyph name="U" xMin="54" yMin="-7" xMax="529" yMax="701">
      <contour>
        <pt x="223" y="43" on="1"/>
        <pt x="241" y="43" on="0"/>
        <pt x="291" y="54" on="0"/>
        <pt x="339" y="83" on="0"/>
        <pt x="377" y="133" on="0"/>
        <pt x="384" y="173" on="1"/>
        <pt x="477" y="701" on="1"/>
        <pt x="529" y="701" on="1"/>
        <pt x="436" y="173" on="1"/>
        <pt x="431" y="144" on="0"/>
        <pt x="402" y="81" on="0"/>
        <pt x="349" y="28" on="0"/>
        <pt x="269" y="-7" on="0"/>
        <pt x="214" y="-7" on="1"/>
        <pt x="159" y="-7" on="0"/>
        <pt x="92" y="28" on="0"/>
        <pt x="57" y="81" on="0"/>
        <pt x="51" y="144" on="0"/>
        <pt x="56" y="173" on="1"/>
        <pt x="149" y="701" on="1"/>
        <pt x="201" y="701" on="1"/>
        <pt x="108" y="173" on="1"/>
        <pt x="101" y="133" on="0"/>
        <pt x="120" y="83" on="0"/>
        <pt x="156" y="54" on="0"/>
        <pt x="202" y="43" on="0"/>
      </contour>
    </TTGlyph>
    <TTGlyph name="Uacute" xMin="54" yMin="-7" xMax="529" yMax="937">
      <component glyphName="U" x="0" y="0" flags="0x1204"/>
      <component glyphName="acute" x="15" y="200" flags="0x1004"/>
    </TTGlyph>
    <TTGlyph name="Ucircumflex" xMin="54" yMin="-7" xMax="529" yMax="951">
      <component glyphName="U" x="0" y="0" flags="0x1204"/>
      <component glyphName="circumflex" x="53" y="200" flags="0x1004"/>
    </TTGlyph>
    <TTGlyph name="Udieresis" xMin="54" yMin="-7" xMax="529" yMax="877">
      <component glyphName="U" x="0" y="0" flags="0x1204"/>
      <component glyphName="dieresis" x="17" y="200" flags="0x1004"/>
    </TTGlyph>
    <TTGlyph name="Ugrave" xMin="54" yMin="-7" xMax="529" yMax="936">
      <component glyphName="U" x="0" y="0" flags="0x1204"/>
      <component glyphName="grave" x="25" y="200" flags="0x1004"/>
    </TTGlyph>
    <TTGlyph name="V" xMin="98" yMin="0" xMax="502" yMax="700">
      <contour>
        <pt x="446" y="700" on="1"/>
        <pt x="502" y="700" on="1"/>
        <pt x="217" y="0" on="1"/>
        <pt x="132" y="0" on="1"/>
        <pt x="98" y="700" on="1"/>
        <pt x="153" y="700" on="1"/>
        <pt x="180" y="66" on="1"/>
        <pt x="193" y="66" on="1"/>
        <pt x="212" y="112" on="0"/>
        <pt x="233" y="165" on="1"/>
        <pt x="251" y="210" on="0"/>
        <pt x="296" y="323" on="0"/>
        <pt x="320" y="383" on="1"/>
        <pt x="375" y="522" on="0"/>
      </contour>
    </TTGlyph>
    <TTGlyph name="W" xMin="85" yMin="1" xMax="647" yMax="700">
      <contour>
        <pt x="314" y="363" on="1"/>
        <pt x="171" y="1" on="1"/>
        <pt x="85" y="1" on="1"/>
        <pt x="106" y="700" on="1"/>
        <pt x="158" y="700" on="1"/>
        <pt x="138" y="65" on="1"/>
        <pt x="146" y="65" on="1"/>
        <pt x="291" y="427" on="1"/>
        <pt x="367" y="427" on="1"/>
        <pt x="383" y="65" on="1"/>
        <pt x="391" y="65" on="1"/>
        <pt x="595" y="700" on="1"/>
        <pt x="647" y="700" on="1"/>
        <pt x="422" y="1" on="1"/>
        <pt x="336" y="1" on="1"/>
        <pt x="322" y="363" on="1"/>
      </contour>
    </TTGlyph>
    <TTGlyph name="X" xMin="-27" yMin="0" xMax="499" yMax="700">
      <contour>
        <pt x="218" y="318" on="1"/>
        <pt x="29" y="0" on="1"/>
        <pt x="-27" y="0" on="1"/>
        <pt x="180" y="347" on="1"/>
        <pt x="96" y="700" on="1"/>
        <pt x="152" y="700" on="1"/>
        <pt x="232" y="378" on="1"/>
        <pt x="249" y="378" on="1"/>
        <pt x="443" y="700" on="1"/>
        <pt x="499" y="700" on="1"/>
        <pt x="291" y="347" on="1"/>
        <pt x="375" y="0" on="1"/>
        <pt x="318" y="0" on="1"/>
        <pt x="242" y="318" on="1"/>
      </contour>
    </TTGlyph>
    <TTGlyph name="Y" xMin="86" yMin="0" xMax="489" yMax="700">
      <contour>
        <pt x="264" y="318" on="1"/>
        <pt x="250" y="318" on="1"/>
        <pt x="194" y="0" on="1"/>
        <pt x="134" y="0" on="1"/>
        <pt x="190" y="318" on="1"/>
        <pt x="178" y="318" on="1"/>
        <pt x="86" y="700" on="1"/>
        <pt x="142" y="700" on="1"/>
        <pt x="222" y="378" on="1"/>
        <pt x="239" y="378" on="1"/>
        <pt x="433" y="700" on="1"/>
        <pt x="489" y="700" on="1"/>
      </contour>
    </TTGlyph>
    <TTGlyph name="Yacute" xMin="86" yMin="0" xMax="489" yMax="937">
      <component glyphName="Y" x="0" y="0" flags="0x1204"/>
      <component glyphName="acute" x="-38" y="200" flags="0x1004"/>
    </TTGlyph>
    <TTGlyph name="Ydieresis" xMin="86" yMin="0" xMax="489" yMax="877">
      <component glyphName="Y" x="0" y="0" flags="0x1204"/>
      <component glyphName="dieresis" x="-29" y="200" flags="0x1004"/>
    </TTGlyph>
    <TTGlyph name="Z" xMin="-18" yMin="0" xMax="478" yMax="700">
      <contour>
        <pt x="391" y="627" on="1"/>
        <pt x="394" y="641" on="1"/>
        <pt x="118" y="641" on="1"/>
        <pt x="128" y="700" on="1"/>
        <pt x="478" y="700" on="1"/>
        <pt x="468" y="642" on="1"/>
        <pt x="69" y="75" on="1"/>
        <pt x="66" y="59" on="1"/>
        <pt x="381" y="59" on="1"/>
        <pt x="371" y="0" on="1"/>
        <pt x="-18" y="0" on="1"/>
        <pt x="-7" y="66" on="1"/>
      </contour>
    </TTGlyph>
    <TTGlyph name="Zcaron" xMin="-18" yMin="0" xMax="478" yMax="950">
      <component glyphName="Z" x="0" y="0" flags="0x1204"/>
      <component glyphName="caron" x="13" y="200" flags="0x1004"/>
    </TTGlyph>
    <TTGlyph name="a" xMin="18" yMin="-10" xMax="351" yMax="510">
      <contour>
        <pt x="284" y="243" on="1"/>
        <pt x="284" y="244" on="0"/>
        <pt x="268" y="255" on="0"/>
        <pt x="240" y="268" on="0"/>
        <pt x="200" y="279" on="0"/>
        <pt x="177" y="279" on="1"/>
        <pt x="160" y="279" on="0"/>
        <pt x="127" y="265" on="0"/>
        <pt x="100" y="241" on="0"/>
        <pt x="81" y="210" on="0"/>
        <pt x="78" y="192" on="1"/>
        <pt x="67" y="129" on="1"/>
        <pt x="61" y="94" on="0"/>
        <pt x="100" y="43" on="0"/>
        <pt x="134" y="43" on="1"/>
        <pt x="149" y="43" on="0"/>
        <pt x="190" y="54" on="0"/>
        <pt x="209" y="61" on="1"/>
        <pt x="231" y="69" on="0"/>
        <pt x="255" y="79" on="1"/>
      </contour>
      <contour>
        <pt x="301" y="49" on="1"/>
        <pt x="317" y="31" on="1"/>
        <pt x="275" y="-5" on="1"/>
        <pt x="252" y="22" on="1"/>
        <pt x="217" y="4" on="0"/>
        <pt x="146" y="-10" on="0"/>
        <pt x="126" y="-10" on="1"/>
        <pt x="98" y="-10" on="0"/>
        <pt x="53" y="13" on="0"/>
        <pt x="24" y="52" on="0"/>
        <pt x="13" y="104" on="0"/>
        <pt x="18" y="133" on="1"/>
        <pt x="28" y="189" on="1"/>
        <pt x="33" y="218" on="0"/>
        <pt x="62" y="269" on="0"/>
        <pt x="105" y="307" on="0"/>
        <pt x="158" y="329" on="0"/>
        <pt x="186" y="329" on="1"/>
        <pt x="193" y="329" on="0"/>
        <pt x="221" y="327" on="0"/>
        <pt x="254" y="321" on="0"/>
        <pt x="285" y="310" on="0"/>
        <pt x="296" y="301" on="1"/>
        <pt x="302" y="335" on="1"/>
        <pt x="306" y="358" on="0"/>
        <pt x="298" y="403" on="0"/>
        <pt x="275" y="439" on="0"/>
        <pt x="241" y="461" on="0"/>
        <pt x="219" y="461" on="1"/>
        <pt x="211" y="461" on="0"/>
        <pt x="168" y="451" on="0"/>
        <pt x="145" y="446" on="1"/>
        <pt x="118" y="440" on="0"/>
        <pt x="87" y="432" on="1"/>
        <pt x="81" y="479" on="1"/>
        <pt x="115" y="487" on="0"/>
        <pt x="144" y="494" on="1"/>
        <pt x="169" y="500" on="0"/>
        <pt x="217" y="510" on="0"/>
        <pt x="227" y="510" on="1"/>
        <pt x="259" y="510" on="0"/>
        <pt x="310" y="480" on="0"/>
        <pt x="343" y="431" on="0"/>
        <pt x="357" y="368" on="0"/>
        <pt x="351" y="335" on="1"/>
      </contour>
    </TTGlyph>
    <TTGlyph name="aacute" xMin="18" yMin="-10" xMax="410" yMax="737">
      <component glyphName="a" x="0" y="0" flags="0x1204"/>
      <component glyphName="acute" x="-82" y="0" flags="0x1004"/>
    </TTGlyph>
    <TTGlyph name="acircumflex" xMin="18" yMin="-10" xMax="392" yMax="751">
      <component glyphName="a" x="0" y="0" flags="0x1204"/>
      <component glyphName="circumflex" x="-43" y="0" flags="0x1004"/>
    </TTGlyph>
    <TTGlyph name="acute" xMin="309" yMin="590" xMax="492" yMax="737">
      <contour>
        <pt x="361" y="590" on="1"/>
        <pt x="309" y="590" on="1"/>
        <pt x="431" y="737" on="1"/>
        <pt x="492" y="737" on="1"/>
      </contour>
    </TTGlyph>
    <TTGlyph name="adieresis" xMin="18" yMin="-10" xMax="395" yMax="677">
      <component glyphName="a" x="0" y="0" flags="0x1204"/>
      <component glyphName="dieresis" x="-84" y="0" flags="0x1004"/>
    </TTGlyph>
    <TTGlyph name="ae" xMin="18" yMin="-10" xMax="612" yMax="510">
      <contour>
        <pt x="252" y="24" on="1"/>
        <pt x="217" y="4" on="0"/>
        <pt x="146" y="-10" on="0"/>
        <pt x="126" y="-10" on="1"/>
        <pt x="98" y="-10" on="0"/>
        <pt x="53" y="13" on="0"/>
        <pt x="24" y="52" on="0"/>
        <pt x="13" y="104" on="0"/>
        <pt x="18" y="133" on="1"/>
        <pt x="28" y="189" on="1"/>
        <pt x="33" y="218" on="0"/>
        <pt x="62" y="269" on="0"/>
        <pt x="105" y="307" on="0"/>
        <pt x="158" y="329" on="0"/>
        <pt x="186" y="329" on="1"/>
        <pt x="193" y="329" on="0"/>
        <pt x="220" y="327" on="0"/>
        <pt x="252" y="321" on="0"/>
        <pt x="283" y="311" on="0"/>
        <pt x="294" y="302" on="1"/>
        <pt x="302" y="349" on="1"/>
        <pt x="303" y="370" on="0"/>
        <pt x="292" y="411" on="0"/>
        <pt x="270" y="442" on="0"/>
        <pt x="239" y="461" on="0"/>
        <pt x="219" y="461" on="1"/>
        <pt x="211" y="461" on="0"/>
        <pt x="168" y="451" on="0"/>
        <pt x="145" y="446" on="1"/>
        <pt x="118" y="440" on="0"/>
        <pt x="87" y="432" on="1"/>
        <pt x="81" y="479" on="1"/>
        <pt x="115" y="487" on="0"/>
        <pt x="144" y="494" on="1"/>
        <pt x="169" y="500" on="0"/>
        <pt x="217" y="510" on="0"/>
        <pt x="227" y="510" on="1"/>
        <pt x="264" y="510" on="0"/>
        <pt x="320" y="471" on="0"/>
        <pt x="336" y="440" on="1"/>
        <pt x="359" y="472" on="0"/>
        <pt x="428" y="510" on="0"/>
        <pt x="466" y="510" on="1"/>
        <pt x="500" y="510" on="1"/>
        <pt x="528" y="510" on="0"/>
        <pt x="575" y="488" on="0"/>
        <pt x="605" y="450" on="0"/>
        <pt x="618" y="398" on="0"/>
        <pt x="612" y="368" on="1"/>
        <pt x="607" y="335" on="1"/>
        <pt x="599" y="293" on="0"/>
        <pt x="559" y="236" on="0"/>
        <pt x="501" y="200" on="0"/>
        <pt x="429" y="185" on="0"/>
        <pt x="390" y="185" on="1"/>
        <pt x="374" y="185" on="0"/>
        <pt x="342" y="187" on="0"/>
        <pt x="326" y="189" on="1"/>
        <pt x="315" y="129" on="1"/>
        <pt x="315" y="89" on="0"/>
        <pt x="368" y="42" on="0"/>
        <pt x="407" y="42" on="1"/>
        <pt x="411" y="42" on="0"/>
        <pt x="455" y="51" on="0"/>
        <pt x="480" y="56" on="1"/>
        <pt x="509" y="62" on="0"/>
        <pt x="545" y="70" on="1"/>
        <pt x="547" y="17" on="1"/>
        <pt x="509" y="9" on="0"/>
        <pt x="478" y="4" on="1"/>
        <pt x="452" y="-1" on="0"/>
        <pt x="403" y="-9" on="0"/>
        <pt x="398" y="-9" on="1"/>
        <pt x="361" y="-9" on="0"/>
        <pt x="296" y="24" on="0"/>
        <pt x="284" y="44" on="1"/>
        <pt x="279" y="42" on="0"/>
        <pt x="275" y="38" on="1"/>
        <pt x="270" y="35" on="0"/>
        <pt x="260" y="28" on="0"/>
      </contour>
      <contour>
        <pt x="177" y="279" on="1"/>
        <pt x="160" y="279" on="0"/>
        <pt x="127" y="265" on="0"/>
        <pt x="100" y="241" on="0"/>
        <pt x="81" y="210" on="0"/>
        <pt x="78" y="192" on="1"/>
        <pt x="67" y="129" on="1"/>
        <pt x="61" y="94" on="0"/>
        <pt x="100" y="43" on="0"/>
        <pt x="134" y="43" on="1"/>
        <pt x="149" y="43" on="0"/>
        <pt x="190" y="54" on="0"/>
        <pt x="209" y="61" on="1"/>
        <pt x="231" y="69" on="0"/>
        <pt x="255" y="79" on="1"/>
        <pt x="264" y="127" on="1"/>
        <pt x="264" y="132" on="0"/>
        <pt x="265" y="142" on="0"/>
        <pt x="266" y="147" on="1"/>
        <pt x="284" y="244" on="1"/>
        <pt x="281" y="246" on="0"/>
        <pt x="264" y="257" on="0"/>
        <pt x="236" y="269" on="0"/>
        <pt x="199" y="279" on="0"/>
      </contour>
      <contour>
        <pt x="453" y="242" on="1"/>
        <pt x="471" y="241" on="0"/>
        <pt x="505" y="255" on="0"/>
        <pt x="532" y="280" on="0"/>
        <pt x="551" y="313" on="0"/>
        <pt x="554" y="331" on="1"/>
        <pt x="561" y="373" on="1"/>
        <pt x="565" y="397" on="0"/>
        <pt x="554" y="430" on="0"/>
        <pt x="527" y="450" on="0"/>
        <pt x="490" y="459" on="0"/>
        <pt x="469" y="459" on="1"/>
        <pt x="450" y="459" on="0"/>
        <pt x="413" y="447" on="0"/>
        <pt x="383" y="425" on="0"/>
        <pt x="362" y="393" on="0"/>
        <pt x="358" y="373" on="1"/>
        <pt x="335" y="242" on="1"/>
      </contour>
    </TTGlyph>
    <TTGlyph name="agrave" xMin="18" yMin="-10" xMax="351" yMax="736">
      <component glyphName="a" x="0" y="0" flags="0x1204"/>
      <component glyphName="grave" x="-75" y="0" flags="0x1004"/>
    </TTGlyph>
    <TTGlyph name="ampersand" xMin="14" yMin="-9" xMax="545" yMax="714">
      <contour>
        <pt x="388" y="129" on="1"/>
        <pt x="227" y="342" on="1"/>
        <pt x="166" y="310" on="1"/>
        <pt x="127" y="289" on="0"/>
        <pt x="77" y="232" on="0"/>
        <pt x="69" y="192" on="1"/>
        <pt x="63" y="159" on="0"/>
        <pt x="78" y="104" on="0"/>
        <pt x="114" y="66" on="0"/>
        <pt x="166" y="45" on="0"/>
        <pt x="198" y="45" on="1"/>
        <pt x="258" y="45" on="0"/>
        <pt x="350" y="90" on="0"/>
      </contour>
      <contour>
        <pt x="497" y="359" on="1"/>
        <pt x="545" y="359" on="1"/>
        <pt x="540" y="331" on="0"/>
        <pt x="524" y="269" on="0"/>
        <pt x="502" y="208" on="0"/>
        <pt x="472" y="151" on="0"/>
        <pt x="453" y="129" on="1"/>
        <pt x="541" y="0" on="1"/>
        <pt x="477" y="0" on="1"/>
        <pt x="419" y="89" on="1"/>
        <pt x="373" y="44" on="0"/>
        <pt x="256" y="-9" on="0"/>
        <pt x="189" y="-9" on="1"/>
        <pt x="145" y="-9" on="0"/>
        <pt x="74" y="19" on="0"/>
        <pt x="26" y="71" on="0"/>
        <pt x="6" y="145" on="0"/>
        <pt x="14" y="191" on="1"/>
        <pt x="24" y="245" on="0"/>
        <pt x="88" y="321" on="0"/>
        <pt x="139" y="348" on="1"/>
        <pt x="201" y="381" on="1"/>
        <pt x="159" y="439" on="1"/>
        <pt x="139" y="468" on="0"/>
        <pt x="125" y="522" on="0"/>
        <pt x="131" y="556" on="1"/>
        <pt x="137" y="589" on="0"/>
        <pt x="171" y="647" on="0"/>
        <pt x="223" y="689" on="0"/>
        <pt x="289" y="714" on="0"/>
        <pt x="325" y="714" on="1"/>
        <pt x="360" y="714" on="0"/>
        <pt x="419" y="692" on="0"/>
        <pt x="458" y="651" on="0"/>
        <pt x="474" y="592" on="0"/>
        <pt x="468" y="556" on="1"/>
        <pt x="459" y="505" on="0"/>
        <pt x="400" y="438" on="0"/>
        <pt x="355" y="414" on="1"/>
        <pt x="274" y="370" on="1"/>
        <pt x="426" y="167" on="1"/>
        <pt x="455" y="206" on="0"/>
        <pt x="486" y="301" on="0"/>
      </contour>
      <contour>
        <pt x="417" y="556" on="1"/>
        <pt x="425" y="607" on="0"/>
        <pt x="368" y="666" on="0"/>
        <pt x="317" y="666" on="1"/>
        <pt x="294" y="666" on="0"/>
        <pt x="249" y="650" on="0"/>
        <pt x="213" y="622" on="0"/>
        <pt x="188" y="581" on="0"/>
        <pt x="184" y="556" on="1"/>
        <pt x="182" y="543" on="0"/>
        <pt x="185" y="519" on="0"/>
        <pt x="199" y="486" on="0"/>
        <pt x="227" y="441" on="0"/>
        <pt x="249" y="407" on="1"/>
        <pt x="337" y="456" on="1"/>
        <pt x="369" y="474" on="0"/>
        <pt x="411" y="524" on="0"/>
      </contour>
      <contour>
        <pt x="477" y="0" on="1"/>
        <pt x="419" y="89" on="1"/>
      </contour>
    </TTGlyph>
    <TTGlyph name="asciitilde" xMin="41" yMin="226" xMax="413" yMax="320">
      <contour>
        <pt x="413" y="283" on="1"/>
        <pt x="392" y="265" on="0"/>
        <pt x="360" y="243" on="0"/>
        <pt x="333" y="231" on="0"/>
        <pt x="309" y="226" on="0"/>
        <pt x="295" y="226" on="1"/>
        <pt x="276" y="226" on="0"/>
        <pt x="240" y="241" on="0"/>
        <pt x="204" y="259" on="0"/>
        <pt x="168" y="274" on="0"/>
        <pt x="148" y="274" on="1"/>
        <pt x="130" y="274" on="0"/>
        <pt x="98" y="261" on="0"/>
        <pt x="69" y="236" on="1"/>
        <pt x="41" y="263" on="1"/>
        <pt x="62" y="281" on="0"/>
        <pt x="93" y="303" on="0"/>
        <pt x="120" y="315" on="0"/>
        <pt x="145" y="320" on="0"/>
        <pt x="159" y="320" on="1"/>
        <pt x="180" y="320" on="0"/>
        <pt x="215" y="305" on="0"/>
        <pt x="249" y="287" on="0"/>
        <pt x="284" y="272" on="0"/>
        <pt x="305" y="272" on="1"/>
        <pt x="323" y="272" on="0"/>
        <pt x="355" y="285" on="0"/>
        <pt x="384" y="310" on="1"/>
      </contour>
    </TTGlyph>
    <TTGlyph name="asterisk" xMin="45" yMin="163" xMax="362" yMax="481">
      <contour>
        <pt x="313" y="224" on="1"/>
        <pt x="215" y="289" on="1"/>
        <pt x="197" y="163" on="1"/>
        <pt x="153" y="163" on="1"/>
        <pt x="178" y="289" on="1"/>
        <pt x="60" y="224" on="1"/>
        <pt x="45" y="262" on="1"/>
        <pt x="165" y="322" on="1"/>
        <pt x="66" y="382" on="1"/>
        <pt x="94" y="419" on="1"/>
        <pt x="190" y="355" on="1"/>
        <pt x="209" y="481" on="1"/>
        <pt x="253" y="481" on="1"/>
        <pt x="227" y="355" on="1"/>
        <pt x="347" y="419" on="1"/>
        <pt x="362" y="382" on="1"/>
        <pt x="241" y="322" on="1"/>
        <pt x="341" y="262" on="1"/>
      </contour>
    </TTGlyph>
    <TTGlyph name="at" xMin="51" yMin="-69" xMax="843" yMax="742">
      <contour>
        <pt x="843" y="401" on="1"/>
        <pt x="835" y="354" on="0"/>
        <pt x="795" y="258" on="0"/>
        <pt x="734" y="180" on="0"/>
        <pt x="653" y="130" on="0"/>
        <pt x="604" y="130" on="1"/>
        <pt x="570" y="130" on="0"/>
        <pt x="528" y="174" on="0"/>
        <pt x="528" y="209" on="1"/>
        <pt x="516" y="192" on="0"/>
        <pt x="483" y="163" on="0"/>
        <pt x="445" y="143" on="0"/>
        <pt x="404" y="132" on="0"/>
        <pt x="385" y="132" on="1"/>
        <pt x="347" y="132" on="0"/>
        <pt x="293" y="161" on="0"/>
        <pt x="262" y="209" on="0"/>
        <pt x="254" y="273" on="0"/>
        <pt x="260" y="308" on="1"/>
        <pt x="267" y="349" on="0"/>
        <pt x="305" y="427" on="0"/>
        <pt x="364" y="489" on="0"/>
        <pt x="439" y="526" on="0"/>
        <pt x="484" y="526" on="1"/>
        <pt x="519" y="526" on="0"/>
        <pt x="574" y="493" on="0"/>
        <pt x="583" y="460" on="1"/>
        <pt x="606" y="517" on="1"/>
        <pt x="643" y="517" on="1"/>
        <pt x="576" y="253" on="1"/>
        <pt x="576" y="251" on="0"/>
        <pt x="575" y="246" on="0"/>
        <pt x="575" y="244" on="1"/>
        <pt x="569" y="212" on="0"/>
        <pt x="590" y="173" on="0"/>
        <pt x="617" y="173" on="1"/>
        <pt x="651" y="173" on="0"/>
        <pt x="710" y="212" on="0"/>
        <pt x="757" y="277" on="0"/>
        <pt x="788" y="359" on="0"/>
        <pt x="796" y="401" on="1"/>
        <pt x="808" y="471" on="0"/>
        <pt x="777" y="581" on="0"/>
        <pt x="704" y="657" on="0"/>
        <pt x="593" y="696" on="0"/>
        <pt x="526" y="696" on="1"/>
        <pt x="443" y="696" on="0"/>
        <pt x="301" y="641" on="0"/>
        <pt x="190" y="543" on="0"/>
        <pt x="115" y="407" on="0"/>
        <pt x="101" y="326" on="1"/>
        <pt x="88" y="254" on="0"/>
        <pt x="114" y="126" on="0"/>
        <pt x="185" y="32" on="0"/>
        <pt x="298" y="-23" on="0"/>
        <pt x="372" y="-23" on="1"/>
        <pt x="438" y="-23" on="0"/>
        <pt x="568" y="0" on="0"/>
        <pt x="634" y="26" on="1"/>
        <pt x="626" y="-21" on="1"/>
        <pt x="556" y="-49" on="0"/>
        <pt x="431" y="-69" on="0"/>
        <pt x="361" y="-69" on="1"/>
        <pt x="276" y="-69" on="0"/>
        <pt x="147" y="-8" on="0"/>
        <pt x="66" y="99" on="0"/>
        <pt x="37" y="243" on="0"/>
        <pt x="52" y="326" on="1"/>
        <pt x="68" y="418" on="0"/>
        <pt x="153" y="571" on="0"/>
        <pt x="280" y="681" on="0"/>
        <pt x="441" y="742" on="0"/>
        <pt x="534" y="742" on="1"/>
        <pt x="611" y="742" on="0"/>
        <pt x="737" y="696" on="0"/>
        <pt x="822" y="608" on="0"/>
        <pt x="857" y="481" on="0"/>
      </contour>
      <contour>
        <pt x="554" y="350" on="1"/>
        <pt x="558" y="376" on="0"/>
        <pt x="556" y="424" on="0"/>
        <pt x="537" y="461" on="0"/>
        <pt x="500" y="483" on="0"/>
        <pt x="470" y="483" on="1"/>
        <pt x="438" y="483" on="0"/>
        <pt x="383" y="451" on="0"/>
        <pt x="341" y="401" on="0"/>
        <pt x="313" y="339" on="0"/>
        <pt x="308" y="308" on="1"/>
        <pt x="303" y="280" on="0"/>
        <pt x="308" y="231" on="0"/>
        <pt x="329" y="195" on="0"/>
        <pt x="366" y="174" on="0"/>
        <pt x="394" y="174" on="1"/>
        <pt x="429" y="174" on="0"/>
        <pt x="484" y="208" on="0"/>
        <pt x="524" y="259" on="0"/>
        <pt x="549" y="321" on="0"/>
      </contour>
    </TTGlyph>
    <TTGlyph name="atilde" xMin="18" yMin="-10" xMax="407" yMax="655">
      <component glyphName="a" x="0" y="0" flags="0x1204"/>
      <component glyphName="tilde" x="-96" y="0" flags="0x1004"/>
    </TTGlyph>
    <TTGlyph name="b" xMin="-1" yMin="-8" xMax="376" yMax="700">
      <contour>
        <pt x="77" y="79" on="1"/>
        <pt x="78" y="70" on="0"/>
        <pt x="106" y="57" on="0"/>
        <pt x="141" y="48" on="0"/>
        <pt x="177" y="43" on="0"/>
        <pt x="186" y="43" on="1"/>
        <pt x="203" y="43" on="0"/>
        <pt x="235" y="57" on="0"/>
        <pt x="262" y="80" on="0"/>
        <pt x="280" y="111" on="0"/>
        <pt x="283" y="129" on="1"/>
        <pt x="326" y="372" on="1"/>
        <pt x="329" y="390" on="0"/>
        <pt x="322" y="422" on="0"/>
        <pt x="303" y="445" on="0"/>
        <pt x="275" y="459" on="0"/>
        <pt x="258" y="459" on="1"/>
        <pt x="249" y="459" on="0"/>
        <pt x="220" y="455" on="0"/>
        <pt x="185" y="446" on="0"/>
        <pt x="151" y="433" on="0"/>
        <pt x="138" y="424" on="1"/>
      </contour>
      <contour>
        <pt x="147" y="482" on="1"/>
        <pt x="191" y="503" on="0"/>
        <pt x="250" y="510" on="0"/>
        <pt x="267" y="510" on="1"/>
        <pt x="295" y="510" on="0"/>
        <pt x="339" y="488" on="0"/>
        <pt x="369" y="449" on="0"/>
        <pt x="381" y="398" on="0"/>
        <pt x="376" y="369" on="1"/>
        <pt x="334" y="133" on="1"/>
        <pt x="329" y="104" on="0"/>
        <pt x="299" y="52" on="0"/>
        <pt x="256" y="14" on="0"/>
        <pt x="204" y="-8" on="0"/>
        <pt x="176" y="-8" on="1"/>
        <pt x="154" y="-8" on="0"/>
        <pt x="89" y="5" on="0"/>
        <pt x="60" y="23" on="1"/>
        <pt x="28" y="-3" on="1"/>
        <pt x="-1" y="32" on="1"/>
        <pt x="22" y="52" on="1"/>
        <pt x="136" y="700" on="1"/>
        <pt x="186" y="700" on="1"/>
      </contour>
    </TTGlyph>
    <TTGlyph name="backslash" xMin="114" yMin="-57" xMax="291" yMax="768">
      <contour>
        <pt x="238" y="-57" on="1"/>
        <pt x="114" y="768" on="1"/>
        <pt x="168" y="768" on="1"/>
        <pt x="291" y="-57" on="1"/>
      </contour>
    </TTGlyph>
    <TTGlyph name="bar" xMin="16" yMin="-10" xMax="191" yMax="700">
      <contour>
        <pt x="16" y="-10" on="1"/>
        <pt x="141" y="700" on="1"/>
        <pt x="191" y="700" on="1"/>
        <pt x="66" y="-10" on="1"/>
      </contour>
    </TTGlyph>
    <TTGlyph name="braceleft" xMin="17" yMin="-74" xMax="288" yMax="774">
      <contour>
        <pt x="115" y="-74" on="1"/>
        <pt x="81" y="-74" on="0"/>
        <pt x="43" y="-61" on="0"/>
        <pt x="32" y="-48" on="1"/>
        <pt x="20" y="-34" on="0"/>
        <pt x="15" y="4" on="0"/>
        <pt x="21" y="39" on="1"/>
        <pt x="131" y="661" on="1"/>
        <pt x="137" y="696" on="0"/>
        <pt x="155" y="734" on="0"/>
        <pt x="172" y="748" on="1"/>
        <pt x="187" y="761" on="0"/>
        <pt x="231" y="774" on="0"/>
        <pt x="265" y="774" on="1"/>
        <pt x="288" y="774" on="1"/>
        <pt x="279" y="725" on="1"/>
        <pt x="261" y="725" on="1"/>
        <pt x="238" y="725" on="0"/>
        <pt x="213" y="722" on="0"/>
        <pt x="204" y="714" on="1"/>
        <pt x="193" y="705" on="0"/>
        <pt x="184" y="673" on="0"/>
        <pt x="179" y="649" on="1"/>
        <pt x="73" y="47" on="1"/>
        <pt x="68" y="23" on="0"/>
        <pt x="68" y="-6" on="0"/>
        <pt x="76" y="-14" on="1"/>
        <pt x="82" y="-22" on="0"/>
        <pt x="106" y="-25" on="0"/>
        <pt x="129" y="-25" on="1"/>
        <pt x="147" y="-25" on="1"/>
        <pt x="138" y="-74" on="1"/>
      </contour>
    </TTGlyph>
    <TTGlyph name="braceright" xMin="-32" yMin="-72" xMax="242" yMax="776">
      <contour>
        <pt x="129" y="41" on="1"/>
        <pt x="123" y="6" on="0"/>
        <pt x="104" y="-32" on="0"/>
        <pt x="87" y="-46" on="1"/>
        <pt x="71" y="-59" on="0"/>
        <pt x="28" y="-72" on="0"/>
        <pt x="-6" y="-72" on="1"/>
        <pt x="-32" y="-72" on="1"/>
        <pt x="-24" y="-23" on="1"/>
        <pt x="-3" y="-23" on="1"/>
        <pt x="10" y="-23" on="1"/>
        <pt x="27" y="-23" on="0"/>
        <pt x="47" y="-20" on="0"/>
        <pt x="55" y="-13" on="1"/>
        <pt x="65" y="-5" on="0"/>
        <pt x="75" y="24" on="0"/>
        <pt x="80" y="48" on="1"/>
        <pt x="187" y="655" on="1"/>
        <pt x="192" y="679" on="0"/>
        <pt x="191" y="708" on="0"/>
        <pt x="184" y="716" on="1"/>
        <pt x="177" y="724" on="0"/>
        <pt x="153" y="727" on="0"/>
        <pt x="130" y="727" on="1"/>
        <pt x="109" y="727" on="1"/>
        <pt x="117" y="776" on="1"/>
        <pt x="143" y="776" on="1"/>
        <pt x="177" y="776" on="0"/>
        <pt x="217" y="763" on="0"/>
        <pt x="228" y="750" on="1"/>
        <pt x="239" y="736" on="0"/>
        <pt x="245" y="698" on="0"/>
        <pt x="238" y="663" on="1"/>
        <pt x="129" y="41" on="1"/>
      </contour>
    </TTGlyph>
    <TTGlyph name="bracketleft" xMin="1" yMin="-84" xMax="292" yMax="777">
      <contour>
        <pt x="1" y="-84" on="1"/>
        <pt x="153" y="777" on="1"/>
        <pt x="292" y="777" on="1"/>
        <pt x="283" y="728" on="1"/>
        <pt x="194" y="728" on="1"/>
        <pt x="59" y="-35" on="1"/>
        <pt x="148" y="-35" on="1"/>
        <pt x="140" y="-84" on="1"/>
      </contour>
    </TTGlyph>
    <TTGlyph name="bracketright" xMin="-35" yMin="-85" xMax="255" yMax="776">
      <contour>
        <pt x="-35" y="-85" on="1"/>
        <pt x="-27" y="-36" on="1"/>
        <pt x="62" y="-36" on="1"/>
        <pt x="197" y="727" on="1"/>
        <pt x="108" y="727" on="1"/>
        <pt x="116" y="776" on="1"/>
        <pt x="255" y="776" on="1"/>
        <pt x="104" y="-85" on="1"/>
      </contour>
    </TTGlyph>
    <TTGlyph name="brokenbar" xMin="18" yMin="0" xMax="193" yMax="700">
      <contour>
        <pt x="141" y="700" on="1"/>
        <pt x="193" y="700" on="1"/>
        <pt x="138" y="388" on="1"/>
        <pt x="86" y="388" on="1"/>
      </contour>
      <contour>
        <pt x="73" y="312" on="1"/>
        <pt x="125" y="312" on="1"/>
        <pt x="70" y="0" on="1"/>
        <pt x="18" y="0" on="1"/>
      </contour>
    </TTGlyph>
    <TTGlyph name="bullet" xMin="37" yMin="143" xMax="244" yMax="351">
      <contour>
        <pt x="244" y="247" on="1"/>
        <pt x="240" y="226" on="0"/>
        <pt x="217" y="188" on="0"/>
        <pt x="184" y="159" on="0"/>
        <pt x="143" y="143" on="0"/>
        <pt x="122" y="143" on="1"/>
        <pt x="101" y="143" on="0"/>
        <pt x="66" y="159" on="0"/>
        <pt x="43" y="188" on="0"/>
        <pt x="33" y="226" on="0"/>
        <pt x="37" y="247" on="1"/>
        <pt x="41" y="268" on="0"/>
        <pt x="63" y="306" on="0"/>
        <pt x="96" y="335" on="0"/>
        <pt x="137" y="351" on="0"/>
        <pt x="158" y="351" on="1"/>
        <pt x="179" y="351" on="0"/>
        <pt x="214" y="335" on="0"/>
        <pt x="238" y="306" on="0"/>
        <pt x="248" y="268" on="0"/>
      </contour>
    </TTGlyph>
    <TTGlyph name="c" xMin="30" yMin="-8" xMax="347" yMax="511">
      <contour>
        <pt x="80" y="148" on="1"/>
        <pt x="75" y="124" on="0"/>
        <pt x="86" y="85" on="0"/>
        <pt x="111" y="57" on="0"/>
        <pt x="147" y="42" on="0"/>
        <pt x="169" y="42" on="1"/>
        <pt x="179" y="42" on="0"/>
        <pt x="210" y="47" on="0"/>
        <pt x="225" y="50" on="1"/>
        <pt x="243" y="54" on="0"/>
        <pt x="261" y="59" on="1"/>
        <pt x="269" y="13" on="1"/>
        <pt x="248" y="6" on="0"/>
        <pt x="229" y="2" on="1"/>
        <pt x="212" y="-2" on="0"/>
        <pt x="174" y="-8" on="0"/>
        <pt x="160" y="-8" on="1"/>
        <pt x="127" y="-8" on="0"/>
        <pt x="74" y="15" on="0"/>
        <pt x="39" y="57" on="0"/>
        <pt x="24" y="114" on="0"/>
        <pt x="30" y="148" on="1"/>
        <pt x="66" y="357" on="1"/>
        <pt x="72" y="391" on="0"/>
        <pt x="107" y="448" on="0"/>
        <pt x="157" y="488" on="0"/>
        <pt x="218" y="511" on="0"/>
        <pt x="251" y="511" on="1"/>
        <pt x="267" y="511" on="0"/>
        <pt x="301" y="503" on="0"/>
        <pt x="315" y="498" on="1"/>
        <pt x="332" y="493" on="0"/>
        <pt x="347" y="486" on="1"/>
        <pt x="328" y="443" on="1"/>
        <pt x="314" y="448" on="0"/>
        <pt x="299" y="452" on="1"/>
        <pt x="286" y="456" on="0"/>
        <pt x="256" y="462" on="0"/>
        <pt x="242" y="462" on="1"/>
        <pt x="220" y="462" on="0"/>
        <pt x="179" y="447" on="0"/>
        <pt x="145" y="419" on="0"/>
        <pt x="120" y="381" on="0"/>
        <pt x="116" y="357" on="1"/>
      </contour>
    </TTGlyph>
    <TTGlyph name="caron" xMin="203" yMin="625" xMax="458" yMax="750">
      <contour>
        <pt x="252" y="750" on="1"/>
        <pt x="315" y="669" on="1"/>
        <pt x="408" y="750" on="1"/>
        <pt x="458" y="750" on="1"/>
        <pt x="336" y="625" on="1"/>
        <pt x="281" y="625" on="1"/>
        <pt x="203" y="750" on="1"/>
      </contour>
    </TTGlyph>
    <TTGlyph name="ccedilla" xMin="30" yMin="-222" xMax="347" yMax="511">
      <component glyphName="c" x="0" y="0" flags="0x1004"/>
      <component glyphName="cedilla" x="-50" y="0" flags="0x1004"/>
    </TTGlyph>
    <TTGlyph name="cedilla" xMin="116" yMin="-222" xMax="225" yMax="-46">
      <contour>
        <pt x="216" y="-98" on="1"/>
        <pt x="206" y="-154" on="0"/>
        <pt x="166" y="-210" on="0"/>
        <pt x="138" y="-222" on="1"/>
        <pt x="116" y="-186" on="1"/>
        <pt x="135" y="-178" on="0"/>
        <pt x="162" y="-133" on="0"/>
        <pt x="168" y="-97" on="1"/>
        <pt x="177" y="-46" on="1"/>
        <pt x="225" y="-46" on="1"/>
        <pt x="216" y="-98" on="1"/>
      </contour>
    </TTGlyph>
    <TTGlyph name="cent" xMin="27" yMin="-131" xMax="345" yMax="637">
      <contour>
        <pt x="211" y="508" on="1"/>
        <pt x="234" y="637" on="1"/>
        <pt x="284" y="637" on="1"/>
        <pt x="262" y="511" on="1"/>
        <pt x="276" y="509" on="0"/>
        <pt x="306" y="501" on="0"/>
        <pt x="318" y="497" on="1"/>
        <pt x="332" y="492" on="0"/>
        <pt x="345" y="487" on="1"/>
        <pt x="326" y="444" on="1"/>
        <pt x="312" y="449" on="0"/>
        <pt x="297" y="453" on="1"/>
        <pt x="284" y="457" on="0"/>
        <pt x="254" y="463" on="0"/>
        <pt x="240" y="463" on="1"/>
        <pt x="218" y="463" on="0"/>
        <pt x="177" y="448" on="0"/>
        <pt x="143" y="420" on="0"/>
        <pt x="119" y="382" on="0"/>
        <pt x="115" y="358" on="1"/>
        <pt x="78" y="149" on="1"/>
        <pt x="73" y="125" on="0"/>
        <pt x="84" y="86" on="0"/>
        <pt x="109" y="58" on="0"/>
        <pt x="145" y="43" on="0"/>
        <pt x="167" y="43" on="1"/>
        <pt x="177" y="43" on="0"/>
        <pt x="208" y="48" on="0"/>
        <pt x="223" y="51" on="1"/>
        <pt x="241" y="55" on="0"/>
        <pt x="259" y="60" on="1"/>
        <pt x="267" y="14" on="1"/>
        <pt x="250" y="9" on="0"/>
        <pt x="233" y="5" on="1"/>
        <pt x="219" y="1" on="0"/>
        <pt x="185" y="-5" on="0"/>
        <pt x="170" y="-6" on="1"/>
        <pt x="148" y="-131" on="1"/>
        <pt x="98" y="-131" on="1"/>
        <pt x="121" y="-3" on="1"/>
        <pt x="96" y="3" on="0"/>
        <pt x="57" y="30" on="0"/>
        <pt x="32" y="70" on="0"/>
        <pt x="23" y="120" on="0"/>
        <pt x="28" y="149" on="1"/>
        <pt x="65" y="358" on="1"/>
        <pt x="70" y="387" on="0"/>
        <pt x="96" y="437" on="0"/>
        <pt x="135" y="476" on="0"/>
        <pt x="184" y="502" on="0"/>
      </contour>
    </TTGlyph>
    <TTGlyph name="circumflex" xMin="180" yMin="626" xMax="435" yMax="751">
      <contour>
        <pt x="386" y="626" on="1"/>
        <pt x="322" y="707" on="1"/>
        <pt x="230" y="626" on="1"/>
        <pt x="180" y="626" on="1"/>
        <pt x="302" y="751" on="1"/>
        <pt x="357" y="751" on="1"/>
        <pt x="435" y="626" on="1"/>
      </contour>
    </TTGlyph>
    <TTGlyph name="colon" xMin="10" yMin="1" xMax="152" yMax="411">
      <contour>
        <pt x="136" y="321" on="1"/>
        <pt x="67" y="321" on="1"/>
        <pt x="83" y="411" on="1"/>
        <pt x="152" y="411" on="1"/>
      </contour>
      <contour>
        <pt x="79" y="1" on="1"/>
        <pt x="10" y="1" on="1"/>
        <pt x="25" y="89" on="1"/>
        <pt x="94" y="89" on="1"/>
      </contour>
    </TTGlyph>
    <TTGlyph name="comma" xMin="-40" yMin="-92" xMax="84" yMax="100">
      <contour>
        <pt x="75" y="48" on="1"/>
        <pt x="65" y="-8" on="0"/>
        <pt x="8" y="-76" on="0"/>
        <pt x="-34" y="-92" on="1"/>
        <pt x="-40" y="-32" on="1"/>
        <pt x="-21" y="-24" on="0"/>
        <pt x="11" y="13" on="0"/>
        <pt x="17" y="49" on="1"/>
        <pt x="26" y="100" on="1"/>
        <pt x="84" y="100" on="1"/>
        <pt x="75" y="48" on="1"/>
      </contour>
    </TTGlyph>
    <TTGlyph name="copyright" xMin="52" yMin="-10" xMax="769" yMax="708">
      <contour>
        <pt x="769" y="349" on="1"/>
        <pt x="756" y="275" on="0"/>
        <pt x="677" y="144" on="0"/>
        <pt x="563" y="46" on="0"/>
        <pt x="422" y="-10" on="0"/>
        <pt x="348" y="-10" on="1"/>
        <pt x="274" y="-10" on="0"/>
        <pt x="153" y="46" on="0"/>
        <pt x="72" y="144" on="0"/>
        <pt x="39" y="275" on="0"/>
        <pt x="52" y="349" on="1"/>
        <pt x="65" y="423" on="0"/>
        <pt x="145" y="554" on="0"/>
        <pt x="259" y="651" on="0"/>
        <pt x="400" y="708" on="0"/>
        <pt x="474" y="708" on="1"/>
        <pt x="548" y="708" on="0"/>
        <pt x="669" y="651" on="0"/>
        <pt x="749" y="554" on="0"/>
        <pt x="782" y="423" on="0"/>
      </contour>
      <contour>
        <pt x="719" y="349" on="1"/>
        <pt x="730" y="413" on="0"/>
        <pt x="702" y="526" on="0"/>
        <pt x="633" y="610" on="0"/>
        <pt x="530" y="658" on="0"/>
        <pt x="466" y="658" on="1"/>
        <pt x="402" y="658" on="0"/>
        <pt x="281" y="610" on="0"/>
        <pt x="182" y="526" on="0"/>
        <pt x="113" y="413" on="0"/>
        <pt x="102" y="349" on="1"/>
        <pt x="91" y="284" on="0"/>
        <pt x="120" y="172" on="0"/>
        <pt x="189" y="88" on="0"/>
        <pt x="293" y="40" on="0"/>
        <pt x="357" y="40" on="1"/>
        <pt x="421" y="40" on="0"/>
        <pt x="541" y="88" on="0"/>
        <pt x="640" y="172" on="0"/>
        <pt x="708" y="284" on="0"/>
      </contour>
      <contour>
        <pt x="322" y="271" on="1"/>
        <pt x="315" y="233" on="0"/>
        <pt x="358" y="187" on="0"/>
        <pt x="393" y="187" on="1"/>
        <pt x="401" y="187" on="0"/>
        <pt x="425" y="191" on="0"/>
        <pt x="437" y="194" on="1"/>
        <pt x="451" y="197" on="0"/>
        <pt x="466" y="201" on="1"/>
        <pt x="472" y="165" on="1"/>
        <pt x="456" y="160" on="0"/>
        <pt x="441" y="156" on="1"/>
        <pt x="427" y="153" on="0"/>
        <pt x="398" y="148" on="0"/>
        <pt x="387" y="148" on="1"/>
        <pt x="361" y="148" on="0"/>
        <pt x="319" y="166" on="0"/>
        <pt x="290" y="199" on="0"/>
        <pt x="278" y="244" on="0"/>
        <pt x="283" y="271" on="1"/>
        <pt x="313" y="440" on="1"/>
        <pt x="318" y="467" on="0"/>
        <pt x="345" y="511" on="0"/>
        <pt x="384" y="543" on="0"/>
        <pt x="432" y="561" on="0"/>
        <pt x="458" y="561" on="1"/>
        <pt x="470" y="561" on="0"/>
        <pt x="497" y="555" on="0"/>
        <pt x="508" y="551" on="1"/>
        <pt x="521" y="547" on="0"/>
        <pt x="534" y="541" on="1"/>
        <pt x="519" y="507" on="1"/>
        <pt x="507" y="510" on="0"/>
        <pt x="496" y="514" on="1"/>
        <pt x="486" y="517" on="0"/>
        <pt x="463" y="522" on="0"/>
        <pt x="452" y="522" on="1"/>
        <pt x="417" y="522" on="0"/>
        <pt x="359" y="477" on="0"/>
        <pt x="352" y="440" on="1"/>
      </contour>
    </TTGlyph>
    <TTGlyph name="d" xMin="28" yMin="-9" xMax="426" yMax="699">
      <contour>
        <pt x="265" y="78" on="1"/>
        <pt x="326" y="423" on="1"/>
        <pt x="296" y="446" on="0"/>
        <pt x="235" y="458" on="0"/>
        <pt x="218" y="458" on="1"/>
        <pt x="201" y="458" on="0"/>
        <pt x="168" y="444" on="0"/>
        <pt x="141" y="421" on="0"/>
        <pt x="123" y="389" on="0"/>
        <pt x="120" y="371" on="1"/>
        <pt x="77" y="128" on="1"/>
        <pt x="71" y="93" on="0"/>
        <pt x="110" y="42" on="0"/>
        <pt x="144" y="42" on="1"/>
        <pt x="153" y="42" on="0"/>
        <pt x="190" y="47" on="0"/>
        <pt x="229" y="56" on="0"/>
        <pt x="260" y="69" on="0"/>
      </contour>
      <contour>
        <pt x="337" y="481" on="1"/>
        <pt x="376" y="699" on="1"/>
        <pt x="426" y="699" on="1"/>
        <pt x="311" y="48" on="1"/>
        <pt x="329" y="26" on="1"/>
        <pt x="287" y="-9" on="1"/>
        <pt x="262" y="21" on="1"/>
        <pt x="227" y="3" on="0"/>
        <pt x="157" y="-9" on="0"/>
        <pt x="136" y="-9" on="1"/>
        <pt x="108" y="-9" on="0"/>
        <pt x="64" y="13" on="0"/>
        <pt x="34" y="51" on="0"/>
        <pt x="23" y="103" on="0"/>
        <pt x="28" y="132" on="1"/>
        <pt x="69" y="368" on="1"/>
        <pt x="74" y="397" on="0"/>
        <pt x="104" y="448" on="0"/>
        <pt x="147" y="487" on="0"/>
        <pt x="199" y="509" on="0"/>
        <pt x="227" y="509" on="1"/>
        <pt x="244" y="509" on="0"/>
        <pt x="301" y="502" on="0"/>
      </contour>
    </TTGlyph>
    <TTGlyph name="degree" xMin="90" yMin="461" xMax="340" yMax="711">
      <contour>
        <pt x="340" y="586" on="1"/>
        <pt x="335" y="560" on="0"/>
        <pt x="308" y="515" on="0"/>
        <pt x="268" y="481" on="0"/>
        <pt x="218" y="461" on="0"/>
        <pt x="192" y="461" on="1"/>
        <pt x="166" y="461" on="0"/>
        <pt x="125" y="481" on="0"/>
        <pt x="97" y="515" on="0"/>
        <pt x="85" y="560" on="0"/>
        <pt x="90" y="586" on="1"/>
        <pt x="94" y="612" on="0"/>
        <pt x="122" y="657" on="0"/>
        <pt x="162" y="691" on="0"/>
        <pt x="210" y="711" on="0"/>
        <pt x="236" y="711" on="1"/>
        <pt x="262" y="711" on="0"/>
        <pt x="305" y="692" on="0"/>
        <pt x="333" y="658" on="0"/>
        <pt x="344" y="612" on="0"/>
      </contour>
      <contour>
        <pt x="294" y="586" on="1"/>
        <pt x="300" y="619" on="0"/>
        <pt x="261" y="665" on="0"/>
        <pt x="228" y="665" on="1"/>
        <pt x="212" y="665" on="0"/>
        <pt x="181" y="653" on="0"/>
        <pt x="156" y="631" on="0"/>
        <pt x="138" y="602" on="0"/>
        <pt x="135" y="586" on="1"/>
        <pt x="129" y="554" on="0"/>
        <pt x="168" y="508" on="0"/>
        <pt x="200" y="508" on="1"/>
        <pt x="216" y="508" on="0"/>
        <pt x="248" y="520" on="0"/>
        <pt x="273" y="541" on="0"/>
        <pt x="291" y="570" on="0"/>
      </contour>
    </TTGlyph>
    <TTGlyph name="dieresis" xMin="209" yMin="600" xMax="479" yMax="677">
      <contour>
        <pt x="407" y="600" on="1"/>
        <pt x="421" y="677" on="1"/>
        <pt x="479" y="677" on="1"/>
        <pt x="465" y="600" on="1"/>
      </contour>
      <contour>
        <pt x="209" y="600" on="1"/>
        <pt x="223" y="677" on="1"/>
        <pt x="281" y="677" on="1"/>
        <pt x="267" y="600" on="1"/>
      </contour>
    </TTGlyph>
    <TTGlyph name="divide" xMin="36" yMin="1" xMax="390" yMax="411">
      <component glyphName="colon" x="135" y="0" flags="0x1004"/>
      <component glyphName="minus" x="-27" y="-71" flags="0x1004"/>
    </TTGlyph>
    <TTGlyph name="dollar" xMin="10" yMin="-73" xMax="451" yMax="764">
      <contour>
        <pt x="290" y="764" on="1"/>
        <pt x="345" y="764" on="1"/>
        <pt x="333" y="695" on="1"/>
        <pt x="344" y="693" on="0"/>
        <pt x="364" y="686" on="0"/>
        <pt x="372" y="683" on="1"/>
        <pt x="451" y="648" on="1"/>
        <pt x="422" y="592" on="1"/>
        <pt x="412" y="597" on="0"/>
        <pt x="381" y="613" on="0"/>
        <pt x="345" y="629" on="0"/>
        <pt x="310" y="640" on="0"/>
        <pt x="295" y="640" on="1"/>
        <pt x="268" y="640" on="0"/>
        <pt x="218" y="618" on="0"/>
        <pt x="178" y="580" on="0"/>
        <pt x="151" y="530" on="0"/>
        <pt x="146" y="503" on="1"/>
        <pt x="141" y="472" on="0"/>
        <pt x="155" y="425" on="0"/>
        <pt x="187" y="394" on="0"/>
        <pt x="232" y="379" on="0"/>
        <pt x="258" y="379" on="1"/>
        <pt x="298" y="379" on="0"/>
        <pt x="363" y="352" on="0"/>
        <pt x="407" y="304" on="0"/>
        <pt x="425" y="236" on="0"/>
        <pt x="418" y="196" on="1"/>
        <pt x="411" y="157" on="0"/>
        <pt x="373" y="88" on="0"/>
        <pt x="317" y="36" on="0"/>
        <pt x="248" y="3" on="0"/>
        <pt x="211" y="0" on="1"/>
        <pt x="198" y="-73" on="1"/>
        <pt x="143" y="-73" on="1"/>
        <pt x="156" y="3" on="1"/>
        <pt x="133" y="11" on="0"/>
        <pt x="88" y="29" on="0"/>
        <pt x="49" y="46" on="0"/>
        <pt x="18" y="61" on="0"/>
        <pt x="10" y="65" on="1"/>
        <pt x="40" y="120" on="1"/>
        <pt x="87" y="97" on="0"/>
        <pt x="143" y="72" on="0"/>
        <pt x="176" y="60" on="0"/>
        <pt x="194" y="57" on="0"/>
        <pt x="204" y="57" on="1"/>
        <pt x="232" y="57" on="0"/>
        <pt x="284" y="78" on="0"/>
        <pt x="326" y="114" on="0"/>
        <pt x="355" y="164" on="0"/>
        <pt x="360" y="194" on="1"/>
        <pt x="365" y="225" on="0"/>
        <pt x="350" y="271" on="0"/>
        <pt x="317" y="302" on="0"/>
        <pt x="271" y="317" on="0"/>
        <pt x="247" y="317" on="1"/>
        <pt x="207" y="317" on="0"/>
        <pt x="141" y="344" on="0"/>
        <pt x="98" y="393" on="0"/>
        <pt x="80" y="460" on="0"/>
        <pt x="87" y="500" on="1"/>
        <pt x="93" y="537" on="0"/>
        <pt x="129" y="603" on="0"/>
        <pt x="180" y="655" on="0"/>
        <pt x="244" y="690" on="0"/>
        <pt x="278" y="696" on="1"/>
      </contour>
    </TTGlyph>
    <TTGlyph name="e" xMin="30" yMin="-9" xMax="376" yMax="510">
      <contour>
        <pt x="217" y="241" on="1"/>
        <pt x="219" y="241" on="1"/>
        <pt x="237" y="241" on="0"/>
        <pt x="270" y="256" on="0"/>
        <pt x="297" y="281" on="0"/>
        <pt x="315" y="313" on="0"/>
        <pt x="318" y="331" on="1"/>
        <pt x="325" y="373" on="1"/>
        <pt x="329" y="397" on="0"/>
        <pt x="318" y="430" on="0"/>
        <pt x="291" y="450" on="0"/>
        <pt x="254" y="459" on="0"/>
        <pt x="233" y="459" on="1"/>
        <pt x="214" y="459" on="0"/>
        <pt x="177" y="447" on="0"/>
        <pt x="147" y="425" on="0"/>
        <pt x="126" y="393" on="0"/>
        <pt x="122" y="373" on="1"/>
        <pt x="99" y="242" on="1"/>
      </contour>
      <contour>
        <pt x="69" y="368" on="1"/>
        <pt x="74" y="398" on="0"/>
        <pt x="104" y="450" on="0"/>
        <pt x="148" y="488" on="0"/>
        <pt x="201" y="510" on="0"/>
        <pt x="230" y="510" on="1"/>
        <pt x="264" y="510" on="1"/>
        <pt x="292" y="510" on="0"/>
        <pt x="339" y="488" on="0"/>
        <pt x="369" y="450" on="0"/>
        <pt x="382" y="398" on="0"/>
        <pt x="376" y="368" on="1"/>
        <pt x="371" y="335" on="1"/>
        <pt x="363" y="293" on="0"/>
        <pt x="323" y="236" on="0"/>
        <pt x="265" y="200" on="0"/>
        <pt x="193" y="185" on="0"/>
        <pt x="154" y="185" on="1"/>
        <pt x="138" y="185" on="0"/>
        <pt x="106" y="187" on="0"/>
        <pt x="90" y="189" on="1"/>
        <pt x="79" y="129" on="1"/>
        <pt x="79" y="89" on="0"/>
        <pt x="132" y="42" on="0"/>
        <pt x="171" y="42" on="1"/>
        <pt x="175" y="42" on="0"/>
        <pt x="219" y="51" on="0"/>
        <pt x="244" y="56" on="1"/>
        <pt x="273" y="62" on="0"/>
        <pt x="309" y="70" on="1"/>
        <pt x="311" y="17" on="1"/>
        <pt x="273" y="9" on="0"/>
        <pt x="242" y="4" on="1"/>
        <pt x="216" y="-1" on="0"/>
        <pt x="167" y="-9" on="0"/>
        <pt x="162" y="-9" on="1"/>
        <pt x="130" y="-9" on="0"/>
        <pt x="76" y="14" on="0"/>
        <pt x="40" y="56" on="0"/>
        <pt x="24" y="113" on="0"/>
        <pt x="30" y="147" on="1"/>
      </contour>
    </TTGlyph>
    <TTGlyph name="eacute" xMin="30" yMin="-9" xMax="420" yMax="737">
      <component glyphName="e" x="0" y="0" flags="0x1204"/>
      <component glyphName="acute" x="-72" y="0" flags="0x1004"/>
    </TTGlyph>
    <TTGlyph name="ecircumflex" xMin="30" yMin="-9" xMax="392" yMax="751">
      <component glyphName="e" x="0" y="0" flags="0x1204"/>
      <component glyphName="circumflex" x="-43" y="0" flags="0x1004"/>
    </TTGlyph>
    <TTGlyph name="edieresis" xMin="30" yMin="-9" xMax="409" yMax="677">
      <component glyphName="e" x="0" y="0" flags="0x1204"/>
      <component glyphName="dieresis" x="-70" y="0" flags="0x1004"/>
    </TTGlyph>
    <TTGlyph name="egrave" xMin="30" yMin="-9" xMax="376" yMax="736">
      <component glyphName="e" x="0" y="0" flags="0x1204"/>
      <component glyphName="grave" x="-69" y="0" flags="0x1004"/>
    </TTGlyph>
    <TTGlyph name="eight" xMin="38" yMin="-9" xMax="407" yMax="655">
      <contour>
        <pt x="156" y="39" on="1"/>
        <pt x="188" y="39" on="1"/>
        <pt x="223" y="39" on="0"/>
        <pt x="280" y="91" on="0"/>
        <pt x="287" y="128" on="1"/>
        <pt x="300" y="204" on="1"/>
        <pt x="308" y="247" on="0"/>
        <pt x="254" y="288" on="0"/>
        <pt x="214" y="288" on="1"/>
        <pt x="175" y="288" on="0"/>
        <pt x="110" y="248" on="0"/>
        <pt x="102" y="204" on="1"/>
        <pt x="89" y="128" on="1"/>
        <pt x="82" y="91" on="0"/>
        <pt x="121" y="39" on="0"/>
      </contour>
      <contour>
        <pt x="212" y="355" on="1"/>
        <pt x="244" y="355" on="1"/>
        <pt x="279" y="355" on="0"/>
        <pt x="336" y="407" on="0"/>
        <pt x="343" y="444" on="1"/>
        <pt x="357" y="522" on="1"/>
        <pt x="360" y="542" on="0"/>
        <pt x="350" y="573" on="0"/>
        <pt x="328" y="595" on="0"/>
        <pt x="296" y="606" on="0"/>
        <pt x="277" y="606" on="1"/>
        <pt x="256" y="606" on="0"/>
        <pt x="217" y="597" on="0"/>
        <pt x="186" y="578" on="0"/>
        <pt x="163" y="546" on="0"/>
        <pt x="159" y="522" on="1"/>
        <pt x="145" y="444" on="1"/>
        <pt x="138" y="407" on="0"/>
        <pt x="177" y="355" on="0"/>
      </contour>
      <contour>
        <pt x="139" y="323" on="1"/>
        <pt x="113" y="340" on="0"/>
        <pt x="86" y="403" on="0"/>
        <pt x="93" y="441" on="1"/>
        <pt x="108" y="527" on="1"/>
        <pt x="114" y="563" on="0"/>
        <pt x="149" y="612" on="0"/>
        <pt x="198" y="642" on="0"/>
        <pt x="257" y="655" on="0"/>
        <pt x="288" y="655" on="1"/>
        <pt x="316" y="655" on="0"/>
        <pt x="365" y="637" on="0"/>
        <pt x="398" y="604" on="0"/>
        <pt x="413" y="557" on="0"/>
        <pt x="407" y="527" on="1"/>
        <pt x="392" y="441" on="1"/>
        <pt x="385" y="402" on="0"/>
        <pt x="336" y="339" on="0"/>
        <pt x="302" y="322" on="1"/>
        <pt x="331" y="306" on="0"/>
        <pt x="359" y="249" on="0"/>
        <pt x="352" y="210" on="1"/>
        <pt x="337" y="125" on="1"/>
        <pt x="332" y="98" on="0"/>
        <pt x="304" y="49" on="0"/>
        <pt x="264" y="12" on="0"/>
        <pt x="214" y="-9" on="0"/>
        <pt x="188" y="-9" on="1"/>
        <pt x="140" y="-9" on="1"/>
        <pt x="114" y="-9" on="0"/>
        <pt x="72" y="12" on="0"/>
        <pt x="44" y="49" on="0"/>
        <pt x="33" y="98" on="0"/>
        <pt x="38" y="125" on="1"/>
        <pt x="53" y="210" on="1"/>
        <pt x="60" y="248" on="0"/>
        <pt x="107" y="308" on="0"/>
      </contour>
    </TTGlyph>
    <TTGlyph name="ellipsis" xMin="6" yMin="5" xMax="413" yMax="93">
      <contour>
        <pt x="6" y="5" on="1"/>
        <pt x="22" y="93" on="1"/>
        <pt x="91" y="93" on="1"/>
        <pt x="75" y="5" on="1"/>
      </contour>
      <contour>
        <pt x="167" y="5" on="1"/>
        <pt x="183" y="93" on="1"/>
        <pt x="252" y="93" on="1"/>
        <pt x="236" y="5" on="1"/>
      </contour>
      <contour>
        <pt x="328" y="5" on="1"/>
        <pt x="344" y="93" on="1"/>
        <pt x="413" y="93" on="1"/>
        <pt x="397" y="5" on="1"/>
      </contour>
    </TTGlyph>
    <TTGlyph name="emdash" xMin="45" yMin="209" xMax="669" yMax="263">
      <contour>
        <pt x="45" y="209" on="1"/>
        <pt x="55" y="263" on="1"/>
        <pt x="669" y="263" on="1"/>
        <pt x="659" y="209" on="1"/>
      </contour>
    </TTGlyph>
    <TTGlyph name="endash" xMin="45" yMin="209" xMax="398" yMax="263">
      <contour>
        <pt x="45" y="209" on="1"/>
        <pt x="55" y="263" on="1"/>
        <pt x="398" y="263" on="1"/>
        <pt x="388" y="209" on="1"/>
      </contour>
    </TTGlyph>
    <TTGlyph name="equal" xMin="49" yMin="175" xMax="438" yMax="434">
      <contour>
        <pt x="84" y="370" on="1"/>
        <pt x="95" y="434" on="1"/>
        <pt x="438" y="434" on="1"/>
        <pt x="427" y="370" on="1"/>
      </contour>
      <contour>
        <pt x="49" y="175" on="1"/>
        <pt x="61" y="239" on="1"/>
        <pt x="404" y="239" on="1"/>
        <pt x="392" y="175" on="1"/>
      </contour>
    </TTGlyph>
    <TTGlyph name="exclam" xMin="18" yMin="1" xMax="194" yMax="700">
      <contour>
        <pt x="43" y="141" on="1"/>
        <pt x="142" y="700" on="1"/>
        <pt x="194" y="700" on="1"/>
        <pt x="95" y="141" on="1"/>
      </contour>
      <contour>
        <pt x="18" y="1" on="1"/>
        <pt x="34" y="91" on="1"/>
        <pt x="87" y="91" on="1"/>
        <pt x="71" y="1" on="1"/>
      </contour>
    </TTGlyph>
    <TTGlyph name="exclamdown" xMin="19" yMin="1" xMax="194" yMax="700">
      <contour>
        <pt x="169" y="560" on="1"/>
        <pt x="71" y="1" on="1"/>
        <pt x="19" y="1" on="1"/>
        <pt x="117" y="560" on="1"/>
      </contour>
      <contour>
        <pt x="194" y="700" on="1"/>
        <pt x="178" y="610" on="1"/>
        <pt x="125" y="610" on="1"/>
        <pt x="141" y="700" on="1"/>
      </contour>
    </TTGlyph>
    <TTGlyph name="f" xMin="53" yMin="0" xMax="323" yMax="709">
      <contour>
        <pt x="115" y="0" on="1"/>
        <pt x="62" y="0" on="1"/>
        <pt x="141" y="451" on="1"/>
        <pt x="53" y="451" on="1"/>
        <pt x="62" y="500" on="1"/>
        <pt x="151" y="500" on="1"/>
        <pt x="164" y="578" on="1"/>
        <pt x="177" y="648" on="0"/>
        <pt x="255" y="709" on="0"/>
        <pt x="305" y="709" on="1"/>
        <pt x="323" y="709" on="1"/>
        <pt x="313" y="655" on="1"/>
        <pt x="300" y="655" on="1"/>
        <pt x="272" y="655" on="0"/>
        <pt x="224" y="625" on="0"/>
        <pt x="217" y="585" on="1"/>
        <pt x="202" y="500" on="1"/>
        <pt x="298" y="500" on="1"/>
        <pt x="289" y="451" on="1"/>
        <pt x="194" y="451" on="1"/>
      </contour>
    </TTGlyph>
    <TTGlyph name="fi" xMin="53" yMin="0" xMax="471" yMax="709">
      <contour>
        <pt x="418" y="700" on="1"/>
        <pt x="471" y="700" on="1"/>
        <pt x="457" y="622" on="1"/>
        <pt x="404" y="622" on="1"/>
      </contour>
      <contour>
        <pt x="202" y="500" on="1"/>
        <pt x="436" y="500" on="1"/>
        <pt x="348" y="0" on="1"/>
        <pt x="295" y="0" on="1"/>
        <pt x="374" y="451" on="1"/>
        <pt x="194" y="451" on="1"/>
        <pt x="115" y="0" on="1"/>
        <pt x="62" y="0" on="1"/>
        <pt x="141" y="451" on="1"/>
        <pt x="53" y="451" on="1"/>
        <pt x="62" y="500" on="1"/>
        <pt x="151" y="500" on="1"/>
        <pt x="164" y="578" on="1"/>
        <pt x="177" y="648" on="0"/>
        <pt x="255" y="709" on="0"/>
        <pt x="305" y="709" on="1"/>
        <pt x="323" y="709" on="1"/>
        <pt x="313" y="655" on="1"/>
        <pt x="300" y="655" on="1"/>
        <pt x="272" y="655" on="0"/>
        <pt x="224" y="625" on="0"/>
        <pt x="217" y="585" on="1"/>
      </contour>
    </TTGlyph>
    <TTGlyph name="five" xMin="16" yMin="-8" xMax="387" yMax="650">
      <contour>
        <pt x="363" y="195" on="1"/>
        <pt x="355" y="153" on="0"/>
        <pt x="322" y="80" on="0"/>
        <pt x="273" y="24" on="0"/>
        <pt x="207" y="-8" on="0"/>
        <pt x="168" y="-8" on="1"/>
        <pt x="148" y="-8" on="0"/>
        <pt x="95" y="4" on="0"/>
        <pt x="48" y="18" on="0"/>
        <pt x="16" y="31" on="0"/>
        <pt x="16" y="31" on="1"/>
        <pt x="44" y="88" on="1"/>
        <pt x="66" y="77" on="0"/>
        <pt x="90" y="69" on="1"/>
        <pt x="110" y="62" on="0"/>
        <pt x="156" y="51" on="0"/>
        <pt x="176" y="51" on="1"/>
        <pt x="204" y="51" on="0"/>
        <pt x="248" y="74" on="0"/>
        <pt x="280" y="114" on="0"/>
        <pt x="302" y="166" on="0"/>
        <pt x="307" y="195" on="1"/>
        <pt x="312" y="224" on="1"/>
        <pt x="317" y="253" on="0"/>
        <pt x="314" y="305" on="0"/>
        <pt x="295" y="344" on="0"/>
        <pt x="259" y="367" on="0"/>
        <pt x="231" y="367" on="1"/>
        <pt x="77" y="367" on="1"/>
        <pt x="127" y="650" on="1"/>
        <pt x="387" y="650" on="1"/>
        <pt x="378" y="598" on="1"/>
        <pt x="177" y="598" on="1"/>
        <pt x="146" y="421" on="1"/>
        <pt x="242" y="421" on="1"/>
        <pt x="282" y="421" on="0"/>
        <pt x="337" y="391" on="0"/>
        <pt x="368" y="338" on="0"/>
        <pt x="375" y="266" on="0"/>
        <pt x="368" y="224" on="1"/>
        <pt x="363" y="195" on="1"/>
      </contour>
    </TTGlyph>
    <TTGlyph name="fl" xMin="53" yMin="0" xMax="470" yMax="709">
      <contour>
        <pt x="318" y="132" on="1"/>
        <pt x="374" y="451" on="1"/>
        <pt x="194" y="451" on="1"/>
        <pt x="115" y="0" on="1"/>
        <pt x="62" y="0" on="1"/>
        <pt x="141" y="451" on="1"/>
        <pt x="53" y="451" on="1"/>
        <pt x="62" y="500" on="1"/>
        <pt x="151" y="500" on="1"/>
        <pt x="164" y="578" on="1"/>
        <pt x="177" y="648" on="0"/>
        <pt x="255" y="709" on="0"/>
        <pt x="305" y="709" on="1"/>
        <pt x="323" y="709" on="1"/>
        <pt x="313" y="655" on="1"/>
        <pt x="300" y="655" on="1"/>
        <pt x="272" y="655" on="0"/>
        <pt x="224" y="625" on="0"/>
        <pt x="217" y="585" on="1"/>
        <pt x="202" y="500" on="1"/>
        <pt x="383" y="500" on="1"/>
        <pt x="418" y="700" on="1"/>
        <pt x="470" y="700" on="1"/>
        <pt x="369" y="127" on="1"/>
        <pt x="365" y="106" on="0"/>
        <pt x="371" y="79" on="0"/>
        <pt x="388" y="62" on="0"/>
        <pt x="412" y="55" on="0"/>
        <pt x="426" y="55" on="1"/>
        <pt x="439" y="55" on="1"/>
        <pt x="430" y="1" on="1"/>
        <pt x="412" y="1" on="1"/>
        <pt x="387" y="1" on="0"/>
        <pt x="347" y="16" on="0"/>
        <pt x="321" y="47" on="0"/>
        <pt x="312" y="97" on="0"/>
      </contour>
    </TTGlyph>
    <TTGlyph name="four" xMin="16" yMin="0" xMax="352" yMax="650">
      <contour>
        <pt x="235" y="0" on="1"/>
        <pt x="269" y="195" on="1"/>
        <pt x="16" y="195" on="1"/>
        <pt x="26" y="254" on="1"/>
        <pt x="247" y="650" on="1"/>
        <pt x="302" y="650" on="1"/>
        <pt x="83" y="249" on="1"/>
        <pt x="278" y="249" on="1"/>
        <pt x="299" y="363" on="1"/>
        <pt x="352" y="363" on="1"/>
        <pt x="288" y="0" on="1"/>
      </contour>
    </TTGlyph>
    <TTGlyph name="fraction" xMin="-21" yMin="1" xMax="263" yMax="699">
      <contour>
        <pt x="203" y="699" on="1"/>
        <pt x="263" y="699" on="1"/>
        <pt x="39" y="1" on="1"/>
        <pt x="-21" y="1" on="1"/>
      </contour>
    </TTGlyph>
    <TTGlyph name="g" xMin="-36" yMin="-259" xMax="408" yMax="510">
      <contour>
        <pt x="326" y="423" on="1"/>
        <pt x="324" y="432" on="0"/>
        <pt x="297" y="445" on="0"/>
        <pt x="262" y="454" on="0"/>
        <pt x="226" y="459" on="0"/>
        <pt x="217" y="459" on="1"/>
        <pt x="200" y="459" on="0"/>
        <pt x="168" y="445" on="0"/>
        <pt x="142" y="422" on="0"/>
        <pt x="123" y="391" on="0"/>
        <pt x="120" y="373" on="1"/>
        <pt x="77" y="129" on="1"/>
        <pt x="71" y="93" on="0"/>
        <pt x="110" y="42" on="0"/>
        <pt x="145" y="42" on="1"/>
        <pt x="154" y="42" on="0"/>
        <pt x="186" y="47" on="0"/>
        <pt x="222" y="56" on="0"/>
        <pt x="255" y="69" on="0"/>
        <pt x="265" y="77" on="1"/>
      </contour>
      <contour>
        <pt x="282" y="-117" on="1"/>
        <pt x="275" y="-154" on="0"/>
        <pt x="241" y="-208" on="0"/>
        <pt x="192" y="-242" on="0"/>
        <pt x="133" y="-259" on="0"/>
        <pt x="101" y="-259" on="1"/>
        <pt x="86" y="-259" on="0"/>
        <pt x="39" y="-249" on="0"/>
        <pt x="17" y="-243" on="1"/>
        <pt x="-9" y="-236" on="0"/>
        <pt x="-36" y="-227" on="1"/>
        <pt x="-13" y="-180" on="1"/>
        <pt x="13" y="-189" on="0"/>
        <pt x="37" y="-196" on="1"/>
        <pt x="57" y="-202" on="0"/>
        <pt x="98" y="-211" on="0"/>
        <pt x="109" y="-211" on="1"/>
        <pt x="130" y="-211" on="0"/>
        <pt x="171" y="-199" on="0"/>
        <pt x="204" y="-176" on="0"/>
        <pt x="228" y="-141" on="0"/>
        <pt x="232" y="-118" on="1"/>
        <pt x="255" y="16" on="1"/>
        <pt x="217" y="-2" on="0"/>
        <pt x="164" y="-9" on="0"/>
        <pt x="147" y="-9" on="1"/>
        <pt x="136" y="-9" on="1"/>
        <pt x="108" y="-9" on="0"/>
        <pt x="64" y="13" on="0"/>
        <pt x="34" y="52" on="0"/>
        <pt x="23" y="103" on="0"/>
        <pt x="28" y="132" on="1"/>
        <pt x="70" y="369" on="1"/>
        <pt x="75" y="398" on="0"/>
        <pt x="104" y="450" on="0"/>
        <pt x="147" y="488" on="0"/>
        <pt x="199" y="510" on="0"/>
        <pt x="227" y="510" on="1"/>
        <pt x="250" y="510" on="0"/>
        <pt x="309" y="497" on="0"/>
        <pt x="343" y="480" on="1"/>
        <pt x="378" y="510" on="1"/>
        <pt x="408" y="474" on="1"/>
        <pt x="382" y="453" on="1"/>
      </contour>
    </TTGlyph>
    <TTGlyph name="germandbls" xMin="13" yMin="0" xMax="478" yMax="711">
      <contour>
        <pt x="441" y="186" on="1"/>
        <pt x="437" y="163" on="0"/>
        <pt x="412" y="99" on="0"/>
        <pt x="362" y="41" on="0"/>
        <pt x="283" y="0" on="0"/>
        <pt x="226" y="0" on="1"/>
        <pt x="174" y="0" on="1"/>
        <pt x="183" y="54" on="1"/>
        <pt x="233" y="54" on="1"/>
        <pt x="251" y="54" on="0"/>
        <pt x="297" y="63" on="0"/>
        <pt x="342" y="92" on="0"/>
        <pt x="378" y="144" on="0"/>
        <pt x="386" y="186" on="1"/>
        <pt x="394" y="229" on="1"/>
        <pt x="401" y="272" on="0"/>
        <pt x="386" y="324" on="0"/>
        <pt x="354" y="352" on="0"/>
        <pt x="314" y="361" on="0"/>
        <pt x="296" y="361" on="1"/>
        <pt x="273" y="361" on="1"/>
        <pt x="283" y="415" on="1"/>
        <pt x="305" y="415" on="1"/>
        <pt x="309" y="415" on="1"/>
        <pt x="355" y="415" on="0"/>
        <pt x="411" y="474" on="0"/>
        <pt x="420" y="525" on="1"/>
        <pt x="427" y="568" on="0"/>
        <pt x="409" y="620" on="0"/>
        <pt x="375" y="648" on="0"/>
        <pt x="332" y="657" on="0"/>
        <pt x="315" y="657" on="1"/>
        <pt x="297" y="657" on="0"/>
        <pt x="250" y="648" on="0"/>
        <pt x="205" y="620" on="0"/>
        <pt x="167" y="568" on="0"/>
        <pt x="160" y="525" on="1"/>
        <pt x="68" y="0" on="1"/>
        <pt x="13" y="0" on="1"/>
        <pt x="106" y="528" on="1"/>
        <pt x="110" y="550" on="0"/>
        <pt x="135" y="613" on="0"/>
        <pt x="186" y="670" on="0"/>
        <pt x="266" y="711" on="0"/>
        <pt x="325" y="711" on="1"/>
        <pt x="382" y="711" on="0"/>
        <pt x="447" y="670" on="0"/>
        <pt x="476" y="612" on="0"/>
        <pt x="479" y="548" on="0"/>
        <pt x="475" y="526" on="1"/>
        <pt x="468" y="484" on="0"/>
        <pt x="417" y="406" on="0"/>
        <pt x="375" y="392" on="1"/>
        <pt x="406" y="380" on="0"/>
        <pt x="440" y="339" on="0"/>
        <pt x="453" y="293" on="0"/>
        <pt x="452" y="248" on="0"/>
        <pt x="449" y="232" on="1"/>
        <pt x="441" y="186" on="1"/>
      </contour>
    </TTGlyph>
    <TTGlyph name="grave" xMin="229" yMin="589" xMax="361" yMax="736">
      <contour>
        <pt x="309" y="589" on="1"/>
        <pt x="229" y="736" on="1"/>
        <pt x="290" y="736" on="1"/>
        <pt x="361" y="589" on="1"/>
      </contour>
    </TTGlyph>
    <TTGlyph name="greater" xMin="51" yMin="176" xMax="447" yMax="435">
      <contour>
        <pt x="232" y="267" on="1"/>
        <pt x="247" y="270" on="0"/>
        <pt x="294" y="280" on="0"/>
        <pt x="338" y="288" on="0"/>
        <pt x="370" y="295" on="0"/>
        <pt x="370" y="295" on="1"/>
        <pt x="373" y="315" on="1"/>
        <pt x="348" y="321" on="0"/>
        <pt x="324" y="326" on="1"/>
        <pt x="304" y="331" on="0"/>
        <pt x="260" y="340" on="0"/>
        <pt x="246" y="344" on="1"/>
        <pt x="87" y="380" on="1"/>
        <pt x="96" y="435" on="1"/>
        <pt x="447" y="350" on="1"/>
        <pt x="432" y="265" on="1"/>
        <pt x="51" y="176" on="1"/>
        <pt x="60" y="230" on="1"/>
      </contour>
    </TTGlyph>
    <TTGlyph name="h" xMin="13" yMin="0" xMax="376" yMax="700">
      <contour>
        <pt x="261" y="0" on="1"/>
        <pt x="326" y="372" on="1"/>
        <pt x="329" y="390" on="0"/>
        <pt x="322" y="422" on="0"/>
        <pt x="303" y="445" on="0"/>
        <pt x="275" y="459" on="0"/>
        <pt x="258" y="459" on="1"/>
        <pt x="249" y="459" on="0"/>
        <pt x="222" y="456" on="0"/>
        <pt x="190" y="448" on="0"/>
        <pt x="154" y="434" on="0"/>
        <pt x="138" y="424" on="1"/>
        <pt x="64" y="0" on="1"/>
        <pt x="13" y="0" on="1"/>
        <pt x="136" y="700" on="1"/>
        <pt x="186" y="700" on="1"/>
        <pt x="147" y="482" on="1"/>
        <pt x="191" y="503" on="0"/>
        <pt x="250" y="510" on="0"/>
        <pt x="267" y="510" on="1"/>
        <pt x="295" y="510" on="0"/>
        <pt x="339" y="488" on="0"/>
        <pt x="369" y="449" on="0"/>
        <pt x="381" y="398" on="0"/>
        <pt x="376" y="369" on="1"/>
        <pt x="311" y="0" on="1"/>
      </contour>
    </TTGlyph>
    <TTGlyph name="hyphen" xMin="66" yMin="323" xMax="318" yMax="387">
      <contour>
        <pt x="66" y="323" on="1"/>
        <pt x="78" y="387" on="1"/>
        <pt x="318" y="387" on="1"/>
        <pt x="306" y="323" on="1"/>
      </contour>
    </TTGlyph>
    <TTGlyph name="i" xMin="13" yMin="0" xMax="189" yMax="700">
      <contour>
        <pt x="136" y="700" on="1"/>
        <pt x="189" y="700" on="1"/>
        <pt x="175" y="622" on="1"/>
        <pt x="122" y="622" on="1"/>
      </contour>
      <contour>
        <pt x="101" y="500" on="1"/>
        <pt x="154" y="500" on="1"/>
        <pt x="66" y="0" on="1"/>
        <pt x="13" y="0" on="1"/>
      </contour>
    </TTGlyph>
    <TTGlyph name="iacute" xMin="13" yMin="0" xMax="301" yMax="737">
      <contour>
        <pt x="101" y="500" on="1"/>
        <pt x="154" y="500" on="1"/>
        <pt x="66" y="0" on="1"/>
        <pt x="13" y="0" on="1"/>
      </contour>
      <contour>
        <pt x="170" y="590" on="1"/>
        <pt x="118" y="590" on="1"/>
        <pt x="240" y="737" on="1"/>
        <pt x="301" y="737" on="1"/>
      </contour>
    </TTGlyph>
    <TTGlyph name="icircumflex" xMin="13" yMin="0" xMax="278" yMax="751">
      <component glyphName="i" x="0" y="0" flags="0x1204"/>
      <component glyphName="circumflex" x="-157" y="0" flags="0x1004"/>
    </TTGlyph>
    <TTGlyph name="idieresis" xMin="13" yMin="0" xMax="287" yMax="677">
      <contour>
        <pt x="101" y="500" on="1"/>
        <pt x="154" y="500" on="1"/>
        <pt x="66" y="0" on="1"/>
        <pt x="13" y="0" on="1"/>
      </contour>
      <contour>
        <pt x="215" y="600" on="1"/>
        <pt x="229" y="677" on="1"/>
        <pt x="287" y="677" on="1"/>
        <pt x="273" y="600" on="1"/>
      </contour>
      <contour>
        <pt x="17" y="600" on="1"/>
        <pt x="31" y="677" on="1"/>
        <pt x="89" y="677" on="1"/>
        <pt x="75" y="600" on="1"/>
      </contour>
    </TTGlyph>
    <TTGlyph name="igrave" xMin="13" yMin="0" xMax="165" yMax="736">
      <contour>
        <pt x="101" y="500" on="1"/>
        <pt x="154" y="500" on="1"/>
        <pt x="66" y="0" on="1"/>
        <pt x="13" y="0" on="1"/>
      </contour>
      <contour>
        <pt x="113" y="589" on="1"/>
        <pt x="33" y="736" on="1"/>
        <pt x="94" y="736" on="1"/>
        <pt x="165" y="589" on="1"/>
      </contour>
    </TTGlyph>
    <TTGlyph name="j" xMin="-113" yMin="-244" xMax="190" yMax="699">
      <contour>
        <pt x="100" y="501" on="1"/>
        <pt x="155" y="501" on="1"/>
        <pt x="47" y="-113" on="1"/>
        <pt x="34" y="-183" on="0"/>
        <pt x="-45" y="-244" on="0"/>
        <pt x="-95" y="-244" on="1"/>
        <pt x="-113" y="-244" on="1"/>
        <pt x="-103" y="-190" on="1"/>
        <pt x="-90" y="-190" on="1"/>
        <pt x="-61" y="-190" on="0"/>
        <pt x="-14" y="-160" on="0"/>
        <pt x="-6" y="-118" on="1"/>
      </contour>
      <contour>
        <pt x="135" y="699" on="1"/>
        <pt x="190" y="699" on="1"/>
        <pt x="177" y="625" on="1"/>
        <pt x="122" y="625" on="1"/>
      </contour>
    </TTGlyph>
    <TTGlyph name="k" xMin="13" yMin="0" xMax="347" yMax="700">
      <contour>
        <pt x="204" y="0" on="1"/>
        <pt x="139" y="239" on="1"/>
        <pt x="106" y="239" on="1"/>
        <pt x="64" y="0" on="1"/>
        <pt x="13" y="0" on="1"/>
        <pt x="136" y="700" on="1"/>
        <pt x="187" y="700" on="1"/>
        <pt x="116" y="300" on="1"/>
        <pt x="148" y="300" on="1"/>
        <pt x="290" y="499" on="1"/>
        <pt x="347" y="499" on="1"/>
        <pt x="184" y="268" on="1"/>
        <pt x="261" y="0" on="1"/>
      </contour>
    </TTGlyph>
    <TTGlyph name="l" xMin="40" yMin="1" xMax="194" yMax="700">
      <contour>
        <pt x="142" y="700" on="1"/>
        <pt x="194" y="700" on="1"/>
        <pt x="93" y="127" on="1"/>
        <pt x="89" y="106" on="0"/>
        <pt x="95" y="79" on="0"/>
        <pt x="112" y="62" on="0"/>
        <pt x="136" y="55" on="0"/>
        <pt x="150" y="55" on="1"/>
        <pt x="163" y="55" on="1"/>
        <pt x="154" y="1" on="1"/>
        <pt x="136" y="1" on="1"/>
        <pt x="111" y="1" on="0"/>
        <pt x="71" y="16" on="0"/>
        <pt x="45" y="47" on="0"/>
        <pt x="36" y="97" on="0"/>
        <pt x="42" y="132" on="1"/>
      </contour>
    </TTGlyph>
    <TTGlyph name="less" xMin="47" yMin="171" xMax="443" yMax="430">
      <contour>
        <pt x="407" y="225" on="1"/>
        <pt x="398" y="171" on="1"/>
        <pt x="47" y="260" on="1"/>
        <pt x="62" y="345" on="1"/>
        <pt x="443" y="430" on="1"/>
        <pt x="434" y="375" on="1"/>
        <pt x="261" y="339" on="1"/>
        <pt x="245" y="335" on="0"/>
        <pt x="199" y="326" on="0"/>
        <pt x="177" y="321" on="1"/>
        <pt x="151" y="316" on="0"/>
        <pt x="124" y="310" on="1"/>
        <pt x="121" y="290" on="1"/>
        <pt x="121" y="290" on="0"/>
        <pt x="150" y="283" on="0"/>
        <pt x="191" y="275" on="0"/>
        <pt x="235" y="265" on="0"/>
        <pt x="249" y="262" on="1"/>
      </contour>
    </TTGlyph>
    <TTGlyph name="lslash" xMin="8" yMin="1" xMax="361" yMax="700">
      <contour>
        <pt x="164" y="209" on="1"/>
        <pt x="150" y="127" on="1"/>
        <pt x="146" y="106" on="0"/>
        <pt x="152" y="79" on="0"/>
        <pt x="169" y="62" on="0"/>
        <pt x="193" y="55" on="0"/>
        <pt x="207" y="55" on="1"/>
        <pt x="220" y="55" on="1"/>
        <pt x="211" y="1" on="1"/>
        <pt x="193" y="1" on="1"/>
        <pt x="168" y="1" on="0"/>
        <pt x="128" y="16" on="0"/>
        <pt x="102" y="47" on="0"/>
        <pt x="93" y="97" on="0"/>
        <pt x="99" y="132" on="1"/>
        <pt x="112" y="209" on="1"/>
        <pt x="8" y="209" on="1"/>
        <pt x="18" y="263" on="1"/>
        <pt x="122" y="263" on="1"/>
        <pt x="199" y="700" on="1"/>
        <pt x="251" y="700" on="1"/>
        <pt x="174" y="263" on="1"/>
        <pt x="361" y="263" on="1"/>
        <pt x="351" y="209" on="1"/>
      </contour>
    </TTGlyph>
    <TTGlyph name="m" xMin="14" yMin="0" xMax="643" yMax="510">
      <contour>
        <pt x="335" y="376" on="1"/>
        <pt x="338" y="394" on="0"/>
        <pt x="326" y="424" on="0"/>
        <pt x="301" y="446" on="0"/>
        <pt x="267" y="459" on="0"/>
        <pt x="249" y="459" on="1"/>
        <pt x="240" y="459" on="0"/>
        <pt x="210" y="453" on="0"/>
        <pt x="179" y="443" on="0"/>
        <pt x="149" y="431" on="0"/>
        <pt x="139" y="424" on="1"/>
        <pt x="65" y="0" on="1"/>
        <pt x="14" y="0" on="1"/>
        <pt x="93" y="452" on="1"/>
        <pt x="75" y="474" on="1"/>
        <pt x="117" y="509" on="1"/>
        <pt x="142" y="478" on="1"/>
        <pt x="171" y="492" on="0"/>
        <pt x="226" y="510" on="0"/>
        <pt x="251" y="510" on="1"/>
        <pt x="295" y="510" on="0"/>
        <pt x="366" y="472" on="0"/>
        <pt x="374" y="432" on="1"/>
        <pt x="392" y="456" on="0"/>
        <pt x="433" y="486" on="0"/>
        <pt x="475" y="503" on="0"/>
        <pt x="515" y="510" on="0"/>
        <pt x="533" y="510" on="1"/>
        <pt x="569" y="510" on="0"/>
        <pt x="616" y="484" on="0"/>
        <pt x="640" y="443" on="0"/>
        <pt x="646" y="394" on="0"/>
        <pt x="642" y="370" on="1"/>
        <pt x="577" y="0" on="1"/>
        <pt x="525" y="0" on="1"/>
        <pt x="589" y="363" on="1"/>
        <pt x="592" y="382" on="0"/>
        <pt x="589" y="416" on="0"/>
        <pt x="574" y="442" on="0"/>
        <pt x="544" y="458" on="0"/>
        <pt x="520" y="458" on="1"/>
        <pt x="457" y="458" on="0"/>
        <pt x="388" y="387" on="0"/>
        <pt x="377" y="323" on="1"/>
        <pt x="321" y="0" on="1"/>
        <pt x="269" y="0" on="1"/>
      </contour>
    </TTGlyph>
    <TTGlyph name="minus" xMin="63" yMin="251" xMax="417" yMax="315">
      <contour>
        <pt x="63" y="251" on="1"/>
        <pt x="74" y="315" on="1"/>
        <pt x="417" y="315" on="1"/>
        <pt x="406" y="251" on="1"/>
      </contour>
    </TTGlyph>
    <TTGlyph name="mu" xMin="-15" yMin="-208" xMax="416" yMax="502">
      <contour>
        <pt x="-15" y="-208" on="1"/>
        <pt x="45" y="132" on="1"/>
        <pt x="46" y="143" on="0"/>
        <pt x="50" y="165" on="0"/>
        <pt x="52" y="177" on="1"/>
        <pt x="109" y="500" on="1"/>
        <pt x="110" y="500" on="1"/>
        <pt x="110" y="502" on="1"/>
        <pt x="160" y="502" on="1"/>
        <pt x="160" y="500" on="1"/>
        <pt x="161" y="500" on="1"/>
        <pt x="98" y="146" on="1"/>
        <pt x="93" y="120" on="0"/>
        <pt x="102" y="81" on="0"/>
        <pt x="122" y="55" on="0"/>
        <pt x="152" y="41" on="0"/>
        <pt x="169" y="41" on="1"/>
        <pt x="185" y="41" on="0"/>
        <pt x="219" y="47" on="0"/>
        <pt x="251" y="58" on="0"/>
        <pt x="280" y="71" on="0"/>
        <pt x="290" y="77" on="1"/>
        <pt x="365" y="500" on="1"/>
        <pt x="416" y="500" on="1"/>
        <pt x="336" y="50" on="1"/>
        <pt x="355" y="29" on="1"/>
        <pt x="312" y="-7" on="1"/>
        <pt x="288" y="23" on="1"/>
        <pt x="256" y="7" on="0"/>
        <pt x="187" y="-8" on="0"/>
        <pt x="161" y="-8" on="1"/>
        <pt x="137" y="-8" on="0"/>
        <pt x="93" y="7" on="0"/>
        <pt x="76" y="24" on="1"/>
        <pt x="35" y="-208" on="1"/>
      </contour>
    </TTGlyph>
    <TTGlyph name="multiply" xMin="27" yMin="99" xMax="417" yMax="441">
      <contour>
        <pt x="328" y="99" on="1"/>
        <pt x="216" y="235" on="1"/>
        <pt x="56" y="99" on="1"/>
        <pt x="27" y="134" on="1"/>
        <pt x="187" y="270" on="1"/>
        <pt x="75" y="406" on="1"/>
        <pt x="116" y="441" on="1"/>
        <pt x="228" y="305" on="1"/>
        <pt x="388" y="441" on="1"/>
        <pt x="417" y="406" on="1"/>
        <pt x="257" y="270" on="1"/>
        <pt x="369" y="134" on="1"/>
      </contour>
    </TTGlyph>
    <TTGlyph name="n" xMin="14" yMin="0" xMax="386" yMax="509">
      <contour>
        <pt x="380" y="427" on="1"/>
        <pt x="388" y="402" on="0"/>
        <pt x="383" y="351" on="0"/>
        <pt x="378" y="324" on="1"/>
        <pt x="321" y="0" on="1"/>
        <pt x="268" y="0" on="1"/>
        <pt x="330" y="355" on="1"/>
        <pt x="339" y="406" on="0"/>
        <pt x="295" y="460" on="0"/>
        <pt x="261" y="460" on="1"/>
        <pt x="242" y="460" on="0"/>
        <pt x="181" y="448" on="0"/>
        <pt x="139" y="424" on="1"/>
        <pt x="65" y="0" on="1"/>
        <pt x="14" y="0" on="1"/>
        <pt x="93" y="451" on="1"/>
        <pt x="75" y="472" on="1"/>
        <pt x="117" y="508" on="1"/>
        <pt x="142" y="478" on="1"/>
        <pt x="201" y="509" on="0"/>
        <pt x="251" y="509" on="1"/>
        <pt x="296" y="509" on="0"/>
        <pt x="368" y="472" on="0"/>
      </contour>
    </TTGlyph>
    <TTGlyph name="nine" xMin="14" yMin="-11" xMax="399" yMax="656">
      <contour>
        <pt x="195" y="299" on="1"/>
        <pt x="227" y="299" on="1"/>
        <pt x="261" y="299" on="0"/>
        <pt x="318" y="350" on="0"/>
        <pt x="325" y="386" on="1"/>
        <pt x="349" y="523" on="1"/>
        <pt x="352" y="543" on="0"/>
        <pt x="342" y="574" on="0"/>
        <pt x="320" y="595" on="0"/>
        <pt x="288" y="606" on="0"/>
        <pt x="270" y="606" on="1"/>
        <pt x="249" y="606" on="0"/>
        <pt x="211" y="598" on="0"/>
        <pt x="179" y="578" on="0"/>
        <pt x="157" y="547" on="0"/>
        <pt x="153" y="523" on="1"/>
        <pt x="129" y="386" on="1"/>
        <pt x="122" y="350" on="0"/>
        <pt x="160" y="299" on="0"/>
      </contour>
      <contour>
        <pt x="258" y="656" on="1"/>
        <pt x="291" y="656" on="1"/>
        <pt x="318" y="656" on="0"/>
        <pt x="363" y="635" on="0"/>
        <pt x="392" y="598" on="0"/>
        <pt x="404" y="548" on="0"/>
        <pt x="399" y="519" on="1"/>
        <pt x="332" y="141" on="1"/>
        <pt x="326" y="108" on="0"/>
        <pt x="292" y="52" on="0"/>
        <pt x="243" y="11" on="0"/>
        <pt x="183" y="-11" on="0"/>
        <pt x="151" y="-11" on="1"/>
        <pt x="146" y="-11" on="0"/>
        <pt x="101" y="-1" on="0"/>
        <pt x="77" y="5" on="1"/>
        <pt x="48" y="12" on="0"/>
        <pt x="14" y="21" on="1"/>
        <pt x="36" y="68" on="1"/>
        <pt x="68" y="59" on="0"/>
        <pt x="94" y="53" on="1"/>
        <pt x="116" y="47" on="0"/>
        <pt x="155" y="38" on="0"/>
        <pt x="159" y="38" on="1"/>
        <pt x="180" y="38" on="0"/>
        <pt x="221" y="53" on="0"/>
        <pt x="255" y="80" on="0"/>
        <pt x="279" y="118" on="0"/>
        <pt x="283" y="141" on="1"/>
        <pt x="307" y="276" on="1"/>
        <pt x="296" y="267" on="0"/>
        <pt x="262" y="256" on="0"/>
        <pt x="227" y="250" on="0"/>
        <pt x="195" y="248" on="0"/>
        <pt x="186" y="248" on="1"/>
        <pt x="158" y="248" on="0"/>
        <pt x="114" y="270" on="0"/>
        <pt x="85" y="309" on="0"/>
        <pt x="73" y="360" on="0"/>
        <pt x="78" y="389" on="1"/>
        <pt x="101" y="519" on="1"/>
        <pt x="106" y="548" on="0"/>
        <pt x="136" y="598" on="0"/>
        <pt x="178" y="635" on="0"/>
        <pt x="230" y="656" on="0"/>
      </contour>
    </TTGlyph>
    <TTGlyph name="ntilde" xMin="14" yMin="0" xMax="415" yMax="655">
      <component glyphName="n" x="0" y="0" flags="0x1204"/>
      <component glyphName="tilde" x="-88" y="0" flags="0x1004"/>
    </TTGlyph>
    <TTGlyph name="o" xMin="30" yMin="-6" xMax="376" yMax="510">
      <contour>
        <pt x="291" y="144" on="1"/>
        <pt x="329" y="361" on="1"/>
        <pt x="335" y="394" on="0"/>
        <pt x="318" y="433" on="0"/>
        <pt x="288" y="454" on="0"/>
        <pt x="253" y="461" on="0"/>
        <pt x="240" y="461" on="1"/>
        <pt x="227" y="461" on="0"/>
        <pt x="188" y="454" on="0"/>
        <pt x="151" y="433" on="0"/>
        <pt x="120" y="394" on="0"/>
        <pt x="114" y="361" on="1"/>
        <pt x="76" y="144" on="1"/>
        <pt x="70" y="111" on="0"/>
        <pt x="87" y="72" on="0"/>
        <pt x="117" y="50" on="0"/>
        <pt x="153" y="43" on="0"/>
        <pt x="166" y="43" on="1"/>
        <pt x="179" y="43" on="0"/>
        <pt x="217" y="50" on="0"/>
        <pt x="255" y="72" on="0"/>
        <pt x="285" y="111" on="0"/>
      </contour>
      <contour>
        <pt x="336" y="137" on="1"/>
        <pt x="328" y="91" on="0"/>
        <pt x="284" y="35" on="0"/>
        <pt x="230" y="4" on="0"/>
        <pt x="176" y="-6" on="0"/>
        <pt x="157" y="-6" on="1"/>
        <pt x="138" y="-6" on="0"/>
        <pt x="88" y="4" on="0"/>
        <pt x="45" y="35" on="0"/>
        <pt x="22" y="91" on="0"/>
        <pt x="30" y="137" on="1"/>
        <pt x="70" y="368" on="1"/>
        <pt x="78" y="414" on="0"/>
        <pt x="122" y="470" on="0"/>
        <pt x="175" y="500" on="0"/>
        <pt x="229" y="510" on="0"/>
        <pt x="248" y="510" on="1"/>
        <pt x="267" y="510" on="0"/>
        <pt x="318" y="500" on="0"/>
        <pt x="360" y="470" on="0"/>
        <pt x="384" y="414" on="0"/>
        <pt x="376" y="368" on="1"/>
      </contour>
    </TTGlyph>
    <TTGlyph name="oacute" xMin="31" yMin="-6" xMax="416" yMax="737">
      <component glyphName="o" x="1" y="0" flags="0x1204"/>
      <component glyphName="acute" x="-76" y="0" flags="0x1004"/>
    </TTGlyph>
    <TTGlyph name="ocircumflex" xMin="31" yMin="-6" xMax="398" yMax="751">
      <component glyphName="o" x="1" y="0" flags="0x1204"/>
      <component glyphName="circumflex" x="-37" y="0" flags="0x1004"/>
    </TTGlyph>
    <TTGlyph name="odieresis" xMin="31" yMin="-6" xMax="407" yMax="677">
      <component glyphName="o" x="1" y="0" flags="0x1204"/>
      <component glyphName="dieresis" x="-72" y="0" flags="0x1004"/>
    </TTGlyph>
    <TTGlyph name="oe" xMin="29" yMin="-9" xMax="637" yMax="510">
      <contour>
        <pt x="291" y="142" on="1"/>
        <pt x="329" y="359" on="1"/>
        <pt x="335" y="392" on="0"/>
        <pt x="318" y="431" on="0"/>
        <pt x="288" y="452" on="0"/>
        <pt x="252" y="459" on="0"/>
        <pt x="239" y="459" on="1"/>
        <pt x="226" y="459" on="0"/>
        <pt x="188" y="452" on="0"/>
        <pt x="150" y="431" on="0"/>
        <pt x="120" y="392" on="0"/>
        <pt x="114" y="359" on="1"/>
        <pt x="76" y="142" on="1"/>
        <pt x="70" y="109" on="0"/>
        <pt x="87" y="70" on="0"/>
        <pt x="117" y="48" on="0"/>
        <pt x="153" y="41" on="0"/>
        <pt x="166" y="41" on="1"/>
        <pt x="179" y="41" on="0"/>
        <pt x="217" y="48" on="0"/>
        <pt x="254" y="70" on="0"/>
        <pt x="285" y="109" on="0"/>
      </contour>
      <contour>
        <pt x="335" y="135" on="1"/>
        <pt x="327" y="89" on="0"/>
        <pt x="284" y="33" on="0"/>
        <pt x="230" y="2" on="0"/>
        <pt x="176" y="-8" on="0"/>
        <pt x="157" y="-8" on="1"/>
        <pt x="138" y="-8" on="0"/>
        <pt x="88" y="2" on="0"/>
        <pt x="45" y="33" on="0"/>
        <pt x="21" y="89" on="0"/>
        <pt x="29" y="135" on="1"/>
        <pt x="70" y="366" on="1"/>
        <pt x="78" y="412" on="0"/>
        <pt x="122" y="468" on="0"/>
        <pt x="175" y="498" on="0"/>
        <pt x="229" y="508" on="0"/>
        <pt x="248" y="508" on="1"/>
        <pt x="267" y="508" on="0"/>
        <pt x="318" y="498" on="0"/>
        <pt x="360" y="468" on="0"/>
        <pt x="384" y="412" on="0"/>
        <pt x="376" y="366" on="1"/>
      </contour>
      <contour>
        <pt x="478" y="241" on="1"/>
        <pt x="480" y="241" on="1"/>
        <pt x="498" y="241" on="0"/>
        <pt x="531" y="256" on="0"/>
        <pt x="558" y="281" on="0"/>
        <pt x="576" y="313" on="0"/>
        <pt x="579" y="331" on="1"/>
        <pt x="586" y="373" on="1"/>
        <pt x="590" y="397" on="0"/>
        <pt x="579" y="430" on="0"/>
        <pt x="552" y="450" on="0"/>
        <pt x="515" y="459" on="0"/>
        <pt x="494" y="459" on="1"/>
        <pt x="475" y="459" on="0"/>
        <pt x="438" y="447" on="0"/>
        <pt x="408" y="425" on="0"/>
        <pt x="387" y="393" on="0"/>
        <pt x="383" y="373" on="1"/>
        <pt x="360" y="242" on="1"/>
      </contour>
      <contour>
        <pt x="330" y="368" on="1"/>
        <pt x="335" y="398" on="0"/>
        <pt x="365" y="450" on="0"/>
        <pt x="409" y="488" on="0"/>
        <pt x="462" y="510" on="0"/>
        <pt x="491" y="510" on="1"/>
        <pt x="525" y="510" on="1"/>
        <pt x="553" y="510" on="0"/>
        <pt x="600" y="488" on="0"/>
        <pt x="630" y="450" on="0"/>
        <pt x="643" y="398" on="0"/>
        <pt x="637" y="368" on="1"/>
        <pt x="632" y="335" on="1"/>
        <pt x="624" y="293" on="0"/>
        <pt x="584" y="236" on="0"/>
        <pt x="526" y="200" on="0"/>
        <pt x="454" y="185" on="0"/>
        <pt x="415" y="185" on="1"/>
        <pt x="399" y="185" on="0"/>
        <pt x="367" y="187" on="0"/>
        <pt x="351" y="189" on="1"/>
        <pt x="340" y="129" on="1"/>
        <pt x="340" y="89" on="0"/>
        <pt x="393" y="42" on="0"/>
        <pt x="432" y="42" on="1"/>
        <pt x="442" y="42" on="0"/>
        <pt x="488" y="50" on="0"/>
        <pt x="511" y="55" on="1"/>
        <pt x="538" y="61" on="0"/>
        <pt x="570" y="69" on="1"/>
        <pt x="572" y="17" on="1"/>
        <pt x="539" y="9" on="0"/>
        <pt x="510" y="4" on="1"/>
        <pt x="485" y="-1" on="0"/>
        <pt x="436" y="-9" on="0"/>
        <pt x="423" y="-9" on="1"/>
        <pt x="391" y="-9" on="0"/>
        <pt x="337" y="14" on="0"/>
        <pt x="301" y="56" on="0"/>
        <pt x="285" y="113" on="0"/>
        <pt x="291" y="147" on="1"/>
      </contour>
    </TTGlyph>
    <TTGlyph name="ograve" xMin="30" yMin="-6" xMax="376" yMax="736">
      <component glyphName="o" x="0" y="0" flags="0x1204"/>
      <component glyphName="grave" x="-72" y="0" flags="0x1004"/>
    </TTGlyph>
    <TTGlyph name="one" xMin="28" yMin="1" xMax="195" yMax="650">
      <contour>
        <pt x="137" y="623" on="1"/>
        <pt x="195" y="650" on="1"/>
        <pt x="81" y="1" on="1"/>
        <pt x="28" y="1" on="1"/>
      </contour>
    </TTGlyph>
    <TTGlyph name="oslash" xMin="30" yMin="-88" xMax="376" yMax="610">
      <component glyphName="o" x="0" y="0" flags="0x1204"/>
      <component glyphName="slash" x="63" y="-89" flags="0x1004"/>
    </TTGlyph>
    <TTGlyph name="otilde" xMin="31" yMin="-6" xMax="416" yMax="655">
      <component glyphName="o" x="1" y="0" flags="0x1204"/>
      <component glyphName="tilde" x="-87" y="0" flags="0x1004"/>
    </TTGlyph>
    <TTGlyph name="p" xMin="-30" yMin="-250" xMax="378" yMax="510">
      <contour>
        <pt x="79" y="76" on="1"/>
        <pt x="89" y="68" on="0"/>
        <pt x="119" y="56" on="0"/>
        <pt x="150" y="46" on="0"/>
        <pt x="178" y="41" on="0"/>
        <pt x="187" y="41" on="1"/>
        <pt x="204" y="41" on="0"/>
        <pt x="237" y="55" on="0"/>
        <pt x="264" y="78" on="0"/>
        <pt x="282" y="110" on="0"/>
        <pt x="285" y="128" on="1"/>
        <pt x="328" y="373" on="1"/>
        <pt x="331" y="391" on="0"/>
        <pt x="324" y="422" on="0"/>
        <pt x="306" y="445" on="0"/>
        <pt x="278" y="459" on="0"/>
        <pt x="261" y="459" on="1"/>
        <pt x="242" y="459" on="0"/>
        <pt x="173" y="444" on="0"/>
        <pt x="140" y="423" on="1"/>
      </contour>
      <contour>
        <pt x="68" y="18" on="1"/>
        <pt x="20" y="-250" on="1"/>
        <pt x="-30" y="-250" on="1"/>
        <pt x="94" y="453" on="1"/>
        <pt x="76" y="474" on="1"/>
        <pt x="117" y="510" on="1"/>
        <pt x="143" y="480" on="1"/>
        <pt x="180" y="497" on="0"/>
        <pt x="246" y="510" on="0"/>
        <pt x="269" y="510" on="1"/>
        <pt x="297" y="510" on="0"/>
        <pt x="341" y="488" on="0"/>
        <pt x="371" y="450" on="0"/>
        <pt x="383" y="398" on="0"/>
        <pt x="378" y="369" on="1"/>
        <pt x="336" y="131" on="1"/>
        <pt x="331" y="102" on="0"/>
        <pt x="301" y="51" on="0"/>
        <pt x="258" y="12" on="0"/>
        <pt x="206" y="-10" on="0"/>
        <pt x="178" y="-10" on="1"/>
        <pt x="161" y="-10" on="0"/>
        <pt x="104" y="-3" on="0"/>
      </contour>
    </TTGlyph>
    <TTGlyph name="parenleft" xMin="24" yMin="-49" xMax="279" yMax="750">
      <contour>
        <pt x="25" y="82" on="1"/>
        <pt x="120" y="619" on="1"/>
        <pt x="126" y="654" on="0"/>
        <pt x="153" y="704" on="0"/>
        <pt x="190" y="735" on="0"/>
        <pt x="236" y="750" on="0"/>
        <pt x="261" y="750" on="1"/>
        <pt x="279" y="750" on="1"/>
        <pt x="269" y="696" on="1"/>
        <pt x="256" y="696" on="1"/>
        <pt x="227" y="696" on="0"/>
        <pt x="181" y="666" on="0"/>
        <pt x="174" y="624" on="1"/>
        <pt x="77" y="77" on="1"/>
        <pt x="73" y="56" on="0"/>
        <pt x="79" y="29" on="0"/>
        <pt x="96" y="12" on="0"/>
        <pt x="120" y="5" on="0"/>
        <pt x="134" y="5" on="1"/>
        <pt x="147" y="5" on="1"/>
        <pt x="138" y="-49" on="1"/>
        <pt x="120" y="-49" on="1"/>
        <pt x="95" y="-49" on="0"/>
        <pt x="55" y="-34" on="0"/>
        <pt x="29" y="-3" on="0"/>
        <pt x="19" y="47" on="0"/>
      </contour>
    </TTGlyph>
    <TTGlyph name="parenright" xMin="-27" yMin="-50" xMax="229" yMax="750">
      <contour>
        <pt x="132" y="81" on="1"/>
        <pt x="119" y="11" on="0"/>
        <pt x="41" y="-50" on="0"/>
        <pt x="-9" y="-50" on="1"/>
        <pt x="-27" y="-50" on="1"/>
        <pt x="-18" y="4" on="1"/>
        <pt x="-5" y="4" on="1"/>
        <pt x="24" y="4" on="0"/>
        <pt x="70" y="34" on="0"/>
        <pt x="78" y="76" on="1"/>
        <pt x="176" y="624" on="1"/>
        <pt x="179" y="645" on="0"/>
        <pt x="173" y="672" on="0"/>
        <pt x="156" y="689" on="0"/>
        <pt x="132" y="696" on="0"/>
        <pt x="118" y="696" on="1"/>
        <pt x="105" y="696" on="1"/>
        <pt x="115" y="750" on="1"/>
        <pt x="133" y="750" on="1"/>
        <pt x="158" y="750" on="0"/>
        <pt x="198" y="735" on="0"/>
        <pt x="224" y="704" on="0"/>
        <pt x="234" y="654" on="0"/>
        <pt x="228" y="619" on="1"/>
        <pt x="132" y="81" on="1"/>
      </contour>
    </TTGlyph>
    <TTGlyph name="period" xMin="6" yMin="5" xMax="91" yMax="93">
      <contour>
        <pt x="6" y="5" on="1"/>
        <pt x="22" y="93" on="1"/>
        <pt x="91" y="93" on="1"/>
        <pt x="75" y="5" on="1"/>
      </contour>
    </TTGlyph>
    <TTGlyph name="plus" xMin="34" yMin="98" xMax="384" yMax="437">
      <contour>
        <pt x="373" y="235" on="1"/>
        <pt x="236" y="235" on="1"/>
        <pt x="212" y="98" on="1"/>
        <pt x="147" y="98" on="1"/>
        <pt x="171" y="235" on="1"/>
        <pt x="34" y="235" on="1"/>
        <pt x="45" y="300" on="1"/>
        <pt x="182" y="300" on="1"/>
        <pt x="207" y="437" on="1"/>
        <pt x="272" y="437" on="1"/>
        <pt x="247" y="300" on="1"/>
        <pt x="384" y="300" on="1"/>
      </contour>
    </TTGlyph>
    <TTGlyph name="q" xMin="28" yMin="-250" xMax="408" yMax="509">
      <contour>
        <pt x="326" y="422" on="1"/>
        <pt x="292" y="447" on="0"/>
        <pt x="236" y="458" on="0"/>
        <pt x="217" y="458" on="1"/>
        <pt x="200" y="458" on="0"/>
        <pt x="168" y="444" on="0"/>
        <pt x="141" y="421" on="0"/>
        <pt x="123" y="390" on="0"/>
        <pt x="120" y="372" on="1"/>
        <pt x="77" y="128" on="1"/>
        <pt x="71" y="92" on="0"/>
        <pt x="110" y="42" on="0"/>
        <pt x="145" y="42" on="1"/>
        <pt x="154" y="42" on="0"/>
        <pt x="183" y="46" on="0"/>
        <pt x="216" y="54" on="0"/>
        <pt x="251" y="67" on="0"/>
        <pt x="265" y="77" on="1"/>
      </contour>
      <contour>
        <pt x="235" y="7" on="1"/>
        <pt x="204" y="-7" on="0"/>
        <pt x="156" y="-9" on="0"/>
        <pt x="139" y="-10" on="1"/>
        <pt x="111" y="-10" on="0"/>
        <pt x="66" y="12" on="0"/>
        <pt x="35" y="51" on="0"/>
        <pt x="23" y="102" on="0"/>
        <pt x="28" y="131" on="1"/>
        <pt x="69" y="368" on="1"/>
        <pt x="74" y="397" on="0"/>
        <pt x="104" y="449" on="0"/>
        <pt x="147" y="487" on="0"/>
        <pt x="199" y="509" on="0"/>
        <pt x="227" y="509" on="1"/>
        <pt x="249" y="509" on="0"/>
        <pt x="312" y="496" on="0"/>
        <pt x="343" y="479" on="1"/>
        <pt x="379" y="509" on="1"/>
        <pt x="408" y="473" on="1"/>
        <pt x="382" y="452" on="1"/>
        <pt x="258" y="-250" on="1"/>
        <pt x="208" y="-250" on="1"/>
        <pt x="255" y="16" on="1"/>
      </contour>
    </TTGlyph>
    <TTGlyph name="question" xMin="75" yMin="0" xMax="429" yMax="710">
      <contour>
        <pt x="144" y="0" on="1"/>
        <pt x="159" y="90" on="1"/>
        <pt x="90" y="90" on="1"/>
        <pt x="75" y="0" on="1"/>
      </contour>
      <contour>
        <pt x="429" y="539" on="1"/>
        <pt x="423" y="507" on="0"/>
        <pt x="396" y="461" on="0"/>
        <pt x="382" y="444" on="1"/>
        <pt x="201" y="229" on="1"/>
        <pt x="189" y="215" on="0"/>
        <pt x="169" y="184" on="0"/>
        <pt x="165" y="161" on="1"/>
        <pt x="161" y="140" on="1"/>
        <pt x="103" y="140" on="1"/>
        <pt x="107" y="160" on="1"/>
        <pt x="113" y="195" on="0"/>
        <pt x="138" y="241" on="0"/>
        <pt x="153" y="258" on="1"/>
        <pt x="325" y="462" on="1"/>
        <pt x="339" y="479" on="0"/>
        <pt x="368" y="519" on="0"/>
        <pt x="371" y="538" on="1"/>
        <pt x="376" y="564" on="0"/>
        <pt x="357" y="606" on="0"/>
        <pt x="323" y="635" on="0"/>
        <pt x="281" y="651" on="0"/>
        <pt x="263" y="651" on="1"/>
        <pt x="251" y="651" on="0"/>
        <pt x="225" y="645" on="0"/>
        <pt x="212" y="640" on="1"/>
        <pt x="108" y="603" on="1"/>
        <pt x="98" y="657" on="1"/>
        <pt x="189" y="692" on="1"/>
        <pt x="207" y="699" on="0"/>
        <pt x="257" y="710" on="0"/>
        <pt x="273" y="710" on="1"/>
        <pt x="309" y="710" on="0"/>
        <pt x="372" y="685" on="0"/>
        <pt x="416" y="640" on="0"/>
        <pt x="436" y="577" on="0"/>
      </contour>
    </TTGlyph>
    <TTGlyph name="questiondown" xMin="-28" yMin="-247" xMax="325" yMax="463">
      <contour>
        <pt x="325" y="463" on="1"/>
        <pt x="309" y="373" on="1"/>
        <pt x="240" y="373" on="1"/>
        <pt x="256" y="463" on="1"/>
      </contour>
      <contour>
        <pt x="-28" y="-76" on="1"/>
        <pt x="-23" y="-44" on="0"/>
        <pt x="4" y="2" on="0"/>
        <pt x="18" y="19" on="1"/>
        <pt x="199" y="234" on="1"/>
        <pt x="211" y="248" on="0"/>
        <pt x="230" y="279" on="0"/>
        <pt x="235" y="302" on="1"/>
        <pt x="238" y="323" on="1"/>
        <pt x="296" y="323" on="1"/>
        <pt x="293" y="303" on="1"/>
        <pt x="287" y="268" on="0"/>
        <pt x="262" y="222" on="0"/>
        <pt x="247" y="205" on="1"/>
        <pt x="75" y="1" on="1"/>
        <pt x="61" y="-16" on="0"/>
        <pt x="32" y="-56" on="0"/>
        <pt x="28" y="-75" on="1"/>
        <pt x="23" y="-101" on="0"/>
        <pt x="42" y="-143" on="0"/>
        <pt x="76" y="-172" on="0"/>
        <pt x="118" y="-188" on="0"/>
        <pt x="136" y="-188" on="1"/>
        <pt x="148" y="-188" on="0"/>
        <pt x="174" y="-182" on="0"/>
        <pt x="187" y="-177" on="1"/>
        <pt x="292" y="-140" on="1"/>
        <pt x="301" y="-194" on="1"/>
        <pt x="211" y="-229" on="1"/>
        <pt x="193" y="-236" on="0"/>
        <pt x="143" y="-247" on="0"/>
        <pt x="127" y="-247" on="1"/>
        <pt x="91" y="-247" on="0"/>
        <pt x="28" y="-222" on="0"/>
        <pt x="-15" y="-177" on="0"/>
        <pt x="-35" y="-114" on="0"/>
      </contour>
    </TTGlyph>
    <TTGlyph name="quotedbl" xMin="86" yMin="508" xMax="341" yMax="700">
      <contour>
        <pt x="332" y="648" on="1"/>
        <pt x="322" y="592" on="0"/>
        <pt x="265" y="524" on="0"/>
        <pt x="223" y="508" on="1"/>
        <pt x="217" y="568" on="1"/>
        <pt x="236" y="576" on="0"/>
        <pt x="267" y="613" on="0"/>
        <pt x="274" y="649" on="1"/>
        <pt x="283" y="700" on="1"/>
        <pt x="341" y="700" on="1"/>
      </contour>
      <contour>
        <pt x="201" y="648" on="1"/>
        <pt x="191" y="592" on="0"/>
        <pt x="134" y="524" on="0"/>
        <pt x="92" y="508" on="1"/>
        <pt x="86" y="568" on="1"/>
        <pt x="105" y="576" on="0"/>
        <pt x="136" y="613" on="0"/>
        <pt x="143" y="649" on="1"/>
        <pt x="152" y="700" on="1"/>
        <pt x="210" y="700" on="1"/>
      </contour>
    </TTGlyph>
    <TTGlyph name="quotedblleft" xMin="87" yMin="510" xMax="343" yMax="702">
      <contour>
        <pt x="97" y="562" on="1"/>
        <pt x="107" y="618" on="0"/>
        <pt x="164" y="686" on="0"/>
        <pt x="205" y="702" on="1"/>
        <pt x="212" y="642" on="1"/>
        <pt x="193" y="634" on="0"/>
        <pt x="161" y="597" on="0"/>
        <pt x="154" y="561" on="1"/>
        <pt x="145" y="510" on="1"/>
        <pt x="87" y="510" on="1"/>
      </contour>
      <contour>
        <pt x="228" y="562" on="1"/>
        <pt x="238" y="618" on="0"/>
        <pt x="295" y="686" on="0"/>
        <pt x="336" y="702" on="1"/>
        <pt x="343" y="642" on="1"/>
        <pt x="324" y="634" on="0"/>
        <pt x="292" y="597" on="0"/>
        <pt x="285" y="561" on="1"/>
        <pt x="276" y="510" on="1"/>
        <pt x="218" y="510" on="1"/>
      </contour>
    </TTGlyph>
    <TTGlyph name="quotedblright" xMin="86" yMin="508" xMax="341" yMax="700">
      <contour>
        <pt x="332" y="648" on="1"/>
        <pt x="322" y="592" on="0"/>
        <pt x="265" y="524" on="0"/>
        <pt x="223" y="508" on="1"/>
        <pt x="217" y="568" on="1"/>
        <pt x="236" y="576" on="0"/>
        <pt x="267" y="613" on="0"/>
        <pt x="274" y="649" on="1"/>
        <pt x="283" y="700" on="1"/>
        <pt x="341" y="700" on="1"/>
      </contour>
      <contour>
        <pt x="201" y="648" on="1"/>
        <pt x="191" y="592" on="0"/>
        <pt x="134" y="524" on="0"/>
        <pt x="92" y="508" on="1"/>
        <pt x="86" y="568" on="1"/>
        <pt x="105" y="576" on="0"/>
        <pt x="136" y="613" on="0"/>
        <pt x="143" y="649" on="1"/>
        <pt x="152" y="700" on="1"/>
        <pt x="210" y="700" on="1"/>
      </contour>
    </TTGlyph>
    <TTGlyph name="quotesinglbase" xMin="55" yMin="309" xMax="179" yMax="501">
      <contour>
        <pt x="170" y="449" on="1"/>
        <pt x="160" y="393" on="0"/>
        <pt x="103" y="325" on="0"/>
        <pt x="61" y="309" on="1"/>
        <pt x="55" y="369" on="1"/>
        <pt x="74" y="377" on="0"/>
        <pt x="105" y="414" on="0"/>
        <pt x="112" y="450" on="1"/>
        <pt x="121" y="501" on="1"/>
        <pt x="179" y="501" on="1"/>
        <pt x="170" y="449" on="1"/>
      </contour>
    </TTGlyph>
    <TTGlyph name="quotesingle" xMin="86" yMin="508" xMax="210" yMax="700">
      <contour>
        <pt x="201" y="648" on="1"/>
        <pt x="191" y="592" on="0"/>
        <pt x="134" y="524" on="0"/>
        <pt x="92" y="508" on="1"/>
        <pt x="86" y="568" on="1"/>
        <pt x="105" y="576" on="0"/>
        <pt x="136" y="613" on="0"/>
        <pt x="143" y="649" on="1"/>
        <pt x="152" y="700" on="1"/>
        <pt x="210" y="700" on="1"/>
        <pt x="201" y="648" on="1"/>
      </contour>
    </TTGlyph>
    <TTGlyph name="r" xMin="16" yMin="1" xMax="354" yMax="510">
      <contour>
        <pt x="354" y="470" on="1"/>
        <pt x="319" y="428" on="1"/>
        <pt x="304" y="438" on="0"/>
        <pt x="284" y="449" on="0"/>
        <pt x="266" y="455" on="0"/>
        <pt x="249" y="456" on="0"/>
        <pt x="239" y="456" on="1"/>
        <pt x="224" y="456" on="0"/>
        <pt x="169" y="439" on="0"/>
        <pt x="139" y="415" on="1"/>
        <pt x="66" y="1" on="1"/>
        <pt x="16" y="1" on="1"/>
        <pt x="94" y="443" on="1"/>
        <pt x="72" y="469" on="1"/>
        <pt x="114" y="505" on="1"/>
        <pt x="143" y="471" on="1"/>
        <pt x="177" y="497" on="0"/>
        <pt x="231" y="510" on="0"/>
        <pt x="250" y="510" on="1"/>
        <pt x="270" y="510" on="0"/>
        <pt x="316" y="494" on="0"/>
      </contour>
    </TTGlyph>
    <TTGlyph name="registered" xMin="52" yMin="-6" xMax="769" yMax="712">
      <contour>
        <pt x="769" y="353" on="1"/>
        <pt x="756" y="279" on="0"/>
        <pt x="676" y="148" on="0"/>
        <pt x="562" y="50" on="0"/>
        <pt x="421" y="-6" on="0"/>
        <pt x="347" y="-6" on="1"/>
        <pt x="273" y="-6" on="0"/>
        <pt x="152" y="50" on="0"/>
        <pt x="72" y="148" on="0"/>
        <pt x="39" y="279" on="0"/>
        <pt x="52" y="353" on="1"/>
        <pt x="65" y="427" on="0"/>
        <pt x="145" y="558" on="0"/>
        <pt x="259" y="655" on="0"/>
        <pt x="400" y="712" on="0"/>
        <pt x="474" y="712" on="1"/>
        <pt x="548" y="712" on="0"/>
        <pt x="669" y="655" on="0"/>
        <pt x="749" y="558" on="0"/>
        <pt x="782" y="427" on="0"/>
      </contour>
      <contour>
        <pt x="719" y="353" on="1"/>
        <pt x="730" y="417" on="0"/>
        <pt x="701" y="530" on="0"/>
        <pt x="632" y="614" on="0"/>
        <pt x="529" y="662" on="0"/>
        <pt x="465" y="662" on="1"/>
        <pt x="401" y="662" on="0"/>
        <pt x="280" y="614" on="0"/>
        <pt x="182" y="530" on="0"/>
        <pt x="113" y="417" on="0"/>
        <pt x="102" y="353" on="1"/>
        <pt x="90" y="288" on="0"/>
        <pt x="119" y="176" on="0"/>
        <pt x="188" y="92" on="0"/>
        <pt x="292" y="44" on="0"/>
        <pt x="356" y="44" on="1"/>
        <pt x="420" y="44" on="0"/>
        <pt x="540" y="92" on="0"/>
        <pt x="639" y="176" on="0"/>
        <pt x="707" y="288" on="0"/>
      </contour>
      <contour>
        <pt x="436" y="533" on="1"/>
        <pt x="425" y="533" on="0"/>
        <pt x="402" y="528" on="0"/>
        <pt x="391" y="525" on="1"/>
        <pt x="379" y="521" on="0"/>
        <pt x="367" y="518" on="1"/>
        <pt x="338" y="352" on="1"/>
        <pt x="405" y="352" on="1"/>
        <pt x="447" y="352" on="0"/>
        <pt x="508" y="402" on="0"/>
        <pt x="516" y="449" on="1"/>
        <pt x="524" y="496" on="0"/>
        <pt x="478" y="533" on="0"/>
      </contour>
      <contour>
        <pt x="461" y="328" on="1"/>
        <pt x="502" y="147" on="1"/>
        <pt x="468" y="147" on="1"/>
        <pt x="426" y="319" on="1"/>
        <pt x="420" y="317" on="0"/>
        <pt x="408" y="317" on="0"/>
        <pt x="402" y="317" on="1"/>
        <pt x="331" y="317" on="1"/>
        <pt x="301" y="147" on="1"/>
        <pt x="270" y="147" on="1"/>
        <pt x="341" y="545" on="1"/>
        <pt x="358" y="551" on="0"/>
        <pt x="376" y="556" on="1"/>
        <pt x="392" y="561" on="0"/>
        <pt x="429" y="568" on="0"/>
        <pt x="448" y="568" on="1"/>
        <pt x="472" y="568" on="0"/>
        <pt x="514" y="552" on="0"/>
        <pt x="543" y="522" on="0"/>
        <pt x="556" y="477" on="0"/>
        <pt x="551" y="449" on="1"/>
        <pt x="547" y="429" on="0"/>
        <pt x="530" y="391" on="0"/>
        <pt x="506" y="358" on="0"/>
        <pt x="477" y="334" on="0"/>
      </contour>
    </TTGlyph>
    <TTGlyph name="s" xMin="2" yMin="-10" xMax="323" yMax="510">
      <contour>
        <pt x="310" y="138" on="1"/>
        <pt x="297" y="64" on="0"/>
        <pt x="210" y="-10" on="0"/>
        <pt x="152" y="-10" on="1"/>
        <pt x="134" y="-10" on="0"/>
        <pt x="96" y="-4" on="0"/>
        <pt x="79" y="4" on="1"/>
        <pt x="2" y="37" on="1"/>
        <pt x="30" y="81" on="1"/>
        <pt x="106" y="48" on="1"/>
        <pt x="120" y="42" on="0"/>
        <pt x="148" y="37" on="0"/>
        <pt x="161" y="37" on="1"/>
        <pt x="196" y="37" on="0"/>
        <pt x="254" y="91" on="0"/>
        <pt x="263" y="142" on="1"/>
        <pt x="267" y="163" on="0"/>
        <pt x="255" y="193" on="0"/>
        <pt x="232" y="212" on="0"/>
        <pt x="203" y="221" on="0"/>
        <pt x="190" y="221" on="1"/>
        <pt x="154" y="221" on="0"/>
        <pt x="98" y="234" on="0"/>
        <pt x="63" y="267" on="0"/>
        <pt x="51" y="321" on="0"/>
        <pt x="58" y="362" on="1"/>
        <pt x="71" y="435" on="0"/>
        <pt x="163" y="510" on="0"/>
        <pt x="221" y="510" on="1"/>
        <pt x="238" y="510" on="0"/>
        <pt x="273" y="501" on="0"/>
        <pt x="293" y="494" on="1"/>
        <pt x="323" y="482" on="1"/>
        <pt x="297" y="439" on="1"/>
        <pt x="274" y="448" on="0"/>
        <pt x="248" y="457" on="0"/>
        <pt x="231" y="461" on="0"/>
        <pt x="222" y="462" on="0"/>
        <pt x="217" y="462" on="1"/>
        <pt x="212" y="462" on="1"/>
        <pt x="177" y="462" on="0"/>
        <pt x="114" y="407" on="0"/>
        <pt x="105" y="357" on="1"/>
        <pt x="102" y="336" on="0"/>
        <pt x="114" y="304" on="0"/>
        <pt x="138" y="281" on="0"/>
        <pt x="167" y="270" on="0"/>
        <pt x="181" y="270" on="1"/>
        <pt x="212" y="270" on="0"/>
        <pt x="266" y="259" on="0"/>
        <pt x="302" y="230" on="0"/>
        <pt x="317" y="178" on="0"/>
      </contour>
    </TTGlyph>
    <TTGlyph name="scaron" xMin="2" yMin="-10" xMax="393" yMax="750">
      <component glyphName="s" x="0" y="0" flags="0x1004"/>
      <component glyphName="caron" x="-65" y="0" flags="0x1004"/>
    </TTGlyph>
    <TTGlyph name="semicolon" xMin="-25" yMin="-94" xMax="170" yMax="411">
      <contour>
        <pt x="106" y="46" on="1"/>
        <pt x="96" y="-10" on="0"/>
        <pt x="39" y="-78" on="0"/>
        <pt x="-3" y="-94" on="1"/>
        <pt x="-25" y="-36" on="1"/>
        <pt x="-6" y="-28" on="0"/>
        <pt x="30" y="11" on="0"/>
        <pt x="37" y="47" on="1"/>
        <pt x="46" y="98" on="1"/>
        <pt x="115" y="98" on="1"/>
      </contour>
      <contour>
        <pt x="85" y="321" on="1"/>
        <pt x="101" y="411" on="1"/>
        <pt x="170" y="411" on="1"/>
        <pt x="154" y="321" on="1"/>
      </contour>
    </TTGlyph>
    <TTGlyph name="seven" xMin="32" yMin="0" xMax="388" yMax="650">
      <contour>
        <pt x="96" y="650" on="1"/>
        <pt x="388" y="650" on="1"/>
        <pt x="377" y="585" on="1"/>
        <pt x="89" y="0" on="1"/>
        <pt x="32" y="0" on="1"/>
        <pt x="324" y="599" on="1"/>
        <pt x="87" y="599" on="1"/>
      </contour>
    </TTGlyph>
    <TTGlyph name="six" xMin="41" yMin="-7" xMax="380" yMax="656">
      <contour>
        <pt x="247" y="362" on="1"/>
        <pt x="215" y="362" on="1"/>
        <pt x="198" y="362" on="0"/>
        <pt x="166" y="348" on="0"/>
        <pt x="139" y="325" on="0"/>
        <pt x="121" y="293" on="0"/>
        <pt x="118" y="275" on="1"/>
        <pt x="92" y="126" on="1"/>
        <pt x="88" y="105" on="0"/>
        <pt x="99" y="73" on="0"/>
        <pt x="122" y="52" on="0"/>
        <pt x="156" y="42" on="0"/>
        <pt x="176" y="42" on="1"/>
        <pt x="214" y="42" on="0"/>
        <pt x="280" y="81" on="0"/>
        <pt x="288" y="126" on="1"/>
        <pt x="314" y="275" on="1"/>
        <pt x="320" y="311" on="0"/>
        <pt x="281" y="362" on="0"/>
      </contour>
      <contour>
        <pt x="182" y="-7" on="1"/>
        <pt x="149" y="-7" on="1"/>
        <pt x="122" y="-7" on="0"/>
        <pt x="77" y="14" on="0"/>
        <pt x="48" y="51" on="0"/>
        <pt x="36" y="101" on="0"/>
        <pt x="41" y="130" on="1"/>
        <pt x="107" y="504" on="1"/>
        <pt x="113" y="537" on="0"/>
        <pt x="147" y="593" on="0"/>
        <pt x="196" y="634" on="0"/>
        <pt x="257" y="656" on="0"/>
        <pt x="289" y="656" on="1"/>
        <pt x="294" y="656" on="0"/>
        <pt x="324" y="650" on="0"/>
        <pt x="340" y="646" on="1"/>
        <pt x="358" y="642" on="0"/>
        <pt x="380" y="636" on="1"/>
        <pt x="357" y="589" on="1"/>
        <pt x="339" y="594" on="0"/>
        <pt x="323" y="598" on="1"/>
        <pt x="309" y="601" on="0"/>
        <pt x="285" y="607" on="0"/>
        <pt x="281" y="607" on="1"/>
        <pt x="260" y="607" on="0"/>
        <pt x="218" y="592" on="0"/>
        <pt x="184" y="565" on="0"/>
        <pt x="160" y="527" on="0"/>
        <pt x="156" y="504" on="1"/>
        <pt x="135" y="385" on="1"/>
        <pt x="149" y="395" on="0"/>
        <pt x="185" y="406" on="0"/>
        <pt x="219" y="412" on="0"/>
        <pt x="248" y="413" on="0"/>
        <pt x="256" y="413" on="1"/>
        <pt x="284" y="413" on="0"/>
        <pt x="328" y="391" on="0"/>
        <pt x="358" y="352" on="0"/>
        <pt x="369" y="301" on="0"/>
        <pt x="364" y="272" on="1"/>
        <pt x="339" y="130" on="1"/>
        <pt x="334" y="101" on="0"/>
        <pt x="305" y="51" on="0"/>
        <pt x="262" y="14" on="0"/>
        <pt x="210" y="-7" on="0"/>
      </contour>
    </TTGlyph>
    <TTGlyph name="slash" xMin="-1" yMin="1" xMax="283" yMax="699">
      <contour>
        <pt x="223" y="699" on="1"/>
        <pt x="283" y="699" on="1"/>
        <pt x="59" y="1" on="1"/>
        <pt x="-1" y="1" on="1"/>
      </contour>
    </TTGlyph>
    <TTGlyph name="sterling" xMin="36" yMin="0" xMax="497" yMax="709">
      <contour>
        <pt x="442" y="526" on="1"/>
        <pt x="449" y="567" on="0"/>
        <pt x="431" y="618" on="0"/>
        <pt x="395" y="646" on="0"/>
        <pt x="350" y="655" on="0"/>
        <pt x="332" y="655" on="1"/>
        <pt x="312" y="655" on="0"/>
        <pt x="266" y="645" on="0"/>
        <pt x="224" y="616" on="0"/>
        <pt x="191" y="567" on="0"/>
        <pt x="184" y="528" on="1"/>
        <pt x="158" y="382" on="1"/>
        <pt x="379" y="382" on="1"/>
        <pt x="368" y="323" on="1"/>
        <pt x="147" y="323" on="1"/>
        <pt x="100" y="54" on="1"/>
        <pt x="413" y="54" on="1"/>
        <pt x="404" y="0" on="1"/>
        <pt x="36" y="0" on="1"/>
        <pt x="92" y="323" on="1"/>
        <pt x="53" y="323" on="1"/>
        <pt x="64" y="382" on="1"/>
        <pt x="103" y="382" on="1"/>
        <pt x="128" y="526" on="1"/>
        <pt x="135" y="566" on="0"/>
        <pt x="173" y="633" on="0"/>
        <pt x="229" y="682" on="0"/>
        <pt x="301" y="709" on="0"/>
        <pt x="343" y="709" on="1"/>
        <pt x="384" y="709" on="0"/>
        <pt x="448" y="682" on="0"/>
        <pt x="488" y="633" on="0"/>
        <pt x="504" y="566" on="0"/>
        <pt x="497" y="526" on="1"/>
      </contour>
    </TTGlyph>
    <TTGlyph name="t" xMin="46" yMin="-1" xMax="285" yMax="700">
      <contour>
        <pt x="74" y="130" on="1"/>
        <pt x="131" y="451" on="1"/>
        <pt x="46" y="451" on="1"/>
        <pt x="55" y="501" on="1"/>
        <pt x="140" y="501" on="1"/>
        <pt x="175" y="700" on="1"/>
        <pt x="228" y="700" on="1"/>
        <pt x="193" y="501" on="1"/>
        <pt x="285" y="501" on="1"/>
        <pt x="276" y="451" on="1"/>
        <pt x="184" y="451" on="1"/>
        <pt x="127" y="125" on="1"/>
        <pt x="123" y="104" on="0"/>
        <pt x="129" y="77" on="0"/>
        <pt x="146" y="60" on="0"/>
        <pt x="170" y="53" on="0"/>
        <pt x="184" y="53" on="1"/>
        <pt x="206" y="53" on="1"/>
        <pt x="196" y="-1" on="1"/>
        <pt x="169" y="-1" on="1"/>
        <pt x="144" y="-1" on="0"/>
        <pt x="104" y="14" on="0"/>
        <pt x="78" y="45" on="0"/>
        <pt x="68" y="95" on="0"/>
      </contour>
    </TTGlyph>
    <TTGlyph name="thorn" xMin="-32" yMin="-250" xMax="376" yMax="699">
      <contour>
        <pt x="77" y="70" on="1"/>
        <pt x="126" y="41" on="0"/>
        <pt x="187" y="41" on="1"/>
        <pt x="204" y="41" on="0"/>
        <pt x="236" y="55" on="0"/>
        <pt x="263" y="79" on="0"/>
        <pt x="281" y="110" on="0"/>
        <pt x="284" y="128" on="1"/>
        <pt x="327" y="371" on="1"/>
        <pt x="333" y="407" on="0"/>
        <pt x="294" y="458" on="0"/>
        <pt x="259" y="458" on="1"/>
        <pt x="235" y="458" on="0"/>
        <pt x="165" y="441" on="0"/>
        <pt x="139" y="423" on="1"/>
      </contour>
      <contour>
        <pt x="148" y="481" on="1"/>
        <pt x="192" y="502" on="0"/>
        <pt x="251" y="509" on="0"/>
        <pt x="268" y="509" on="1"/>
        <pt x="296" y="509" on="0"/>
        <pt x="340" y="487" on="0"/>
        <pt x="370" y="448" on="0"/>
        <pt x="381" y="397" on="0"/>
        <pt x="376" y="368" on="1"/>
        <pt x="335" y="132" on="1"/>
        <pt x="330" y="103" on="0"/>
        <pt x="300" y="52" on="0"/>
        <pt x="257" y="14" on="0"/>
        <pt x="205" y="-8" on="0"/>
        <pt x="177" y="-8" on="1"/>
        <pt x="156" y="-8" on="0"/>
        <pt x="95" y="2" on="0"/>
        <pt x="66" y="18" on="1"/>
        <pt x="18" y="-250" on="1"/>
        <pt x="-32" y="-250" on="1"/>
        <pt x="136" y="699" on="1"/>
        <pt x="137" y="699" on="1"/>
        <pt x="186" y="699" on="1"/>
        <pt x="187" y="699" on="1"/>
      </contour>
    </TTGlyph>
    <TTGlyph name="three" xMin="1" yMin="-10" xMax="385" yMax="656">
      <contour>
        <pt x="102" y="610" on="1"/>
        <pt x="178" y="639" on="1"/>
        <pt x="195" y="646" on="0"/>
        <pt x="244" y="656" on="0"/>
        <pt x="258" y="656" on="1"/>
        <pt x="294" y="655" on="0"/>
        <pt x="347" y="627" on="0"/>
        <pt x="379" y="579" on="0"/>
        <pt x="390" y="513" on="0"/>
        <pt x="383" y="474" on="1"/>
        <pt x="375" y="433" on="0"/>
        <pt x="337" y="370" on="0"/>
        <pt x="293" y="336" on="1"/>
        <pt x="313" y="319" on="0"/>
        <pt x="332" y="280" on="0"/>
        <pt x="338" y="239" on="0"/>
        <pt x="333" y="196" on="0"/>
        <pt x="330" y="176" on="1"/>
        <pt x="323" y="137" on="0"/>
        <pt x="286" y="70" on="0"/>
        <pt x="233" y="20" on="0"/>
        <pt x="169" y="-10" on="0"/>
        <pt x="134" y="-10" on="1"/>
        <pt x="119" y="-9" on="0"/>
        <pt x="80" y="-1" on="0"/>
        <pt x="65" y="5" on="1"/>
        <pt x="1" y="32" on="1"/>
        <pt x="25" y="86" on="1"/>
        <pt x="100" y="51" on="1"/>
        <pt x="110" y="47" on="0"/>
        <pt x="131" y="41" on="0"/>
        <pt x="141" y="41" on="1"/>
        <pt x="166" y="41" on="0"/>
        <pt x="211" y="64" on="0"/>
        <pt x="248" y="103" on="0"/>
        <pt x="274" y="153" on="0"/>
        <pt x="280" y="180" on="1"/>
        <pt x="284" y="207" on="0"/>
        <pt x="281" y="255" on="0"/>
        <pt x="261" y="292" on="0"/>
        <pt x="223" y="314" on="0"/>
        <pt x="194" y="314" on="1"/>
        <pt x="137" y="314" on="1"/>
        <pt x="146" y="363" on="1"/>
        <pt x="204" y="363" on="1"/>
        <pt x="263" y="363" on="0"/>
        <pt x="323" y="430" on="0"/>
        <pt x="334" y="483" on="1"/>
        <pt x="337" y="510" on="0"/>
        <pt x="324" y="554" on="0"/>
        <pt x="299" y="585" on="0"/>
        <pt x="264" y="602" on="0"/>
        <pt x="246" y="602" on="1"/>
        <pt x="236" y="602" on="0"/>
        <pt x="205" y="597" on="0"/>
        <pt x="194" y="592" on="1"/>
        <pt x="115" y="559" on="1"/>
      </contour>
    </TTGlyph>
    <TTGlyph name="tilde" xMin="215" yMin="605" xMax="503" yMax="655">
      <contour>
        <pt x="489" y="655" on="1"/>
        <pt x="503" y="605" on="1"/>
        <pt x="231" y="605" on="1"/>
        <pt x="215" y="655" on="1"/>
      </contour>
    </TTGlyph>
    <TTGlyph name="trademark" xMin="124" yMin="387" xMax="554" yMax="700">
      <contour>
        <pt x="422" y="505" on="1"/>
        <pt x="515" y="700" on="1"/>
        <pt x="554" y="700" on="1"/>
        <pt x="499" y="387" on="1"/>
        <pt x="475" y="387" on="1"/>
        <pt x="521" y="647" on="1"/>
        <pt x="515" y="647" on="1"/>
        <pt x="433" y="479" on="1"/>
        <pt x="394" y="479" on="1"/>
        <pt x="372" y="647" on="1"/>
        <pt x="366" y="647" on="1"/>
        <pt x="320" y="387" on="1"/>
        <pt x="297" y="387" on="1"/>
        <pt x="352" y="700" on="1"/>
        <pt x="391" y="700" on="1"/>
        <pt x="415" y="505" on="1"/>
      </contour>
      <contour>
        <pt x="298" y="700" on="1"/>
        <pt x="294" y="676" on="1"/>
        <pt x="222" y="676" on="1"/>
        <pt x="171" y="387" on="1"/>
        <pt x="147" y="387" on="1"/>
        <pt x="198" y="676" on="1"/>
        <pt x="124" y="676" on="1"/>
        <pt x="128" y="700" on="1"/>
      </contour>
    </TTGlyph>
    <TTGlyph name="two" xMin="13" yMin="0" xMax="376" yMax="656">
      <contour>
        <pt x="273" y="366" on="1"/>
        <pt x="294" y="389" on="0"/>
        <pt x="315" y="437" on="0"/>
        <pt x="321" y="466" on="1"/>
        <pt x="324" y="493" on="0"/>
        <pt x="316" y="542" on="0"/>
        <pt x="294" y="579" on="0"/>
        <pt x="258" y="601" on="0"/>
        <pt x="233" y="601" on="1"/>
        <pt x="228" y="601" on="0"/>
        <pt x="214" y="598" on="0"/>
        <pt x="187" y="589" on="0"/>
        <pt x="141" y="572" on="0"/>
        <pt x="104" y="558" on="1"/>
        <pt x="90" y="610" on="1"/>
        <pt x="172" y="641" on="1"/>
        <pt x="188" y="647" on="0"/>
        <pt x="230" y="655" on="0"/>
        <pt x="245" y="656" on="1"/>
        <pt x="280" y="656" on="0"/>
        <pt x="334" y="626" on="0"/>
        <pt x="369" y="575" on="0"/>
        <pt x="382" y="508" on="0"/>
        <pt x="375" y="469" on="1"/>
        <pt x="369" y="434" on="0"/>
        <pt x="346" y="376" on="0"/>
        <pt x="316" y="344" on="1"/>
        <pt x="281" y="297" on="0"/>
        <pt x="197" y="195" on="0"/>
        <pt x="162" y="153" on="1"/>
        <pt x="120" y="103" on="0"/>
        <pt x="79" y="56" on="1"/>
        <pt x="300" y="56" on="1"/>
        <pt x="291" y="0" on="1"/>
        <pt x="13" y="0" on="1"/>
        <pt x="24" y="65" on="1"/>
      </contour>
    </TTGlyph>
    <TTGlyph name="u" xMin="32" yMin="-8" xMax="404" yMax="500">
      <contour>
        <pt x="38" y="74" on="1"/>
        <pt x="30" y="99" on="0"/>
        <pt x="35" y="150" on="0"/>
        <pt x="40" y="177" on="1"/>
        <pt x="97" y="500" on="1"/>
        <pt x="149" y="500" on="1"/>
        <pt x="86" y="146" on="1"/>
        <pt x="81" y="120" on="0"/>
        <pt x="90" y="81" on="0"/>
        <pt x="110" y="55" on="0"/>
        <pt x="140" y="41" on="0"/>
        <pt x="157" y="41" on="1"/>
        <pt x="173" y="41" on="0"/>
        <pt x="207" y="47" on="0"/>
        <pt x="239" y="58" on="0"/>
        <pt x="268" y="71" on="0"/>
        <pt x="278" y="77" on="1"/>
        <pt x="353" y="500" on="1"/>
        <pt x="404" y="500" on="1"/>
        <pt x="324" y="50" on="1"/>
        <pt x="343" y="29" on="1"/>
        <pt x="300" y="-7" on="1"/>
        <pt x="276" y="23" on="1"/>
        <pt x="244" y="7" on="0"/>
        <pt x="175" y="-8" on="0"/>
        <pt x="149" y="-8" on="1"/>
        <pt x="113" y="-8" on="0"/>
        <pt x="49" y="29" on="0"/>
      </contour>
    </TTGlyph>
    <TTGlyph name="uacute" xMin="32" yMin="-8" xMax="414" yMax="737">
      <component glyphName="u" x="0" y="0" flags="0x1204"/>
      <component glyphName="acute" x="-78" y="0" flags="0x1004"/>
    </TTGlyph>
    <TTGlyph name="ucircumflex" xMin="32" yMin="-8" xMax="404" yMax="751">
      <component glyphName="u" x="0" y="0" flags="0x1204"/>
      <component glyphName="circumflex" x="-35" y="0" flags="0x1004"/>
    </TTGlyph>
    <TTGlyph name="udieresis" xMin="32" yMin="-8" xMax="412" yMax="677">
      <component glyphName="u" x="0" y="0" flags="0x1204"/>
      <component glyphName="dieresis" x="-67" y="0" flags="0x1004"/>
    </TTGlyph>
    <TTGlyph name="ugrave" xMin="32" yMin="-8" xMax="404" yMax="736">
      <component glyphName="u" x="0" y="0" flags="0x1204"/>
      <component glyphName="grave" x="-71" y="0" flags="0x1004"/>
    </TTGlyph>
    <TTGlyph name="v" xMin="58" yMin="0" xMax="375" yMax="500">
      <contour>
        <pt x="324" y="500" on="1"/>
        <pt x="375" y="500" on="1"/>
        <pt x="174" y="0" on="1"/>
        <pt x="89" y="0" on="1"/>
        <pt x="58" y="500" on="1"/>
        <pt x="108" y="500" on="1"/>
        <pt x="130" y="200" on="1"/>
        <pt x="131" y="185" on="0"/>
        <pt x="132" y="140" on="0"/>
        <pt x="132" y="98" on="0"/>
        <pt x="133" y="68" on="0"/>
        <pt x="133" y="68" on="1"/>
        <pt x="153" y="68" on="1"/>
        <pt x="163" y="95" on="0"/>
        <pt x="173" y="120" on="1"/>
        <pt x="181" y="141" on="0"/>
        <pt x="199" y="186" on="0"/>
        <pt x="205" y="201" on="1"/>
      </contour>
    </TTGlyph>
    <TTGlyph name="w" xMin="57" yMin="0" xMax="539" yMax="500">
      <contour>
        <pt x="344" y="499" on="1"/>
        <pt x="341" y="65" on="1"/>
        <pt x="349" y="65" on="1"/>
        <pt x="489" y="500" on="1"/>
        <pt x="539" y="500" on="1"/>
        <pt x="371" y="0" on="1"/>
        <pt x="297" y="0" on="1"/>
        <pt x="295" y="436" on="1"/>
        <pt x="284" y="436" on="1"/>
        <pt x="130" y="0" on="1"/>
        <pt x="57" y="0" on="1"/>
        <pt x="65" y="500" on="1"/>
        <pt x="115" y="500" on="1"/>
        <pt x="98" y="66" on="1"/>
        <pt x="107" y="66" on="1"/>
        <pt x="257" y="499" on="1"/>
      </contour>
    </TTGlyph>
    <TTGlyph name="x" xMin="-26" yMin="0" xMax="373" yMax="500">
      <contour>
        <pt x="157" y="220" on="1"/>
        <pt x="25" y="0" on="1"/>
        <pt x="-26" y="0" on="1"/>
        <pt x="123" y="249" on="1"/>
        <pt x="62" y="500" on="1"/>
        <pt x="113" y="500" on="1"/>
        <pt x="172" y="280" on="1"/>
        <pt x="188" y="280" on="1"/>
        <pt x="320" y="500" on="1"/>
        <pt x="373" y="500" on="1"/>
        <pt x="226" y="249" on="1"/>
        <pt x="288" y="1" on="1"/>
        <pt x="235" y="1" on="1"/>
        <pt x="178" y="220" on="1"/>
      </contour>
    </TTGlyph>
    <TTGlyph name="y" xMin="25" yMin="-250" xMax="390" yMax="500">
      <contour>
        <pt x="25" y="-250" on="1"/>
        <pt x="111" y="0" on="1"/>
        <pt x="104" y="0" on="1"/>
        <pt x="59" y="500" on="1"/>
        <pt x="110" y="500" on="1"/>
        <pt x="117" y="390" on="0"/>
        <pt x="130" y="237" on="0"/>
        <pt x="135" y="188" on="1"/>
        <pt x="141" y="131" on="0"/>
        <pt x="146" y="94" on="1"/>
        <pt x="158" y="94" on="1"/>
        <pt x="172" y="131" on="0"/>
        <pt x="198" y="188" on="1"/>
        <pt x="219" y="237" on="0"/>
        <pt x="288" y="390" on="0"/>
        <pt x="339" y="500" on="1"/>
        <pt x="390" y="500" on="1"/>
        <pt x="168" y="0" on="1"/>
        <pt x="162" y="0" on="1"/>
        <pt x="76" y="-250" on="1"/>
      </contour>
    </TTGlyph>
    <TTGlyph name="yacute" xMin="25" yMin="-250" xMax="390" yMax="737">
      <component glyphName="y" x="0" y="0" flags="0x1204"/>
      <component glyphName="acute" x="-102" y="0" flags="0x1004"/>
    </TTGlyph>
    <TTGlyph name="ydieresis" xMin="25" yMin="-250" xMax="390" yMax="677">
      <component glyphName="y" x="0" y="0" flags="0x1204"/>
      <component glyphName="dieresis" x="-94" y="0" flags="0x1004"/>
    </TTGlyph>
    <TTGlyph name="yen" xMin="48" yMin="1" xMax="513" yMax="701">
      <contour>
        <pt x="391" y="176" on="1"/>
        <pt x="249" y="176" on="1"/>
        <pt x="218" y="1" on="1"/>
        <pt x="158" y="1" on="1"/>
        <pt x="189" y="176" on="1"/>
        <pt x="48" y="176" on="1"/>
        <pt x="59" y="240" on="1"/>
        <pt x="200" y="240" on="1"/>
        <pt x="214" y="319" on="1"/>
        <pt x="202" y="319" on="1"/>
        <pt x="189" y="371" on="1"/>
        <pt x="82" y="371" on="1"/>
        <pt x="93" y="435" on="1"/>
        <pt x="174" y="435" on="1"/>
        <pt x="110" y="701" on="1"/>
        <pt x="166" y="701" on="1"/>
        <pt x="246" y="379" on="1"/>
        <pt x="263" y="379" on="1"/>
        <pt x="457" y="701" on="1"/>
        <pt x="513" y="701" on="1"/>
        <pt x="356" y="435" on="1"/>
        <pt x="436" y="435" on="1"/>
        <pt x="425" y="371" on="1"/>
        <pt x="318" y="371" on="1"/>
        <pt x="288" y="319" on="1"/>
        <pt x="274" y="319" on="1"/>
        <pt x="260" y="240" on="1"/>
        <pt x="402" y="240" on="1"/>
        <pt x="391" y="176" on="1"/>
      </contour>
    </TTGlyph>
    <TTGlyph name="z" xMin="-16" yMin="0" xMax="395" yMax="498">
      <contour>
        <pt x="325" y="0" on="1"/>
        <pt x="-16" y="0" on="1"/>
        <pt x="-7" y="52" on="1"/>
        <pt x="312" y="428" on="1"/>
        <pt x="315" y="447" on="1"/>
        <pt x="71" y="447" on="1"/>
        <pt x="80" y="498" on="1"/>
        <pt x="395" y="498" on="1"/>
        <pt x="386" y="446" on="1"/>
        <pt x="67" y="69" on="1"/>
        <pt x="63" y="51" on="1"/>
        <pt x="333" y="51" on="1"/>
      </contour>
    </TTGlyph>
    <TTGlyph name="zcaron" xMin="-16" yMin="0" xMax="415" yMax="750">
      <component glyphName="z" x="0" y="0" flags="0x1204"/>
      <component glyphName="caron" x="-43" y="0" flags="0x1004"/>
    </TTGlyph>
    <TTGlyph name="zero" xMin="41" yMin="-9" xMax="408" yMax="655">
      <contour>
        <pt x="159" y="44" on="1"/>
        <pt x="191" y="44" on="1"/>
        <pt x="225" y="44" on="0"/>
        <pt x="282" y="95" on="0"/>
        <pt x="289" y="131" on="1"/>
        <pt x="357" y="518" on="1"/>
        <pt x="360" y="538" on="0"/>
        <pt x="350" y="569" on="0"/>
        <pt x="328" y="590" on="0"/>
        <pt x="296" y="601" on="0"/>
        <pt x="278" y="601" on="1"/>
        <pt x="257" y="601" on="0"/>
        <pt x="219" y="593" on="0"/>
        <pt x="187" y="573" on="0"/>
        <pt x="165" y="542" on="0"/>
        <pt x="161" y="518" on="1"/>
        <pt x="93" y="131" on="1"/>
        <pt x="86" y="95" on="0"/>
        <pt x="124" y="44" on="0"/>
      </contour>
      <contour>
        <pt x="408" y="518" on="1"/>
        <pt x="339" y="128" on="1"/>
        <pt x="334" y="99" on="0"/>
        <pt x="304" y="49" on="0"/>
        <pt x="262" y="12" on="0"/>
        <pt x="210" y="-9" on="0"/>
        <pt x="182" y="-9" on="1"/>
        <pt x="149" y="-9" on="1"/>
        <pt x="121" y="-9" on="0"/>
        <pt x="77" y="12" on="0"/>
        <pt x="47" y="49" on="0"/>
        <pt x="36" y="99" on="0"/>
        <pt x="41" y="128" on="1"/>
        <pt x="110" y="518" on="1"/>
        <pt x="115" y="547" on="0"/>
        <pt x="145" y="597" on="0"/>
        <pt x="187" y="634" on="0"/>
        <pt x="239" y="655" on="0"/>
        <pt x="267" y="655" on="1"/>
        <pt x="300" y="655" on="1"/>
        <pt x="327" y="655" on="0"/>
        <pt x="372" y="634" on="0"/>
        <pt x="401" y="597" on="0"/>
        <pt x="413" y="547" on="0"/>
      </contour>
    </TTGlyph>
</ttFont>
